<svg width="588" height="630" viewBox="0 0 588 630" fill="none" xmlns="http://www.w3.org/2000/svg">
<path d="M545 327.4H45V327.7H545V327.4Z" fill="#EBEBEB"/>
<path d="M130.6 343.5H97.5V343.8H130.6V343.5Z" fill="#EBEBEB"/>
<path d="M224.8 346.2H180.3V346.5H224.8V346.2Z" fill="#EBEBEB"/>
<path d="M202 334.2H131.6V334.5H202V334.2Z" fill="#EBEBEB"/>
<path d="M494.9 335.9H482.2V336.2H494.9V335.9Z" fill="#EBEBEB"/>
<path d="M473.3 335.9H436.5V336.2H473.3V335.9Z" fill="#EBEBEB"/>
<path d="M353.3 340.1H322.2V340.4H353.3V340.1Z" fill="#EBEBEB"/>
<path d="M282 282.8H88.9C85.8 282.8 83.2 280.2 83.2 277.1V5.7C83.2 2.6 85.8 0 88.9 0H282C285.1 0 287.7 2.6 287.7 5.7V277.1C287.7 280.2 285.2 282.8 282 282.8ZM88.9 0.200001C85.9 0.200001 83.4 2.6 83.4 5.7V277.1C83.4 280.1 85.8 282.6 88.9 282.6H282C285 282.6 287.5 280.2 287.5 277.1V5.7C287.5 2.7 285.1 0.200001 282 0.200001H88.9Z" fill="#EBEBEB"/>
<path d="M498.3 282.8H305.2C302.1 282.8 299.5 280.2 299.5 277.1V5.7C299.5 2.6 302.1 0 305.2 0H498.3C501.4 0 504 2.6 504 5.7V277.1C504 280.2 501.5 282.8 498.3 282.8ZM305.2 0.200001C302.2 0.200001 299.7 2.6 299.7 5.7V277.1C299.7 280.1 302.1 282.6 305.2 282.6H498.3C501.3 282.6 503.8 280.2 503.8 277.1V5.7C503.8 2.7 501.4 0.200001 498.3 0.200001H305.2Z" fill="#EBEBEB"/>
<path d="M362.592 228.027L362.592 13.7274L99.1924 13.7274L99.1924 228.027L362.592 228.027Z" fill="#EBEBEB"/>
<path d="M364.108 228.012L364.108 13.7123H362.508L362.508 228.012H364.108Z" fill="#E0E0E0"/>
<path d="M112.065 215.02L349.565 215.02V26.7198L112.065 26.7198L112.065 215.02Z" fill="#F5F5F5"/>
<path d="M220.3 215H252.1L199 26.7H167.1L220.3 215Z" fill="white"/>
<path d="M194.7 215H213.1L160 26.7H141.6L194.7 215Z" fill="white"/>
<path d="M296.9 215H304.5L251.4 26.7H243.7L296.9 215Z" fill="white"/>
<path d="M470.9 319.2H192.9C188.9 319.2 185.7 315.9 185.8 311.8L192.4 113C192.5 109 196 105.6 200 105.6H478C482 105.6 485.2 108.9 485.1 113L478.5 311.8C478.4 315.9 474.9 319.2 470.9 319.2Z" fill="#E0E0E0"/>
<g opacity="0.6">
<path d="M468.6 319.2H190.6C186.6 319.2 183.4 315.9 183.5 311.8L190 113C190.1 109 193.6 105.6 197.6 105.6H475.6C479.6 105.6 482.8 108.9 482.7 113L476.1 311.8C476.1 315.9 472.7 319.2 468.6 319.2Z" fill="#FAFAFA"/>
</g>
<path d="M465 318.8H129.2C125.7 318.8 122.7 320.8 121.3 323.8C120.5 325.5 121.7 327.4 123.6 327.4H470.6C472.5 327.4 473.7 325.5 472.9 323.8C471.6 320.9 468.5 318.8 465 318.8Z" fill="#E0E0E0"/>
<path opacity="0.6" d="M129.2 318.8H397.2C400.7 318.8 403.7 320.8 405.1 323.8C405.9 325.5 404.7 327.4 402.8 327.4H123.6C121.7 327.4 120.5 325.5 121.3 323.8C122.7 320.9 125.7 318.8 129.2 318.8Z" fill="#FAFAFA"/>
<path opacity="0.3" d="M289.4 324.3H219.7C218 324.3 216.6 325.7 216.6 327.4H292.6C292.5 325.7 291.1 324.3 289.4 324.3Z" fill="#E0E0E0"/>
<path opacity="0.9" d="M190.1 304.6L196.2 120.2C196.3 118.6 197.6 117.3 199.2 117.3H473.4C475 117.3 476.2 118.6 476.2 120.2L470 304.6C469.9 306.2 468.6 307.5 467 307.5H192.9C191.3 307.5 190.1 306.2 190.1 304.6Z" fill="white"/>
<path d="M197.4 296.8L203 127.9C203.1 126 204.7 124.4 206.6 124.4H465.3C467.3 124.4 469 126.1 468.9 128.1L463.3 297C463.2 298.9 461.6 300.5 459.7 300.5H201C198.9 300.5 197.3 298.8 197.4 296.8Z" fill="#F0F0F0"/>
<path d="M408.4 307.5H453.9L401.5 117.4H356.1L408.4 307.5Z" fill="white"/>
<path d="M379.5 307.5H395.8L343.5 117.4H327.1L379.5 307.5Z" fill="white"/>
<path d="M286.4 307.5H302.8L250.4 117.4H234L286.4 307.5Z" fill="white"/>
<path opacity="0.4" d="M338.6 226.2C338.6 227.4 337.6 228.4 336.4 228.4C335.2 228.4 334.3 227.4 334.3 226.2C334.3 225 335.3 224 336.5 224C337.7 224 338.7 225 338.6 226.2Z" fill="white"/>
<path d="M295 372.5C402.088 372.5 488.9 367.441 488.9 361.2C488.9 354.959 402.088 349.9 295 349.9C187.912 349.9 101.1 354.959 101.1 361.2C101.1 367.441 187.912 372.5 295 372.5Z" fill="#F5F5F5"/>
<path opacity="0.5" d="M203 232.8C159.2 189 159.2 118.1 203 74.3002C246.8 30.5002 317.7 30.5002 361.5 74.3002C405.3 118.1 405.3 189 361.5 232.8C317.7 276.5 246.8 276.5 203 232.8Z" fill="white"/>
<path d="M307.8 96.2002C310.8 92.3002 314 88.1002 319.5 82.7002C322.4 79.9002 331.4 73.9002 334.8 72.7002C337.4 71.8002 342.4 85.5002 342.4 94.0002C342.4 102 339.5 125.7 339.5 125.7L307.8 96.2002Z" fill="#D94D7F"/>
<path opacity="0.2" d="M314.2 104.4C319.9 103.6 328.1 92.8002 333.5 87.3002C338.9 81.8002 339.5 90.3002 338.6 101.2C338.1 106.6 336.9 112.9 335.2 115.9C334.6 116.9 333.1 116.9 332.4 116C328.6 111.4 321.4 106.3 314.2 104.4Z" fill="white"/>
<path d="M346.5 251C344.4 252.4 342.2 253.7 340 255C318.4 267.4 293.6 272.2 269.5 269.6C248 267.3 227.1 259 209.4 244.8C214.4 236.3 218.3 229.5 220 225.6C227 209.5 230.7 207.3 231.1 193.3C231.6 179.3 225 163.2 223.3 148.9C234.7 143.5 333.1 176.1 333.1 176.1C323.6 195.6 339.4 210.7 343.1 219.6C347.7 230.1 347.7 240.6 346.5 251Z" fill="#D94D7F"/>
<path d="M351.2 148.6C353.3 149.7 354.6 152.4 354.6 152.4C354.6 152.4 354.4 142.4 349 134.5C343.4 126.4 339.2 123.8 334.2 114.1C329 104.1 317.2 92.0002 301 90.8002C284.8 89.5002 246.1 87.4002 232.1 112.2C228 119.5 225.5 126.4 224.2 132.9C219.1 141.2 215.2 156.6 215.4 161.1C217.9 158 221.6 155.6 221.6 155.6C221.6 155.6 219.4 169.4 220 176.7C223.3 172.7 227 170.4 229.5 169.1C236.2 181 260.3 198.3 294.2 194.5C321.8 191.4 334.2 187.2 339.9 178.1C341.8 175.1 343.8 171.3 345.5 167.4C346.5 168.3 348.6 170.6 350.3 175C351.8 167.7 349.9 160.2 349.9 160.2C349.9 160.2 352.6 162.9 354 164.5C354.2 158 353.7 154 351.2 148.6Z" fill="#D94D7F"/>
<path opacity="0.3" d="M272.7 122.7C276.4 117.9 283.8 114.2 290.3 120.3C292.4 122.3 288.9 138.5 272.7 122.7Z" fill="black"/>
<path opacity="0.3" d="M334.4 121C331.3 116.7 325.7 113.7 320.5 119.1C318.1 121.7 324.7 135.8 334.4 121Z" fill="black"/>
<path d="M319.1 131.3C309.9 130.9 304.9 131.1 305.7 136.2C306.4 140.4 315.9 145.2 319.2 143.4C324.2 140.6 326.9 131.6 319.1 131.3Z" fill="white"/>
<path opacity="0.1" d="M315.6 142.4C306.5 139.8 288.7 137.2 283.2 147.1C279.1 154.5 281.2 162 287.5 167.5C294.2 173.3 304.8 179 315.4 179.9C330.1 181.2 336.3 175.8 340.1 169.9C345.9 161.1 348.6 146.5 337.3 142.3C330.9 139.9 321.9 141.1 315.6 142.4Z" fill="white"/>
<path opacity="0.1" d="M340 254.9C318.4 267.3 293.6 272.1 269.5 269.5C265.5 257.8 264.7 243.5 268.4 229.3C274.7 205.1 295.4 210.6 306 216.6C313.4 213.2 323.8 209.8 331.3 215.2C339.7 221.4 341.5 238.1 340 254.9Z" fill="white"/>
<path opacity="0.2" d="M306.6 157.9C304.2 157.9 301.4 157.4 298.5 156.4C298.1 156.3 298 155.9 298.1 155.5C298.2 155.1 298.6 154.9 299 155.1C304.6 157 309.1 157 312.5 155.2C316.4 153.1 317.3 149.2 317.3 149.2C317.4 148.9 317.6 148.7 317.9 148.7C318.2 148.7 318.4 148.8 318.6 149C324.4 158.7 330.7 155.5 330.8 155.4C331.1 155.2 331.6 155.4 331.7 155.7C331.9 156 331.7 156.5 331.4 156.6C331.3 156.6 324.4 160.1 318.2 150.8C317.5 152.3 316.1 154.7 313.2 156.3C311.2 157.4 309 157.9 306.6 157.9Z" fill="black"/>
<path d="M256.9 96.5002C250.7 94.3002 245.8 90.0002 238.8 83.2002C233.5 78.1002 229.3 70.8002 224.5 70.4002C220.8 70.1002 217.7 83.2002 219.8 95.8002C221.4 105.6 231.8 129.8 231.8 129.8L256.9 96.5002Z" fill="#D94D7F"/>
<path opacity="0.2" d="M246.2 99.0002C247.6 98.1002 247.6 96.1002 246.1 95.2002C241 92.1002 234.8 85.6002 231.1 81.2002C226.2 75.4002 224.6 85.4002 226.7 96.1002C227.4 99.8002 229.2 103.6 230.9 106.5C232.2 108.8 235.5 109.1 237.1 106.9C239.4 104.1 242.6 101.2 246.2 99.0002Z" fill="white"/>
<path d="M341.5 113.1L256.9 114.9C256.4 114.9 256 114.5 256 114.1C256 113.6 256.4 113.2 256.8 113.2L341.4 111.4C341.9 111.4 342.3 111.8 342.3 112.2C342.3 112.7 342 113.1 341.5 113.1Z" fill="white"/>
<path d="M267.7 133L245.8 133.4L245 113.4L267 112.9L267.7 133Z" fill="white"/>
<path opacity="0.3" d="M258.7 123.2C258.7 124.5 257.7 125.5 256.4 125.5C255.1 125.5 254.1 124.5 254.1 123.2C254.1 121.9 255.1 120.9 256.4 120.9C257.7 120.9 258.7 121.9 258.7 123.2Z" fill="black"/>
<path opacity="0.2" d="M267.7 131.8L296.3 131.2C298.6 131.2 300.4 129.2 300.3 126.9L299.8 113.1L267 113.8L267.7 131.8Z" fill="white"/>
<path d="M225.7 133.8L245.8 133.4L245 113.4L225 113.8C223.3 113.8 221.9 115.3 222 117L222.5 130.9C222.6 132.6 224 133.9 225.7 133.8Z" fill="white"/>
<path opacity="0.3" d="M225.7 133.8L245.8 133.4L245 113.4L225 113.8C223.3 113.8 221.9 115.3 222 117L222.5 130.9C222.6 132.6 224 133.9 225.7 133.8Z" fill="#D94D7F"/>
<path d="M444.7 295.6C444.2 293.4 443.3 291.6 442.1 290.1C439.5 287.3 436.8 284.7 434 282.1C431.3 279.5 428.5 276.9 425.7 274.4C422.9 271.8 420 269.4 417.2 266.9C411.4 262 405.5 257.2 399.4 252.6C396.6 250.5 393.8 248.5 390.9 246.5C392.2 242.8 391.5 238.6 388.5 235.6L384.3 231.4C383.5 230.6 382.7 230 381.8 229.6C419.4 180.5 415.8 110 370.8 65.0002C321.9 16.1002 242.6 16.1002 193.7 65.0002C144.8 113.9 144.8 193.2 193.7 242.1C238.6 287 309.2 290.7 358.3 253.1C358.8 254 359.4 254.8 360.1 255.6L364.3 259.8C367.2 262.7 371.5 263.5 375.2 262.2C377.2 265.1 379.2 267.9 381.3 270.7C385.9 276.8 390.7 282.8 395.6 288.5C398.1 291.4 400.6 294.2 403.1 297C405.6 299.8 408.2 302.6 410.8 305.3C413.4 308 416 310.8 418.8 313.4C420.3 314.6 422.1 315.5 424.3 316C426.5 316.4 429.1 316.5 432.6 315.7C438.2 314.3 442.8 310 444.3 304C445.2 300.4 445.1 297.8 444.7 295.6ZM199.7 236C154.1 190.4 154.1 116.5 199.7 71.0002C245.3 25.4002 319.2 25.4002 364.8 71.0002C410.4 116.6 410.4 190.5 364.8 236C319.2 281.6 245.3 281.6 199.7 236Z" fill="#D94D7F"/>
<path opacity="0.2" d="M444.7 295.6C444.2 293.4 443.3 291.6 442.1 290.1C439.5 287.3 436.8 284.7 434 282.1C431.3 279.5 428.5 276.9 425.7 274.4C422.9 271.8 420 269.4 417.2 266.9C411.4 262 405.5 257.2 399.4 252.6C396.6 250.5 393.8 248.5 390.9 246.5C392.2 242.8 391.5 238.6 388.5 235.6L384.3 231.4C383.5 230.6 382.7 230 381.8 229.6C419.4 180.5 415.8 110 370.8 65.0002C321.9 16.1002 242.6 16.1002 193.7 65.0002C144.8 113.9 144.8 193.2 193.7 242.1C238.6 287 309.2 290.7 358.3 253.1C358.8 254 359.4 254.8 360.1 255.6L364.3 259.8C367.2 262.7 371.5 263.5 375.2 262.2C377.2 265.1 379.2 267.9 381.3 270.7C385.9 276.8 390.7 282.8 395.6 288.5C398.1 291.4 400.6 294.2 403.1 297C405.6 299.8 408.2 302.6 410.8 305.3C413.4 308 416 310.8 418.8 313.4C420.3 314.6 422.1 315.5 424.3 316C426.5 316.4 429.1 316.5 432.6 315.7C438.2 314.3 442.8 310 444.3 304C445.2 300.4 445.1 297.8 444.7 295.6ZM199.7 236C154.1 190.4 154.1 116.5 199.7 71.0002C245.3 25.4002 319.2 25.4002 364.8 71.0002C410.4 116.6 410.4 190.5 364.8 236C319.2 281.6 245.3 281.6 199.7 236Z" fill="black"/>
<path opacity="0.3" d="M375.2 262.1L390.8 246.5C390.9 246.5 386.7 258.4 375.2 262.1Z" fill="black"/>
<path d="M399.3 102C397.8 98.6002 396.1 95.2002 394.4 92.0002L395.3 91.5002C397.1 94.8002 398.8 98.2002 400.3 101.6L399.3 102ZM390 84.6002C385 76.8002 379.2 69.6002 372.7 63.0002L373.5 62.2002C380.1 68.8002 386 76.1002 391 83.9002L390 84.6002Z" fill="#D94D7F"/>
<path opacity="0.2" d="M399.3 102C397.8 98.6002 396.1 95.2002 394.4 92.0002L395.3 91.5002C397.1 94.8002 398.8 98.2002 400.3 101.6L399.3 102ZM390 84.6002C385 76.8002 379.2 69.6002 372.7 63.0002L373.5 62.2002C380.1 68.8002 386 76.1002 391 83.9002L390 84.6002Z" fill="black"/>
<path d="M27.0991 495.675H34.0229V522.623C34.0229 525.688 33.3582 528.255 32.0288 530.322C30.6995 532.39 28.89 533.951 26.6005 535.003C24.3295 536.037 21.7908 536.554 18.9843 536.554C16.0855 536.554 13.5006 536.037 11.2296 535.003C8.95854 533.951 7.16757 532.39 5.85665 530.322C4.5642 528.255 3.91797 525.688 3.91797 522.623V495.675H10.8418V522.623C10.8418 524.562 11.1742 526.159 11.8389 527.414C12.5036 528.651 13.4452 529.565 14.6638 530.156C15.8824 530.747 17.3226 531.043 18.9843 531.043C20.646 531.043 22.0769 530.747 23.2771 530.156C24.4957 529.565 25.4373 528.651 26.102 527.414C26.7667 526.159 27.0991 524.562 27.0991 522.623V495.675ZM47.6214 511.794V547.521H40.9468V506.034H47.0952L47.6214 511.794ZM67.1467 520.74V521.321C67.1467 523.5 66.8882 525.522 66.3712 527.387C65.8727 529.233 65.1249 530.849 64.1279 532.233C63.1493 533.6 61.9399 534.661 60.4998 535.418C59.0596 536.175 57.3979 536.554 55.5146 536.554C53.6497 536.554 52.0157 536.212 50.6125 535.529C49.2277 534.828 48.0553 533.84 47.0952 532.566C46.1351 531.292 45.3596 529.796 44.7687 528.079C44.1964 526.344 43.7902 524.442 43.5501 522.374V520.131C43.7902 517.933 44.1964 515.939 44.7687 514.148C45.3596 512.357 46.1351 510.816 47.0952 509.523C48.0553 508.231 49.2277 507.234 50.6125 506.532C51.9973 505.83 53.6128 505.48 55.4592 505.48C57.3425 505.48 59.0134 505.849 60.4721 506.587C61.9307 507.308 63.1585 508.341 64.1556 509.689C65.1526 511.019 65.9004 512.625 66.3989 514.508C66.8974 516.373 67.1467 518.45 67.1467 520.74ZM60.4721 521.321V520.74C60.4721 519.355 60.3428 518.072 60.0843 516.89C59.8258 515.69 59.4196 514.638 58.8657 513.733C58.3118 512.828 57.601 512.127 56.7332 511.628C55.8838 511.111 54.8591 510.853 53.659 510.853C52.4773 510.853 51.4618 511.056 50.6125 511.462C49.7632 511.85 49.0523 512.394 48.4799 513.096C47.9076 513.797 47.4644 514.619 47.1506 515.561C46.8367 516.484 46.6151 517.49 46.4859 518.58V523.952C46.7074 525.282 47.0859 526.5 47.6214 527.608C48.1568 528.716 48.9138 529.602 49.8924 530.267C50.8894 530.913 52.1634 531.236 53.7144 531.236C54.9145 531.236 55.9392 530.978 56.7886 530.461C57.6379 529.944 58.3303 529.233 58.8657 528.328C59.4196 527.405 59.8258 526.344 60.0843 525.143C60.3428 523.943 60.4721 522.669 60.4721 521.321ZM89.6354 527.885C89.6354 527.221 89.4692 526.62 89.1368 526.085C88.8045 525.531 88.1675 525.033 87.2259 524.589C86.3027 524.146 84.9364 523.74 83.1269 523.371C81.5391 523.02 80.0804 522.605 78.7511 522.125C77.4401 521.626 76.3139 521.026 75.3722 520.324C74.4306 519.623 73.7012 518.792 73.1843 517.832C72.6673 516.872 72.4088 515.764 72.4088 514.508C72.4088 513.29 72.6765 512.136 73.212 511.046C73.7474 509.957 74.5136 508.997 75.5107 508.166C76.5077 507.335 77.7171 506.68 79.1388 506.2C80.5789 505.72 82.1853 505.48 83.9578 505.48C86.4688 505.48 88.6199 505.904 90.4108 506.754C92.2203 507.584 93.605 508.72 94.5651 510.16C95.5253 511.582 96.0053 513.188 96.0053 514.979H89.3307C89.3307 514.185 89.1276 513.447 88.7214 512.764C88.3337 512.062 87.7428 511.499 86.9489 511.074C86.155 510.631 85.1579 510.409 83.9578 510.409C82.813 510.409 81.8622 510.594 81.1052 510.963C80.3666 511.314 79.8127 511.776 79.4434 512.348C79.0926 512.92 78.9172 513.548 78.9172 514.231C78.9172 514.73 79.0095 515.182 79.1942 515.588C79.3973 515.976 79.7296 516.336 80.1912 516.669C80.6528 516.982 81.2806 517.278 82.0745 517.555C82.8869 517.832 83.9024 518.1 85.121 518.358C87.4105 518.838 89.3769 519.457 91.0201 520.214C92.6819 520.952 93.9558 521.912 94.8421 523.094C95.7284 524.257 96.1715 525.734 96.1715 527.525C96.1715 528.855 95.8853 530.073 95.3129 531.181C94.759 532.27 93.9466 533.221 92.8757 534.034C91.8048 534.828 90.5216 535.446 89.0261 535.889C87.549 536.332 85.8872 536.554 84.0409 536.554C81.3267 536.554 79.028 536.074 77.1447 535.114C75.2614 534.135 73.8305 532.889 72.8519 531.375C71.8918 529.842 71.4118 528.255 71.4118 526.611H77.8648C77.9387 527.848 78.2802 528.836 78.8895 529.575C79.5173 530.295 80.2928 530.821 81.2159 531.153C82.1576 531.467 83.1269 531.624 84.124 531.624C85.3241 531.624 86.3304 531.467 87.1428 531.153C87.9552 530.821 88.5737 530.378 88.9984 529.824C89.423 529.252 89.6354 528.605 89.6354 527.885ZM109.715 495.675L109.05 524.119H103.345L102.652 495.675H109.715ZM102.458 532.843C102.458 531.827 102.791 530.978 103.455 530.295C104.139 529.593 105.08 529.242 106.28 529.242C107.462 529.242 108.394 529.593 109.078 530.295C109.761 530.978 110.102 531.827 110.102 532.843C110.102 533.821 109.761 534.661 109.078 535.363C108.394 536.046 107.462 536.388 106.28 536.388C105.08 536.388 104.139 536.046 103.455 535.363C102.791 534.661 102.458 533.821 102.458 532.843ZM117.303 532.677C117.303 531.643 117.654 530.775 118.356 530.073C119.057 529.353 120.008 528.993 121.208 528.993C122.427 528.993 123.378 529.353 124.061 530.073C124.762 530.775 125.113 531.643 125.113 532.677C125.113 533.711 124.762 534.578 124.061 535.28C123.378 535.982 122.427 536.332 121.208 536.332C120.008 536.332 119.057 535.982 118.356 535.28C117.654 534.578 117.303 533.711 117.303 532.677ZM133.09 532.677C133.09 531.643 133.44 530.775 134.142 530.073C134.844 529.353 135.794 528.993 136.995 528.993C138.213 528.993 139.164 529.353 139.847 530.073C140.549 530.775 140.9 531.643 140.9 532.677C140.9 533.711 140.549 534.578 139.847 535.28C139.164 535.982 138.213 536.332 136.995 536.332C135.794 536.332 134.844 535.982 134.142 535.28C133.44 534.578 133.09 533.711 133.09 532.677ZM148.876 532.677C148.876 531.643 149.227 530.775 149.928 530.073C150.63 529.353 151.581 528.993 152.781 528.993C154 528.993 154.95 529.353 155.634 530.073C156.335 530.775 156.686 531.643 156.686 532.677C156.686 533.711 156.335 534.578 155.634 535.28C154.95 535.982 154 536.332 152.781 536.332C151.581 536.332 150.63 535.982 149.928 535.28C149.227 534.578 148.876 533.711 148.876 532.677ZM185.129 512.431V536H178.455V506.034H184.741L185.129 512.431ZM183.938 519.909L181.778 519.881C181.797 517.758 182.092 515.81 182.664 514.038C183.255 512.265 184.068 510.742 185.102 509.468C186.154 508.194 187.409 507.215 188.868 506.532C190.327 505.83 191.952 505.48 193.743 505.48C195.183 505.48 196.484 505.683 197.648 506.089C198.829 506.477 199.836 507.114 200.666 508C201.516 508.886 202.162 510.04 202.605 511.462C203.048 512.865 203.27 514.591 203.27 516.641V536H196.567V516.613C196.567 515.173 196.355 514.038 195.93 513.207C195.524 512.357 194.924 511.757 194.13 511.406C193.355 511.037 192.385 510.853 191.222 510.853C190.077 510.853 189.053 511.093 188.148 511.573C187.243 512.053 186.477 512.708 185.849 513.539C185.24 514.37 184.769 515.33 184.437 516.419C184.105 517.509 183.938 518.672 183.938 519.909ZM208.809 521.349V520.712C208.809 518.552 209.123 516.549 209.75 514.702C210.378 512.837 211.283 511.222 212.465 509.856C213.665 508.471 215.123 507.4 216.841 506.643C218.576 505.867 220.533 505.48 222.712 505.48C224.909 505.48 226.866 505.867 228.583 506.643C230.319 507.4 231.787 508.471 232.987 509.856C234.187 511.222 235.101 512.837 235.729 514.702C236.357 516.549 236.67 518.552 236.67 520.712V521.349C236.67 523.509 236.357 525.513 235.729 527.359C235.101 529.205 234.187 530.821 232.987 532.206C231.787 533.572 230.328 534.643 228.611 535.418C226.894 536.175 224.946 536.554 222.767 536.554C220.57 536.554 218.604 536.175 216.868 535.418C215.151 534.643 213.692 533.572 212.492 532.206C211.292 530.821 210.378 529.205 209.75 527.359C209.123 525.513 208.809 523.509 208.809 521.349ZM215.483 520.712V521.349C215.483 522.697 215.622 523.971 215.899 525.171C216.176 526.371 216.61 527.424 217.201 528.328C217.791 529.233 218.548 529.944 219.472 530.461C220.395 530.978 221.493 531.236 222.767 531.236C224.004 531.236 225.075 530.978 225.98 530.461C226.903 529.944 227.66 529.233 228.251 528.328C228.842 527.424 229.276 526.371 229.553 525.171C229.848 523.971 229.996 522.697 229.996 521.349V520.712C229.996 519.383 229.848 518.127 229.553 516.946C229.276 515.745 228.833 514.684 228.223 513.761C227.633 512.837 226.875 512.117 225.952 511.6C225.048 511.065 223.967 510.797 222.712 510.797C221.456 510.797 220.367 511.065 219.444 511.6C218.539 512.117 217.791 512.837 217.201 513.761C216.61 514.684 216.176 515.745 215.899 516.946C215.622 518.127 215.483 519.383 215.483 520.712ZM263.092 511.739V536H256.417V506.034H262.787L263.092 511.739ZM272.259 505.84L272.204 512.043C271.797 511.97 271.354 511.914 270.874 511.877C270.413 511.84 269.951 511.822 269.49 511.822C268.345 511.822 267.339 511.988 266.471 512.32C265.603 512.634 264.874 513.096 264.283 513.705C263.71 514.296 263.267 515.016 262.953 515.865C262.64 516.715 262.455 517.666 262.4 518.718L260.876 518.829C260.876 516.946 261.061 515.201 261.43 513.594C261.799 511.988 262.353 510.576 263.092 509.357C263.849 508.138 264.791 507.188 265.917 506.504C267.062 505.821 268.382 505.48 269.877 505.48C270.283 505.48 270.717 505.517 271.179 505.59C271.659 505.664 272.019 505.747 272.259 505.84ZM289.098 536.554C286.882 536.554 284.879 536.194 283.088 535.474C281.316 534.735 279.801 533.711 278.546 532.4C277.309 531.089 276.358 529.547 275.693 527.774C275.029 526.002 274.696 524.091 274.696 522.041V520.934C274.696 518.589 275.038 516.465 275.721 514.564C276.404 512.662 277.355 511.037 278.574 509.689C279.792 508.323 281.232 507.28 282.894 506.56C284.556 505.84 286.356 505.48 288.295 505.48C290.437 505.48 292.311 505.84 293.917 506.56C295.523 507.28 296.853 508.295 297.905 509.606C298.976 510.899 299.77 512.44 300.287 514.231C300.822 516.022 301.09 517.998 301.09 520.158V523.011H277.937V518.22H294.499V517.693C294.462 516.493 294.222 515.367 293.778 514.314C293.354 513.262 292.698 512.413 291.812 511.766C290.926 511.12 289.744 510.797 288.267 510.797C287.159 510.797 286.171 511.037 285.304 511.517C284.454 511.979 283.743 512.653 283.171 513.539C282.599 514.425 282.156 515.496 281.842 516.752C281.546 517.989 281.399 519.383 281.399 520.934V522.041C281.399 523.352 281.574 524.571 281.925 525.697C282.294 526.805 282.83 527.774 283.531 528.605C284.233 529.436 285.082 530.092 286.079 530.572C287.076 531.033 288.212 531.264 289.486 531.264C291.092 531.264 292.523 530.941 293.778 530.295C295.034 529.649 296.123 528.735 297.047 527.553L300.564 530.959C299.918 531.901 299.078 532.806 298.044 533.674C297.01 534.523 295.745 535.215 294.249 535.751C292.772 536.286 291.055 536.554 289.098 536.554ZM323.108 527.885C323.108 527.221 322.942 526.62 322.609 526.085C322.277 525.531 321.64 525.033 320.698 524.589C319.775 524.146 318.409 523.74 316.599 523.371C315.012 523.02 313.553 522.605 312.224 522.125C310.913 521.626 309.786 521.026 308.845 520.324C307.903 519.623 307.174 518.792 306.657 517.832C306.14 516.872 305.881 515.764 305.881 514.508C305.881 513.29 306.149 512.136 306.685 511.046C307.22 509.957 307.986 508.997 308.983 508.166C309.98 507.335 311.19 506.68 312.611 506.2C314.052 505.72 315.658 505.48 317.43 505.48C319.941 505.48 322.092 505.904 323.883 506.754C325.693 507.584 327.078 508.72 328.038 510.16C328.998 511.582 329.478 513.188 329.478 514.979H322.803C322.803 514.185 322.6 513.447 322.194 512.764C321.806 512.062 321.215 511.499 320.421 511.074C319.628 510.631 318.63 510.409 317.43 510.409C316.286 510.409 315.335 510.594 314.578 510.963C313.839 511.314 313.285 511.776 312.916 512.348C312.565 512.92 312.39 513.548 312.39 514.231C312.39 514.73 312.482 515.182 312.667 515.588C312.87 515.976 313.202 516.336 313.664 516.669C314.125 516.982 314.753 517.278 315.547 517.555C316.359 517.832 317.375 518.1 318.594 518.358C320.883 518.838 322.849 519.457 324.493 520.214C326.154 520.952 327.428 521.912 328.315 523.094C329.201 524.257 329.644 525.734 329.644 527.525C329.644 528.855 329.358 530.073 328.785 531.181C328.232 532.27 327.419 533.221 326.348 534.034C325.277 534.828 323.994 535.446 322.499 535.889C321.022 536.332 319.36 536.554 317.513 536.554C314.799 536.554 312.501 536.074 310.617 535.114C308.734 534.135 307.303 532.889 306.324 531.375C305.364 529.842 304.884 528.255 304.884 526.611H311.337C311.411 527.848 311.753 528.836 312.362 529.575C312.99 530.295 313.765 530.821 314.689 531.153C315.63 531.467 316.599 531.624 317.597 531.624C318.797 531.624 319.803 531.467 320.615 531.153C321.428 530.821 322.046 530.378 322.471 529.824C322.896 529.252 323.108 528.605 323.108 527.885ZM353.518 528.938V506.034H360.22V536H353.905L353.518 528.938ZM354.459 522.706L356.702 522.651C356.702 524.663 356.481 526.519 356.038 528.218C355.595 529.898 354.912 531.366 353.988 532.621C353.065 533.858 351.883 534.828 350.443 535.529C349.003 536.212 347.277 536.554 345.264 536.554C343.806 536.554 342.467 536.342 341.248 535.917C340.03 535.492 338.977 534.837 338.091 533.951C337.223 533.064 336.549 531.91 336.069 530.489C335.589 529.067 335.349 527.368 335.349 525.393V506.034H342.024V525.448C342.024 526.537 342.153 527.451 342.412 528.19C342.67 528.91 343.021 529.492 343.464 529.935C343.907 530.378 344.424 530.692 345.015 530.876C345.606 531.061 346.234 531.153 346.898 531.153C348.8 531.153 350.296 530.784 351.385 530.045C352.493 529.288 353.277 528.273 353.739 526.999C354.219 525.725 354.459 524.294 354.459 522.706ZM374.206 493.46V536H367.504V493.46H374.206ZM395.255 506.034V510.908H378.36V506.034H395.255ZM383.235 498.694H389.909V527.719C389.909 528.642 390.039 529.353 390.297 529.852C390.574 530.332 390.953 530.655 391.433 530.821C391.913 530.987 392.476 531.07 393.122 531.07C393.584 531.07 394.027 531.043 394.451 530.987C394.876 530.932 395.218 530.876 395.476 530.821L395.504 535.917C394.95 536.083 394.304 536.231 393.565 536.36C392.845 536.489 392.014 536.554 391.073 536.554C389.54 536.554 388.183 536.286 387.001 535.751C385.82 535.197 384.896 534.301 384.232 533.064C383.567 531.827 383.235 530.184 383.235 528.134V498.694ZM417.217 527.885C417.217 527.221 417.051 526.62 416.718 526.085C416.386 525.531 415.749 525.033 414.808 524.589C413.884 524.146 412.518 523.74 410.709 523.371C409.121 523.02 407.662 522.605 406.333 522.125C405.022 521.626 403.896 521.026 402.954 520.324C402.012 519.623 401.283 518.792 400.766 517.832C400.249 516.872 399.99 515.764 399.99 514.508C399.99 513.29 400.258 512.136 400.794 511.046C401.329 509.957 402.095 508.997 403.092 508.166C404.089 507.335 405.299 506.68 406.72 506.2C408.161 505.72 409.767 505.48 411.539 505.48C414.051 505.48 416.202 505.904 417.992 506.754C419.802 507.584 421.187 508.72 422.147 510.16C423.107 511.582 423.587 513.188 423.587 514.979H416.912C416.912 514.185 416.709 513.447 416.303 512.764C415.915 512.062 415.324 511.499 414.531 511.074C413.737 510.631 412.74 510.409 411.539 510.409C410.395 510.409 409.444 510.594 408.687 510.963C407.948 511.314 407.394 511.776 407.025 512.348C406.674 512.92 406.499 513.548 406.499 514.231C406.499 514.73 406.591 515.182 406.776 515.588C406.979 515.976 407.311 516.336 407.773 516.669C408.234 516.982 408.862 517.278 409.656 517.555C410.469 517.832 411.484 518.1 412.703 518.358C414.992 518.838 416.959 519.457 418.602 520.214C420.264 520.952 421.538 521.912 422.424 523.094C423.31 524.257 423.753 525.734 423.753 527.525C423.753 528.855 423.467 530.073 422.895 531.181C422.341 532.27 421.528 533.221 420.457 534.034C419.386 534.828 418.103 535.446 416.608 535.889C415.131 536.332 413.469 536.554 411.623 536.554C408.908 536.554 406.61 536.074 404.726 535.114C402.843 534.135 401.412 532.889 400.434 531.375C399.473 529.842 398.993 528.255 398.993 526.611H405.446C405.52 527.848 405.862 528.836 406.471 529.575C407.099 530.295 407.874 530.821 408.798 531.153C409.739 531.467 410.709 531.624 411.706 531.624C412.906 531.624 413.912 531.467 414.724 531.153C415.537 530.821 416.155 530.378 416.58 529.824C417.005 529.252 417.217 528.605 417.217 527.885ZM452.75 536H446.076V503.153C446.076 500.919 446.491 499.045 447.322 497.531C448.171 495.999 449.381 494.845 450.95 494.069C452.519 493.275 454.375 492.878 456.517 492.878C457.182 492.878 457.837 492.924 458.483 493.017C459.129 493.091 459.757 493.211 460.367 493.377L460.2 498.528C459.831 498.436 459.425 498.371 458.982 498.334C458.557 498.297 458.095 498.279 457.597 498.279C456.581 498.279 455.704 498.473 454.966 498.86C454.246 499.23 453.692 499.774 453.304 500.494C452.935 501.215 452.75 502.101 452.75 503.153V536ZM458.926 506.034V510.908H441.478V506.034H458.926ZM462.499 521.349V520.712C462.499 518.552 462.813 516.549 463.441 514.702C464.068 512.837 464.973 511.222 466.155 509.856C467.355 508.471 468.814 507.4 470.531 506.643C472.266 505.867 474.223 505.48 476.402 505.48C478.599 505.48 480.557 505.867 482.274 506.643C484.009 507.4 485.477 508.471 486.677 509.856C487.877 511.222 488.791 512.837 489.419 514.702C490.047 516.549 490.361 518.552 490.361 520.712V521.349C490.361 523.509 490.047 525.513 489.419 527.359C488.791 529.205 487.877 530.821 486.677 532.206C485.477 533.572 484.018 534.643 482.301 535.418C480.584 536.175 478.636 536.554 476.458 536.554C474.26 536.554 472.294 536.175 470.558 535.418C468.841 534.643 467.383 533.572 466.183 532.206C464.982 530.821 464.068 529.205 463.441 527.359C462.813 525.513 462.499 523.509 462.499 521.349ZM469.174 520.712V521.349C469.174 522.697 469.312 523.971 469.589 525.171C469.866 526.371 470.3 527.424 470.891 528.328C471.482 529.233 472.239 529.944 473.162 530.461C474.085 530.978 475.184 531.236 476.458 531.236C477.695 531.236 478.766 530.978 479.67 530.461C480.593 529.944 481.35 529.233 481.941 528.328C482.532 527.424 482.966 526.371 483.243 525.171C483.538 523.971 483.686 522.697 483.686 521.349V520.712C483.686 519.383 483.538 518.127 483.243 516.946C482.966 515.745 482.523 514.684 481.914 513.761C481.323 512.837 480.566 512.117 479.643 511.6C478.738 511.065 477.658 510.797 476.402 510.797C475.147 510.797 474.057 511.065 473.134 511.6C472.229 512.117 471.482 512.837 470.891 513.761C470.3 514.684 469.866 515.745 469.589 516.946C469.312 518.127 469.174 519.383 469.174 520.712ZM513.985 528.938V506.034H520.687V536H514.373L513.985 528.938ZM514.927 522.706L517.17 522.651C517.17 524.663 516.948 526.519 516.505 528.218C516.062 529.898 515.379 531.366 514.456 532.621C513.533 533.858 512.351 534.828 510.911 535.529C509.471 536.212 507.744 536.554 505.732 536.554C504.273 536.554 502.934 536.342 501.716 535.917C500.497 535.492 499.445 534.837 498.559 533.951C497.691 533.064 497.017 531.91 496.537 530.489C496.057 529.067 495.817 527.368 495.817 525.393V506.034H502.491V525.448C502.491 526.537 502.621 527.451 502.879 528.19C503.138 528.91 503.488 529.492 503.931 529.935C504.375 530.378 504.892 530.692 505.482 530.876C506.073 531.061 506.701 531.153 507.366 531.153C509.267 531.153 510.763 530.784 511.852 530.045C512.96 529.288 513.745 528.273 514.206 526.999C514.687 525.725 514.927 524.294 514.927 522.706ZM534.147 512.431V536H527.473V506.034H533.759L534.147 512.431ZM532.956 519.909L530.796 519.881C530.815 517.758 531.11 515.81 531.682 514.038C532.273 512.265 533.086 510.742 534.119 509.468C535.172 508.194 536.427 507.215 537.886 506.532C539.345 505.83 540.97 505.48 542.76 505.48C544.201 505.48 545.502 505.683 546.666 506.089C547.847 506.477 548.853 507.114 549.684 508C550.534 508.886 551.18 510.04 551.623 511.462C552.066 512.865 552.288 514.591 552.288 516.641V536H545.585V516.613C545.585 515.173 545.373 514.038 544.948 513.207C544.542 512.357 543.942 511.757 543.148 511.406C542.373 511.037 541.403 510.853 540.24 510.853C539.095 510.853 538.071 511.093 537.166 511.573C536.261 512.053 535.495 512.708 534.867 513.539C534.258 514.37 533.787 515.33 533.455 516.419C533.122 517.509 532.956 518.672 532.956 519.909ZM577.38 529.796V493.46H584.082V536H578.017L577.38 529.796ZM557.882 521.349V520.768C557.882 518.496 558.15 516.429 558.685 514.564C559.221 512.68 559.996 511.065 561.012 509.717C562.027 508.351 563.264 507.308 564.723 506.587C566.182 505.849 567.825 505.48 569.653 505.48C571.462 505.48 573.05 505.83 574.416 506.532C575.783 507.234 576.946 508.24 577.906 509.551C578.866 510.843 579.632 512.394 580.205 514.204C580.777 515.995 581.183 517.989 581.423 520.186V522.041C581.183 524.183 580.777 526.14 580.205 527.913C579.632 529.685 578.866 531.218 577.906 532.51C576.946 533.803 575.773 534.8 574.389 535.501C573.022 536.203 571.425 536.554 569.597 536.554C567.788 536.554 566.154 536.175 564.695 535.418C563.255 534.661 562.027 533.6 561.012 532.233C559.996 530.867 559.221 529.261 558.685 527.414C558.15 525.55 557.882 523.528 557.882 521.349ZM564.557 520.768V521.349C564.557 522.715 564.677 523.989 564.917 525.171C565.175 526.353 565.572 527.396 566.108 528.301C566.643 529.187 567.336 529.889 568.185 530.406C569.053 530.904 570.087 531.153 571.287 531.153C572.801 531.153 574.047 530.821 575.026 530.156C576.004 529.492 576.77 528.596 577.324 527.47C577.897 526.325 578.284 525.051 578.488 523.648V518.635C578.377 517.546 578.146 516.53 577.795 515.588C577.463 514.647 577.01 513.825 576.438 513.124C575.866 512.403 575.155 511.85 574.306 511.462C573.475 511.056 572.487 510.853 571.342 510.853C570.124 510.853 569.09 511.111 568.24 511.628C567.391 512.145 566.689 512.856 566.135 513.761C565.6 514.665 565.203 515.718 564.944 516.918C564.686 518.118 564.557 519.401 564.557 520.768Z" fill="black"/>
<path d="M18.7473 603.529H8.88875V599.55H18.7473C20.6565 599.55 22.2024 599.246 23.3851 598.638C24.5678 598.03 25.4294 597.185 25.9701 596.103C26.5276 595.022 26.8064 593.789 26.8064 592.403C26.8064 591.136 26.5276 589.945 25.9701 588.83C25.4294 587.715 24.5678 586.819 23.3851 586.144C22.2024 585.451 20.6565 585.104 18.7473 585.104H10.0292V618H5.13795V581.1H18.7473C21.535 581.1 23.8919 581.582 25.818 582.545C27.7441 583.508 29.2056 584.843 30.2024 586.549C31.1992 588.239 31.6977 590.173 31.6977 592.353C31.6977 594.718 31.1992 596.737 30.2024 598.41C29.2056 600.082 27.7441 601.358 25.818 602.237C23.8919 603.098 21.535 603.529 18.7473 603.529ZM42.2658 579.073V618H37.5519V579.073H42.2658ZM61.1718 618.507C59.2626 618.507 57.5308 618.186 55.9765 617.544C54.439 616.885 53.1127 615.964 51.9976 614.781C50.8994 613.599 50.0546 612.196 49.4633 610.574C48.8719 608.952 48.5762 607.178 48.5762 605.252V604.188C48.5762 601.958 48.9057 599.973 49.5646 598.232C50.2235 596.475 51.119 594.988 52.251 593.772C53.383 592.555 54.6671 591.635 56.1032 591.009C57.5393 590.384 59.0261 590.072 60.5636 590.072C62.5235 590.072 64.213 590.41 65.6322 591.085C67.0683 591.761 68.2426 592.707 69.1549 593.924C70.0673 595.124 70.7431 596.543 71.1824 598.182C71.6217 599.804 71.8413 601.578 71.8413 603.504V605.607H51.364V601.78H67.1528V601.426C67.0852 600.209 66.8318 599.026 66.3925 597.877C65.9701 596.729 65.2943 595.782 64.3651 595.039C63.4358 594.296 62.1687 593.924 60.5636 593.924C59.4992 593.924 58.5192 594.152 57.6238 594.608C56.7283 595.047 55.9596 595.706 55.3175 596.585C54.6755 597.464 54.1771 598.536 53.8223 599.804C53.4675 601.071 53.2901 602.532 53.2901 604.188V605.252C53.2901 606.553 53.4675 607.778 53.8223 608.927C54.194 610.059 54.7262 611.056 55.4189 611.918C56.1285 612.779 56.9817 613.455 57.9786 613.945C58.9923 614.435 60.1412 614.68 61.4253 614.68C63.081 614.68 64.4833 614.342 65.6322 613.666C66.7811 612.99 67.7864 612.087 68.6481 610.955L71.4865 613.21C70.8952 614.106 70.1433 614.959 69.231 615.77C68.3186 616.581 67.1951 617.24 65.8603 617.747C64.5425 618.253 62.9796 618.507 61.1718 618.507ZM93.4844 613.312V599.195C93.4844 598.114 93.2648 597.176 92.8255 596.382C92.4031 595.571 91.7611 594.946 90.8994 594.507C90.0377 594.068 88.9733 593.848 87.7062 593.848C86.5235 593.848 85.4844 594.051 84.589 594.456C83.7104 594.862 83.0177 595.394 82.5108 596.053C82.0208 596.712 81.7759 597.421 81.7759 598.182H77.0874C77.0874 597.202 77.3408 596.23 77.8477 595.267C78.3545 594.304 79.081 593.434 80.0272 592.657C80.9902 591.863 82.1391 591.238 83.4739 590.781C84.8255 590.308 86.3292 590.072 87.9849 590.072C89.9786 590.072 91.7357 590.41 93.2563 591.085C94.7938 591.761 95.9934 592.783 96.8551 594.152C97.7336 595.504 98.1729 597.202 98.1729 599.246V612.019C98.1729 612.931 98.249 613.903 98.401 614.933C98.57 615.964 98.815 616.851 99.136 617.595V618H94.2447C94.0082 617.459 93.8223 616.741 93.6872 615.846C93.552 614.933 93.4844 614.089 93.4844 613.312ZM94.2954 601.375L94.3461 604.669H89.6069C88.2722 604.669 87.081 604.779 86.0335 604.999C84.986 605.202 84.1074 605.514 83.3978 605.937C82.6882 606.359 82.1476 606.891 81.7759 607.533C81.4042 608.158 81.2183 608.893 81.2183 609.738C81.2183 610.6 81.4126 611.385 81.8012 612.095C82.1898 612.805 82.7727 613.371 83.5499 613.793C84.344 614.199 85.3155 614.401 86.4644 614.401C87.9005 614.401 89.1676 614.097 90.2658 613.489C91.364 612.881 92.2342 612.137 92.8762 611.259C93.5351 610.38 93.8899 609.527 93.9406 608.699L95.9427 610.955C95.8245 611.664 95.5034 612.45 94.9797 613.312C94.4559 614.173 93.7548 615.001 92.8762 615.795C92.0145 616.572 90.9839 617.223 89.7843 617.747C88.6016 618.253 87.2669 618.507 85.7801 618.507C83.9216 618.507 82.2912 618.144 80.8888 617.417C79.5034 616.691 78.4221 615.719 77.6449 614.503C76.8846 613.269 76.5045 611.892 76.5045 610.372C76.5045 608.902 76.7917 607.609 77.3661 606.494C77.9406 605.362 78.7685 604.424 79.8498 603.681C80.9311 602.921 82.232 602.346 83.7526 601.958C85.2732 601.569 86.9712 601.375 88.8466 601.375H94.2954ZM121.514 610.726C121.514 610.051 121.362 609.426 121.058 608.851C120.771 608.26 120.171 607.728 119.258 607.254C118.363 606.765 117.011 606.342 115.204 605.987C113.683 605.666 112.306 605.286 111.073 604.847C109.856 604.408 108.817 603.875 107.955 603.25C107.111 602.625 106.46 601.89 106.004 601.045C105.548 600.201 105.32 599.212 105.32 598.08C105.32 596.999 105.556 595.977 106.029 595.014C106.519 594.051 107.204 593.197 108.082 592.454C108.978 591.711 110.05 591.128 111.301 590.705C112.551 590.283 113.945 590.072 115.482 590.072C117.679 590.072 119.554 590.46 121.109 591.238C122.663 592.015 123.854 593.054 124.682 594.355C125.51 595.639 125.924 597.066 125.924 598.638H121.235C121.235 597.877 121.007 597.143 120.551 596.433C120.112 595.706 119.461 595.107 118.6 594.634C117.755 594.16 116.716 593.924 115.482 593.924C114.181 593.924 113.125 594.127 112.314 594.532C111.52 594.921 110.937 595.419 110.566 596.027C110.211 596.636 110.034 597.278 110.034 597.954C110.034 598.46 110.118 598.917 110.287 599.322C110.473 599.711 110.794 600.074 111.25 600.412C111.706 600.733 112.348 601.037 113.176 601.324C114.004 601.611 115.06 601.899 116.344 602.186C118.591 602.693 120.441 603.301 121.894 604.011C123.347 604.72 124.428 605.59 125.138 606.621C125.848 607.652 126.203 608.902 126.203 610.372C126.203 611.571 125.949 612.669 125.442 613.666C124.952 614.663 124.234 615.525 123.288 616.251C122.359 616.961 121.244 617.518 119.943 617.924C118.659 618.313 117.214 618.507 115.609 618.507C113.193 618.507 111.149 618.076 109.476 617.214C107.803 616.353 106.536 615.238 105.675 613.869C104.813 612.501 104.382 611.056 104.382 609.535H109.096C109.163 610.819 109.535 611.842 110.211 612.602C110.887 613.345 111.715 613.878 112.695 614.199C113.675 614.503 114.646 614.655 115.609 614.655C116.893 614.655 117.966 614.486 118.828 614.148C119.706 613.81 120.374 613.345 120.83 612.754C121.286 612.163 121.514 611.487 121.514 610.726ZM143.74 618.507C141.831 618.507 140.099 618.186 138.545 617.544C137.007 616.885 135.681 615.964 134.566 614.781C133.468 613.599 132.623 612.196 132.031 610.574C131.44 608.952 131.144 607.178 131.144 605.252V604.188C131.144 601.958 131.474 599.973 132.133 598.232C132.792 596.475 133.687 594.988 134.819 593.772C135.951 592.555 137.235 591.635 138.671 591.009C140.108 590.384 141.594 590.072 143.132 590.072C145.092 590.072 146.781 590.41 148.2 591.085C149.637 591.761 150.811 592.707 151.723 593.924C152.636 595.124 153.311 596.543 153.751 598.182C154.19 599.804 154.41 601.578 154.41 603.504V605.607H133.932V601.78H149.721V601.426C149.653 600.209 149.4 599.026 148.961 597.877C148.538 596.729 147.863 595.782 146.933 595.039C146.004 594.296 144.737 593.924 143.132 593.924C142.067 593.924 141.087 594.152 140.192 594.608C139.297 595.047 138.528 595.706 137.886 596.585C137.244 597.464 136.745 598.536 136.391 599.804C136.036 601.071 135.858 602.532 135.858 604.188V605.252C135.858 606.553 136.036 607.778 136.391 608.927C136.762 610.059 137.294 611.056 137.987 611.918C138.697 612.779 139.55 613.455 140.547 613.945C141.561 614.435 142.709 614.68 143.993 614.68C145.649 614.68 147.052 614.342 148.2 613.666C149.349 612.99 150.355 612.087 151.216 610.955L154.055 613.21C153.463 614.106 152.712 614.959 151.799 615.77C150.887 616.581 149.763 617.24 148.429 617.747C147.111 618.253 145.548 618.507 143.74 618.507ZM184.239 590.579V594.177H169.413V590.579H184.239ZM174.431 583.913H179.119V611.208C179.119 612.137 179.263 612.838 179.55 613.312C179.837 613.785 180.209 614.097 180.665 614.249C181.121 614.401 181.611 614.477 182.135 614.477C182.524 614.477 182.929 614.444 183.351 614.376C183.791 614.291 184.12 614.224 184.34 614.173L184.365 618C183.994 618.118 183.504 618.228 182.895 618.329C182.304 618.448 181.586 618.507 180.741 618.507C179.592 618.507 178.536 618.279 177.573 617.823C176.61 617.366 175.841 616.606 175.267 615.542C174.709 614.46 174.431 613.007 174.431 611.183V583.913ZM194.426 594.887V618H189.738V590.579H194.3L194.426 594.887ZM202.992 590.427L202.967 594.786C202.579 594.701 202.207 594.65 201.852 594.634C201.514 594.6 201.126 594.583 200.686 594.583C199.605 594.583 198.65 594.752 197.822 595.09C196.995 595.428 196.293 595.901 195.719 596.509C195.145 597.117 194.688 597.844 194.35 598.688C194.029 599.516 193.818 600.429 193.717 601.426L192.399 602.186C192.399 600.53 192.56 598.976 192.881 597.523C193.218 596.07 193.734 594.786 194.426 593.671C195.119 592.539 195.998 591.66 197.062 591.035C198.143 590.393 199.428 590.072 200.914 590.072C201.252 590.072 201.641 590.114 202.08 590.198C202.519 590.266 202.824 590.342 202.992 590.427ZM215.487 615.162L223.115 590.579H228.133L217.134 622.232C216.881 622.908 216.543 623.635 216.12 624.412C215.715 625.206 215.191 625.958 214.549 626.667C213.907 627.377 213.13 627.951 212.217 628.391C211.322 628.847 210.249 629.075 208.999 629.075C208.627 629.075 208.154 629.024 207.58 628.923C207.005 628.822 206.6 628.737 206.363 628.669L206.338 624.868C206.473 624.885 206.684 624.902 206.971 624.919C207.275 624.952 207.487 624.969 207.605 624.969C208.669 624.969 209.573 624.826 210.317 624.539C211.06 624.268 211.685 623.804 212.192 623.145C212.716 622.503 213.164 621.616 213.535 620.484L215.487 615.162ZM209.886 590.579L217.007 611.867L218.224 616.809L214.853 618.532L204.767 590.579H209.886ZM261.409 613.312V599.195C261.409 598.114 261.189 597.176 260.75 596.382C260.327 595.571 259.685 594.946 258.824 594.507C257.962 594.068 256.898 593.848 255.63 593.848C254.448 593.848 253.409 594.051 252.513 594.456C251.635 594.862 250.942 595.394 250.435 596.053C249.945 596.712 249.7 597.421 249.7 598.182H245.012C245.012 597.202 245.265 596.23 245.772 595.267C246.279 594.304 247.005 593.434 247.951 592.657C248.914 591.863 250.063 591.238 251.398 590.781C252.75 590.308 254.253 590.072 255.909 590.072C257.903 590.072 259.66 590.41 261.181 591.085C262.718 591.761 263.918 592.783 264.779 594.152C265.658 595.504 266.097 597.202 266.097 599.246V612.019C266.097 612.931 266.173 613.903 266.325 614.933C266.494 615.964 266.739 616.851 267.06 617.595V618H262.169C261.932 617.459 261.747 616.741 261.611 615.846C261.476 614.933 261.409 614.089 261.409 613.312ZM262.22 601.375L262.27 604.669H257.531C256.196 604.669 255.005 604.779 253.958 604.999C252.91 605.202 252.032 605.514 251.322 605.937C250.612 606.359 250.072 606.891 249.7 607.533C249.328 608.158 249.142 608.893 249.142 609.738C249.142 610.6 249.337 611.385 249.725 612.095C250.114 612.805 250.697 613.371 251.474 613.793C252.268 614.199 253.24 614.401 254.389 614.401C255.825 614.401 257.092 614.097 258.19 613.489C259.288 612.881 260.158 612.137 260.8 611.259C261.459 610.38 261.814 609.527 261.865 608.699L263.867 610.955C263.749 611.664 263.428 612.45 262.904 613.312C262.38 614.173 261.679 615.001 260.8 615.795C259.939 616.572 258.908 617.223 257.709 617.747C256.526 618.253 255.191 618.507 253.704 618.507C251.846 618.507 250.215 618.144 248.813 617.417C247.428 616.691 246.346 615.719 245.569 614.503C244.809 613.269 244.429 611.892 244.429 610.372C244.429 608.902 244.716 607.609 245.29 606.494C245.865 605.362 246.693 604.424 247.774 603.681C248.855 602.921 250.156 602.346 251.677 601.958C253.197 601.569 254.895 601.375 256.771 601.375H262.22ZM278.16 596.433V618H273.472V590.579H277.907L278.16 596.433ZM277.045 603.25L275.094 603.174C275.111 601.299 275.39 599.567 275.93 597.979C276.471 596.374 277.231 594.98 278.211 593.797C279.191 592.615 280.357 591.702 281.709 591.06C283.077 590.401 284.589 590.072 286.245 590.072C287.597 590.072 288.813 590.258 289.894 590.629C290.976 590.984 291.897 591.559 292.657 592.353C293.434 593.147 294.025 594.177 294.431 595.445C294.836 596.695 295.039 598.224 295.039 600.032V618H290.325V599.981C290.325 598.545 290.114 597.396 289.692 596.534C289.269 595.656 288.653 595.022 287.842 594.634C287.031 594.228 286.034 594.025 284.851 594.025C283.685 594.025 282.621 594.27 281.658 594.76C280.712 595.25 279.892 595.926 279.2 596.788C278.524 597.649 277.992 598.638 277.603 599.753C277.231 600.851 277.045 602.017 277.045 603.25ZM300.919 604.593V604.011C300.919 602.034 301.206 600.201 301.78 598.511C302.355 596.805 303.183 595.326 304.264 594.076C305.345 592.809 306.655 591.829 308.192 591.136C309.73 590.427 311.453 590.072 313.362 590.072C315.288 590.072 317.02 590.427 318.558 591.136C320.112 591.829 321.43 592.809 322.511 594.076C323.609 595.326 324.446 596.805 325.02 598.511C325.595 600.201 325.882 602.034 325.882 604.011V604.593C325.882 606.57 325.595 608.403 325.02 610.093C324.446 611.782 323.609 613.261 322.511 614.528C321.43 615.778 320.12 616.758 318.583 617.468C317.062 618.161 315.339 618.507 313.413 618.507C311.487 618.507 309.755 618.161 308.218 617.468C306.68 616.758 305.362 615.778 304.264 614.528C303.183 613.261 302.355 611.782 301.78 610.093C301.206 608.403 300.919 606.57 300.919 604.593ZM305.607 604.011V604.593C305.607 605.962 305.768 607.254 306.089 608.471C306.41 609.671 306.891 610.735 307.533 611.664C308.192 612.593 309.012 613.328 309.992 613.869C310.972 614.393 312.112 614.655 313.413 614.655C314.697 614.655 315.821 614.393 316.784 613.869C317.763 613.328 318.574 612.593 319.217 611.664C319.859 610.735 320.34 609.671 320.661 608.471C320.999 607.254 321.168 605.962 321.168 604.593V604.011C321.168 602.659 320.999 601.383 320.661 600.184C320.34 598.967 319.85 597.894 319.191 596.965C318.549 596.019 317.738 595.276 316.758 594.735C315.795 594.194 314.663 593.924 313.362 593.924C312.078 593.924 310.946 594.194 309.966 594.735C309.003 595.276 308.192 596.019 307.533 596.965C306.891 597.894 306.41 598.967 306.089 600.184C305.768 601.383 305.607 602.659 305.607 604.011ZM343.242 590.579V594.177H328.416V590.579H343.242ZM333.434 583.913H338.123V611.208C338.123 612.137 338.266 612.838 338.553 613.312C338.841 613.785 339.212 614.097 339.668 614.249C340.125 614.401 340.615 614.477 341.138 614.477C341.527 614.477 341.932 614.444 342.355 614.376C342.794 614.291 343.124 614.224 343.343 614.173L343.369 618C342.997 618.118 342.507 618.228 341.899 618.329C341.307 618.448 340.589 618.507 339.745 618.507C338.596 618.507 337.54 618.279 336.577 617.823C335.614 617.366 334.845 616.606 334.27 615.542C333.713 614.46 333.434 613.007 333.434 611.183V583.913ZM353.43 579.073V618H348.741V579.073H353.43ZM352.315 603.25L350.363 603.174C350.38 601.299 350.659 599.567 351.2 597.979C351.74 596.374 352.501 594.98 353.481 593.797C354.46 592.615 355.626 591.702 356.978 591.06C358.346 590.401 359.859 590.072 361.514 590.072C362.866 590.072 364.082 590.258 365.164 590.629C366.245 590.984 367.166 591.559 367.926 592.353C368.703 593.147 369.295 594.177 369.7 595.445C370.106 596.695 370.308 598.224 370.308 600.032V618H365.595V599.981C365.595 598.545 365.383 597.396 364.961 596.534C364.539 595.656 363.922 595.022 363.111 594.634C362.3 594.228 361.303 594.025 360.12 594.025C358.955 594.025 357.89 594.27 356.927 594.76C355.981 595.25 355.162 595.926 354.469 596.788C353.793 597.649 353.261 598.638 352.872 599.753C352.501 600.851 352.315 602.017 352.315 603.25ZM388.708 618.507C386.798 618.507 385.067 618.186 383.512 617.544C381.975 616.885 380.648 615.964 379.533 614.781C378.435 613.599 377.59 612.196 376.999 610.574C376.408 608.952 376.112 607.178 376.112 605.252V604.188C376.112 601.958 376.442 599.973 377.1 598.232C377.759 596.475 378.655 594.988 379.787 593.772C380.919 592.555 382.203 591.635 383.639 591.009C385.075 590.384 386.562 590.072 388.099 590.072C390.059 590.072 391.749 590.41 393.168 591.085C394.604 591.761 395.778 592.707 396.691 593.924C397.603 595.124 398.279 596.543 398.718 598.182C399.157 599.804 399.377 601.578 399.377 603.504V605.607H378.9V601.78H394.689V601.426C394.621 600.209 394.368 599.026 393.928 597.877C393.506 596.729 392.83 595.782 391.901 595.039C390.972 594.296 389.704 593.924 388.099 593.924C387.035 593.924 386.055 594.152 385.16 594.608C384.264 595.047 383.495 595.706 382.853 596.585C382.211 597.464 381.713 598.536 381.358 599.804C381.003 601.071 380.826 602.532 380.826 604.188V605.252C380.826 606.553 381.003 607.778 381.358 608.927C381.73 610.059 382.262 611.056 382.955 611.918C383.664 612.779 384.518 613.455 385.514 613.945C386.528 614.435 387.677 614.68 388.961 614.68C390.617 614.68 392.019 614.342 393.168 613.666C394.317 612.99 395.322 612.087 396.184 610.955L399.022 613.21C398.431 614.106 397.679 614.959 396.767 615.77C395.854 616.581 394.731 617.24 393.396 617.747C392.078 618.253 390.515 618.507 388.708 618.507ZM409.54 594.887V618H404.851V590.579H409.413L409.54 594.887ZM418.106 590.427L418.08 594.786C417.692 594.701 417.32 594.65 416.965 594.634C416.627 594.6 416.239 594.583 415.8 594.583C414.718 594.583 413.764 594.752 412.936 595.09C412.108 595.428 411.407 595.901 410.832 596.509C410.258 597.117 409.802 597.844 409.464 598.688C409.143 599.516 408.932 600.429 408.83 601.426L407.512 602.186C407.512 600.53 407.673 598.976 407.994 597.523C408.332 596.07 408.847 594.786 409.54 593.671C410.232 592.539 411.111 591.66 412.175 591.035C413.257 590.393 414.541 590.072 416.028 590.072C416.366 590.072 416.754 590.114 417.193 590.198C417.633 590.266 417.937 590.342 418.106 590.427ZM451.28 610.726C451.28 610.051 451.128 609.426 450.824 608.851C450.537 608.26 449.937 607.728 449.024 607.254C448.129 606.765 446.777 606.342 444.97 605.987C443.449 605.666 442.072 605.286 440.839 604.847C439.622 604.408 438.583 603.875 437.721 603.25C436.877 602.625 436.226 601.89 435.77 601.045C435.314 600.201 435.086 599.212 435.086 598.08C435.086 596.999 435.322 595.977 435.795 595.014C436.285 594.051 436.97 593.197 437.848 592.454C438.744 591.711 439.816 591.128 441.067 590.705C442.317 590.283 443.711 590.072 445.248 590.072C447.445 590.072 449.32 590.46 450.875 591.238C452.429 592.015 453.62 593.054 454.448 594.355C455.276 595.639 455.69 597.066 455.69 598.638H451.001C451.001 597.877 450.773 597.143 450.317 596.433C449.878 595.706 449.227 595.107 448.366 594.634C447.521 594.16 446.482 593.924 445.248 593.924C443.947 593.924 442.891 594.127 442.08 594.532C441.286 594.921 440.703 595.419 440.332 596.027C439.977 596.636 439.8 597.278 439.8 597.954C439.8 598.46 439.884 598.917 440.053 599.322C440.239 599.711 440.56 600.074 441.016 600.412C441.472 600.733 442.114 601.037 442.942 601.324C443.77 601.611 444.826 601.899 446.11 602.186C448.357 602.693 450.207 603.301 451.66 604.011C453.113 604.72 454.195 605.59 454.904 606.621C455.614 607.652 455.969 608.902 455.969 610.372C455.969 611.571 455.715 612.669 455.208 613.666C454.718 614.663 454 615.525 453.054 616.251C452.125 616.961 451.01 617.518 449.709 617.924C448.425 618.313 446.98 618.507 445.375 618.507C442.959 618.507 440.915 618.076 439.242 617.214C437.569 616.353 436.302 615.238 435.441 613.869C434.579 612.501 434.148 611.056 434.148 609.535H438.862C438.929 610.819 439.301 611.842 439.977 612.602C440.653 613.345 441.481 613.878 442.461 614.199C443.441 614.503 444.412 614.655 445.375 614.655C446.659 614.655 447.732 614.486 448.594 614.148C449.472 613.81 450.14 613.345 450.596 612.754C451.052 612.163 451.28 611.487 451.28 610.726ZM473.506 618.507C471.597 618.507 469.865 618.186 468.311 617.544C466.773 616.885 465.447 615.964 464.332 614.781C463.234 613.599 462.389 612.196 461.797 610.574C461.206 608.952 460.91 607.178 460.91 605.252V604.188C460.91 601.958 461.24 599.973 461.899 598.232C462.558 596.475 463.453 594.988 464.585 593.772C465.717 592.555 467.001 591.635 468.437 591.009C469.874 590.384 471.36 590.072 472.898 590.072C474.858 590.072 476.547 590.41 477.966 591.085C479.403 591.761 480.577 592.707 481.489 593.924C482.402 595.124 483.077 596.543 483.517 598.182C483.956 599.804 484.176 601.578 484.176 603.504V605.607H463.698V601.78H479.487V601.426C479.419 600.209 479.166 599.026 478.727 597.877C478.304 596.729 477.629 595.782 476.699 595.039C475.77 594.296 474.503 593.924 472.898 593.924C471.833 593.924 470.853 594.152 469.958 594.608C469.063 595.047 468.294 595.706 467.652 596.585C467.01 597.464 466.511 598.536 466.157 599.804C465.802 601.071 465.624 602.532 465.624 604.188V605.252C465.624 606.553 465.802 607.778 466.157 608.927C466.528 610.059 467.06 611.056 467.753 611.918C468.463 612.779 469.316 613.455 470.313 613.945C471.327 614.435 472.475 614.68 473.759 614.68C475.415 614.68 476.818 614.342 477.966 613.666C479.115 612.99 480.121 612.087 480.982 610.955L483.821 613.21C483.229 614.106 482.478 614.959 481.565 615.77C480.653 616.581 479.529 617.24 478.195 617.747C476.877 618.253 475.314 618.507 473.506 618.507ZM505.819 613.312V599.195C505.819 598.114 505.599 597.176 505.16 596.382C504.737 595.571 504.095 594.946 503.234 594.507C502.372 594.068 501.308 593.848 500.04 593.848C498.858 593.848 497.819 594.051 496.923 594.456C496.045 594.862 495.352 595.394 494.845 596.053C494.355 596.712 494.11 597.421 494.11 598.182H489.422C489.422 597.202 489.675 596.23 490.182 595.267C490.689 594.304 491.415 593.434 492.361 592.657C493.324 591.863 494.473 591.238 495.808 590.781C497.16 590.308 498.663 590.072 500.319 590.072C502.313 590.072 504.07 590.41 505.591 591.085C507.128 591.761 508.328 592.783 509.189 594.152C510.068 595.504 510.507 597.202 510.507 599.246V612.019C510.507 612.931 510.583 613.903 510.735 614.933C510.904 615.964 511.149 616.851 511.47 617.595V618H506.579C506.342 617.459 506.157 616.741 506.021 615.846C505.886 614.933 505.819 614.089 505.819 613.312ZM506.63 601.375L506.68 604.669H501.941C500.606 604.669 499.415 604.779 498.368 604.999C497.32 605.202 496.442 605.514 495.732 605.937C495.022 606.359 494.482 606.891 494.11 607.533C493.738 608.158 493.553 608.893 493.553 609.738C493.553 610.6 493.747 611.385 494.135 612.095C494.524 612.805 495.107 613.371 495.884 613.793C496.678 614.199 497.65 614.401 498.799 614.401C500.235 614.401 501.502 614.097 502.6 613.489C503.698 612.881 504.568 612.137 505.21 611.259C505.869 610.38 506.224 609.527 506.275 608.699L508.277 610.955C508.159 611.664 507.838 612.45 507.314 613.312C506.79 614.173 506.089 615.001 505.21 615.795C504.349 616.572 503.318 617.223 502.119 617.747C500.936 618.253 499.601 618.507 498.114 618.507C496.256 618.507 494.625 618.144 493.223 617.417C491.838 616.691 490.756 615.719 489.979 614.503C489.219 613.269 488.839 611.892 488.839 610.372C488.839 608.902 489.126 607.609 489.7 606.494C490.275 605.362 491.103 604.424 492.184 603.681C493.265 602.921 494.566 602.346 496.087 601.958C497.607 601.569 499.305 601.375 501.181 601.375H506.63ZM522.57 594.887V618H517.882V590.579H522.444L522.57 594.887ZM531.136 590.427L531.111 594.786C530.723 594.701 530.351 594.65 529.996 594.634C529.658 594.6 529.27 594.583 528.83 594.583C527.749 594.583 526.794 594.752 525.966 595.09C525.139 595.428 524.437 595.901 523.863 596.509C523.289 597.117 522.832 597.844 522.494 598.688C522.173 599.516 521.962 600.429 521.861 601.426L520.543 602.186C520.543 600.53 520.704 598.976 521.025 597.523C521.362 596.07 521.878 594.786 522.57 593.671C523.263 592.539 524.142 591.66 525.206 591.035C526.287 590.393 527.572 590.072 529.058 590.072C529.396 590.072 529.785 590.114 530.224 590.198C530.663 590.266 530.968 590.342 531.136 590.427ZM545.937 614.655C547.052 614.655 548.083 614.427 549.029 613.97C549.975 613.514 550.752 612.889 551.36 612.095C551.969 611.284 552.315 610.363 552.4 609.333H556.86C556.775 610.955 556.226 612.467 555.213 613.869C554.216 615.254 552.906 616.378 551.284 617.24C549.662 618.084 547.88 618.507 545.937 618.507C543.876 618.507 542.076 618.144 540.539 617.417C539.018 616.691 537.751 615.694 536.737 614.427C535.741 613.159 534.989 611.706 534.482 610.068C533.992 608.412 533.747 606.663 533.747 604.822V603.757C533.747 601.916 533.992 600.175 534.482 598.536C534.989 596.881 535.741 595.419 536.737 594.152C537.751 592.885 539.018 591.888 540.539 591.162C542.076 590.435 543.876 590.072 545.937 590.072C548.083 590.072 549.958 590.511 551.563 591.39C553.168 592.251 554.427 593.434 555.339 594.938C556.269 596.424 556.775 598.114 556.86 600.006H552.4C552.315 598.874 551.994 597.852 551.437 596.94C550.896 596.027 550.152 595.301 549.206 594.76C548.277 594.203 547.187 593.924 545.937 593.924C544.501 593.924 543.293 594.211 542.313 594.786C541.35 595.343 540.581 596.103 540.007 597.066C539.449 598.013 539.044 599.069 538.79 600.234C538.554 601.383 538.435 602.558 538.435 603.757V604.822C538.435 606.021 538.554 607.204 538.79 608.37C539.027 609.535 539.424 610.591 539.981 611.537C540.556 612.484 541.325 613.244 542.288 613.818C543.268 614.376 544.484 614.655 545.937 614.655ZM566.82 579.073V618H562.131V579.073H566.82ZM565.705 603.25L563.753 603.174C563.77 601.299 564.049 599.567 564.59 597.979C565.13 596.374 565.891 594.98 566.87 593.797C567.85 592.615 569.016 591.702 570.368 591.06C571.736 590.401 573.248 590.072 574.904 590.072C576.256 590.072 577.472 590.258 578.554 590.629C579.635 590.984 580.556 591.559 581.316 592.353C582.093 593.147 582.685 594.177 583.09 595.445C583.496 596.695 583.698 598.224 583.698 600.032V618H578.984V599.981C578.984 598.545 578.773 597.396 578.351 596.534C577.929 595.656 577.312 595.022 576.501 594.634C575.69 594.228 574.693 594.025 573.51 594.025C572.345 594.025 571.28 594.27 570.317 594.76C569.371 595.25 568.552 595.926 567.859 596.788C567.183 597.649 566.651 598.638 566.262 599.753C565.891 600.851 565.705 602.017 565.705 603.25Z" fill="#A3A3A3"/>
</svg>
