<svg width="35" height="34" viewBox="0 0 35 34" fill="none" xmlns="http://www.w3.org/2000/svg">
<path d="M23.1667 24.3804C22.3282 24.3804 21.6222 23.6964 21.6222 22.836V17.8717L16.9889 13.15L12.3555 17.8717V22.836C12.3555 23.6744 11.6715 24.3804 10.8111 24.3804C9.97264 24.3804 9.2666 23.6964 9.2666 22.836V17.4745C9.2666 16.9229 9.48724 16.4155 9.86232 16.0183L15.5327 10.2377C15.9298 9.84051 16.4593 9.61987 16.9889 9.61987C17.5404 9.61987 18.0479 9.84051 18.4451 10.2377L24.1154 16.0183C24.4905 16.4155 24.7111 16.9229 24.7111 17.4745V22.836C24.7111 23.6744 24.0271 24.3804 23.1667 24.3804Z" fill="#B10744"/>
<path d="M25.9468 34H8.05321C3.61843 34 0 30.3816 0 25.9468V8.05321C0 3.61843 3.61843 0 8.05321 0H25.9689C30.4036 0 34.0221 3.61843 34.0221 8.05321V25.9689C34 30.3816 30.3816 34 25.9468 34ZM8.05321 3.06684C5.31733 3.06684 3.0889 5.29526 3.0889 8.03115V25.9468C3.0889 28.6827 5.31733 30.9111 8.05321 30.9111H25.9689C28.7047 30.9111 30.9332 28.6827 30.9332 25.9468V8.05321C30.9332 5.31733 28.7047 3.0889 25.9689 3.0889H8.05321V3.06684Z" fill="#B10744"/>
</svg>
