<svg width="24" height="20" viewBox="0 0 24 20" fill="none" xmlns="http://www.w3.org/2000/svg">
<path d="M11.75 0C15.7999 0 19.1067 3.19475 19.2458 7.24906L19.25 7.5V11.597L20.63 14.753C20.6991 14.9109 20.7347 15.0814 20.7347 15.2538C20.7347 15.9441 20.1751 16.5038 19.4847 16.5038L14.75 16.5053C14.75 18.1621 13.4069 19.5053 11.75 19.5053C10.1523 19.5053 8.84634 18.2563 8.75509 16.6815L8.74955 16.503L4.02486 16.5038C3.85353 16.5038 3.68402 16.4685 3.52686 16.4003C2.89366 16.1252 2.60331 15.389 2.87835 14.7558L4.25 11.5979V7.4999C4.2506 3.34511 7.60209 0 11.75 0ZM13.2495 16.503L10.25 16.5053C10.25 17.3337 10.9216 18.0053 11.75 18.0053C12.5297 18.0053 13.1704 17.4104 13.2431 16.6497L13.2495 16.503ZM11.75 1.5C8.42984 1.5 5.75048 4.17426 5.75 7.5V11.9096L4.40602 15.0038H19.1025L17.75 11.9106L17.7501 7.51286L17.7464 7.28766C17.6353 4.05418 14.9916 1.5 11.75 1.5ZM20.75 6.25378H22.75C23.1642 6.25378 23.5 6.58957 23.5 7.00378C23.5 7.38348 23.2178 7.69727 22.8518 7.74693L22.75 7.75378H20.75C20.3358 7.75378 20 7.41799 20 7.00378C20 6.62408 20.2822 6.31029 20.6482 6.26063L20.75 6.25378ZM0.75 6.25378H2.75C3.16421 6.25378 3.5 6.58957 3.5 7.00378C3.5 7.38348 3.21785 7.69727 2.85177 7.74693L2.75 7.75378H0.75C0.335786 7.75378 0 7.41799 0 7.00378C0 6.62408 0.282154 6.31029 0.648229 6.26063L0.75 6.25378ZM22.35 0.55378C22.5759 0.85503 22.541 1.27093 22.2838 1.53078L22.2 1.60378L20.2 3.10378C19.8686 3.35231 19.3985 3.28515 19.15 2.95378C18.9241 2.65253 18.959 2.23663 19.2162 1.97678L19.3 1.90378L21.3 0.40378C21.6314 0.15525 22.1015 0.22241 22.35 0.55378ZM2.2 0.40378L4.2 1.90378C4.53137 2.15231 4.59853 2.62241 4.35 2.95378C4.10147 3.28515 3.63137 3.35231 3.3 3.10378L1.3 1.60378C0.96863 1.35525 0.90147 0.88515 1.15 0.55378C1.39853 0.22241 1.86863 0.15525 2.2 0.40378Z" fill="#B10744"/>
</svg>
