<svg width="17" height="15" viewBox="0 0 17 15" fill="none" xmlns="http://www.w3.org/2000/svg">
<path d="M14.4497 2.54997H13.3617L13.0897 1.69998C12.9134 1.20124 12.5863 0.769681 12.1538 0.465096C11.7213 0.160511 11.2048 -0.00202032 10.6758 1.89577e-05H6.32387C5.7897 0.00101829 5.26932 0.169746 4.8362 0.482388C4.40308 0.795031 4.07907 1.2358 3.90992 1.74248L3.63792 2.59247H2.54995C1.87366 2.59247 1.22507 2.86112 0.746862 3.33933C0.268654 3.81753 0 4.46612 0 5.14241V11.9423C0 12.6186 0.268654 13.2671 0.746862 13.7454C1.22507 14.2236 1.87366 14.4922 2.54995 14.4922H14.4497C15.126 14.4922 15.7746 14.2236 16.2528 13.7454C16.731 13.2671 16.9996 12.6186 16.9996 11.9423V5.14241C17.0053 4.80399 16.9435 4.46783 16.8179 4.15353C16.6923 3.83924 16.5053 3.5531 16.268 3.31179C16.0306 3.07049 15.7476 2.87885 15.4354 2.74805C15.1233 2.61726 14.7882 2.54992 14.4497 2.54997ZM15.2997 11.8998C15.2997 12.1252 15.2101 12.3414 15.0507 12.5008C14.8913 12.6602 14.6751 12.7498 14.4497 12.7498H2.54995C2.32452 12.7498 2.10832 12.6602 1.94892 12.5008C1.78952 12.3414 1.69996 12.1252 1.69996 11.8998V5.09991C1.69996 4.87448 1.78952 4.65829 1.94892 4.49888C2.10832 4.33948 2.32452 4.24993 2.54995 4.24993H4.24991C4.43526 4.25961 4.61869 4.20834 4.77217 4.10398C4.92565 3.99961 5.04075 3.84787 5.09989 3.67194L5.55888 2.27797C5.61591 2.10915 5.72454 1.96251 5.86944 1.8588C6.01434 1.75508 6.18817 1.69952 6.36637 1.69998H10.7183C10.8965 1.69952 11.0703 1.75508 11.2152 1.8588C11.3601 1.96251 11.4687 2.10915 11.5258 2.27797L11.9848 3.67194C12.0393 3.83407 12.1415 3.97597 12.278 4.07909C12.4145 4.18221 12.5789 4.24175 12.7497 4.24993H14.4497C14.6751 4.24993 14.8913 4.33948 15.0507 4.49888C15.2101 4.65829 15.2997 4.87448 15.2997 5.09991V11.8998ZM8.49982 4.24993C7.82738 4.24993 7.17004 4.44933 6.61092 4.82292C6.05181 5.19651 5.61603 5.72751 5.3587 6.34876C5.10137 6.97002 5.03404 7.65363 5.16522 8.31315C5.29641 8.97267 5.62022 9.57848 6.09571 10.054C6.5712 10.5295 7.17701 10.8533 7.83653 10.9845C8.49605 11.1156 9.17966 11.0483 9.80092 10.791C10.4222 10.5337 10.9532 10.0979 11.3268 9.53876C11.7003 8.97964 11.8998 8.3223 11.8998 7.64986C11.8998 6.74814 11.5415 5.88336 10.9039 5.24575C10.2663 4.60814 9.40154 4.24993 8.49982 4.24993ZM8.49982 9.34982C8.1636 9.34982 7.83493 9.25012 7.55537 9.06333C7.27582 8.87653 7.05793 8.61104 6.92926 8.30041C6.80059 7.98978 6.76693 7.64797 6.83252 7.31821C6.89812 6.98845 7.06002 6.68555 7.29777 6.4478C7.53551 6.21006 7.83842 6.04815 8.16818 5.98256C8.49794 5.91697 8.83974 5.95063 9.15037 6.0793C9.461 6.20796 9.7265 6.42585 9.91329 6.70541C10.1001 6.98497 10.1998 7.31364 10.1998 7.64986C10.1998 8.10072 10.0207 8.53311 9.70188 8.85192C9.38307 9.17072 8.95068 9.34982 8.49982 9.34982Z" fill="white"/>
</svg>
