<svg width="16" height="16" viewBox="0 0 16 16" fill="none" xmlns="http://www.w3.org/2000/svg">
<path d="M0.14705 0.303791L0.21967 0.21967C0.48594 -0.0465998 0.9026 -0.0707997 1.19621 0.14705L1.28033 0.21967L7.75 6.689L14.2197 0.21967C14.5126 -0.0732198 14.9874 -0.0732198 15.2803 0.21967C15.5732 0.51256 15.5732 0.987441 15.2803 1.28033L8.811 7.75L15.2803 14.2197C15.5466 14.4859 15.5708 14.9026 15.3529 15.1962L15.2803 15.2803C15.0141 15.5466 14.5974 15.5708 14.3038 15.3529L14.2197 15.2803L7.75 8.811L1.28033 15.2803C0.987441 15.5732 0.51256 15.5732 0.21967 15.2803C-0.0732198 14.9874 -0.0732198 14.5126 0.21967 14.2197L6.689 7.75L0.21967 1.28033C-0.0465998 1.01406 -0.0707997 0.597401 0.14705 0.303791Z" fill="#212121"/>
</svg>
