<svg width="20" height="20" viewBox="0 0 20 20" fill="none" xmlns="http://www.w3.org/2000/svg">
<path d="M3.57426 4.65134C3.40191 4.65134 3.22048 4.57877 3.09348 4.45177C2.96695 4.32374 2.896 4.15099 2.896 3.97099C2.896 3.79099 2.96695 3.61824 3.09348 3.49021L6.38639 0.197302C6.64946 -0.0657674 7.08488 -0.0657674 7.34795 0.197302C7.61102 0.460372 7.61102 0.895797 7.34795 1.15887L4.05505 4.45177C3.91897 4.57877 3.74662 4.65134 3.57426 4.65134ZM15.9295 4.65134C15.7571 4.65134 15.5847 4.58784 15.4487 4.45177L12.1558 1.15887C12.0292 1.03084 11.9583 0.858088 11.9583 0.678084C11.9583 0.498081 12.0292 0.325333 12.1558 0.197302C12.4188 -0.0657674 12.8543 -0.0657674 13.1173 0.197302L16.4102 3.49021C16.6733 3.75328 16.6733 4.1887 16.4102 4.45177C16.2832 4.57877 16.1018 4.65134 15.9295 4.65134Z" fill="#B10744"/>
<path d="M17.1993 8.48034H2.49462C1.85963 8.48941 1.13392 8.48941 0.607781 7.96327C0.190499 7.55506 0 6.92006 0 5.98571C0 3.49109 1.82334 3.49109 2.69419 3.49109H16.8092C17.6801 3.49109 19.5034 3.49109 19.5034 5.98571C19.5034 6.92914 19.3129 7.55506 18.8956 7.96327C18.4239 8.43498 17.7889 8.48034 17.1993 8.48034ZM2.69419 7.11963H17.0179C17.4261 7.12871 17.8071 7.12871 17.9341 7.00171C17.9976 6.93821 18.1337 6.72049 18.1337 5.98571C18.1337 4.96065 17.8797 4.85179 16.8002 4.85179H2.69419C1.6147 4.85179 1.3607 4.96065 1.3607 5.98571C1.3607 6.72049 1.50585 6.93821 1.56027 7.00171C1.68727 7.11963 2.07734 7.11963 2.47648 7.11963H2.69419ZM7.71973 15.4635C7.3478 15.4635 7.03938 15.155 7.03938 14.7831V11.5628C7.03938 11.1909 7.3478 10.8824 7.71973 10.8824C8.09166 10.8824 8.40008 11.1909 8.40008 11.5628V14.7831C8.40008 15.1641 8.09166 15.4635 7.71973 15.4635ZM11.8926 15.4635C11.5206 15.4635 11.2122 15.155 11.2122 14.7831V11.5628C11.2122 11.1909 11.5206 10.8824 11.8926 10.8824C12.2645 10.8824 12.5729 11.1909 12.5729 11.5628V14.7831C12.5729 15.1641 12.2645 15.4635 11.8926 15.4635Z" fill="#B10744"/>
<path d="M12.3732 19.5003H6.90313C3.65558 19.5003 2.92987 17.5681 2.64866 15.8899L1.3696 8.04317C1.3061 7.67124 1.5601 7.32653 1.93202 7.26303C2.30395 7.19953 2.64866 7.45353 2.71216 7.82545L3.99122 15.6631C4.25429 17.2687 4.79857 18.1396 6.90313 18.1396H12.3732C14.7045 18.1396 14.9676 17.3232 15.2669 15.7448L16.7909 7.80731C16.8635 7.43539 17.2173 7.19046 17.5892 7.2721C17.9611 7.34467 18.197 7.69846 18.1244 8.07038L16.6004 16.0078C16.2466 17.8493 15.657 19.5003 12.3732 19.5003Z" fill="#B10744"/>
</svg>
