<svg width="20" height="20" viewBox="0 0 20 20" fill="none" xmlns="http://www.w3.org/2000/svg">
<path d="M3.57414 4.65134C3.40179 4.65134 3.22036 4.57877 3.09336 4.45177C2.96683 4.32374 2.89587 4.15099 2.89587 3.97099C2.89587 3.79099 2.96683 3.61824 3.09336 3.49021L6.38626 0.197302C6.64933 -0.0657674 7.08476 -0.0657674 7.34783 0.197302C7.6109 0.460372 7.6109 0.895797 7.34783 1.15887L4.05492 4.45177C3.91885 4.57877 3.7465 4.65134 3.57414 4.65134ZM15.9293 4.65134C15.757 4.65134 15.5846 4.58784 15.4486 4.45177L12.1557 1.15887C12.0291 1.03084 11.9582 0.858088 11.9582 0.678084C11.9582 0.498081 12.0291 0.325333 12.1557 0.197302C12.4187 -0.0657674 12.8541 -0.0657674 13.1172 0.197302L16.4101 3.49021C16.6732 3.75328 16.6732 4.1887 16.4101 4.45177C16.2831 4.57877 16.1017 4.65134 15.9293 4.65134Z" fill="black"/>
<path d="M17.1993 8.48035H2.49462C1.85963 8.48943 1.13392 8.48942 0.607781 7.96329C0.190499 7.55507 0 6.92008 0 5.98573C0 3.4911 1.82334 3.4911 2.69419 3.4911H16.8092C17.6801 3.4911 19.5034 3.4911 19.5034 5.98573C19.5034 6.92915 19.3129 7.55507 18.8956 7.96329C18.4239 8.435 17.7889 8.48035 17.1993 8.48035ZM2.69419 7.11965H17.0179C17.4261 7.12872 17.8071 7.12872 17.9341 7.00172C17.9976 6.93822 18.1337 6.72051 18.1337 5.98573C18.1337 4.96066 17.8797 4.85181 16.8002 4.85181H2.69419C1.6147 4.85181 1.3607 4.96066 1.3607 5.98573C1.3607 6.72051 1.50585 6.93822 1.56027 7.00172C1.68727 7.11965 2.07734 7.11965 2.47648 7.11965H2.69419ZM7.71973 15.4635C7.3478 15.4635 7.03938 15.1551 7.03938 14.7831V11.5628C7.03938 11.1909 7.3478 10.8825 7.71973 10.8825C8.09166 10.8825 8.40008 11.1909 8.40008 11.5628V14.7831C8.40008 15.1641 8.09166 15.4635 7.71973 15.4635ZM11.8926 15.4635C11.5206 15.4635 11.2122 15.1551 11.2122 14.7831V11.5628C11.2122 11.1909 11.5206 10.8825 11.8926 10.8825C12.2645 10.8825 12.5729 11.1909 12.5729 11.5628V14.7831C12.5729 15.1641 12.2645 15.4635 11.8926 15.4635Z" fill="black"/>
<path d="M12.3734 19.5003H6.90337C3.65583 19.5003 2.93012 17.5681 2.6489 15.8899L1.36984 8.04312C1.30634 7.6712 1.56034 7.32648 1.93227 7.26298C2.30419 7.19949 2.6489 7.45348 2.7124 7.82541L3.99147 15.6631C4.25454 17.2687 4.79882 18.1395 6.90337 18.1395H12.3734C14.7047 18.1395 14.9678 17.3231 15.2672 15.7447L16.7912 7.80727C16.8637 7.43534 17.2175 7.19041 17.5894 7.27206C17.9614 7.34463 18.1972 7.69841 18.1246 8.07034L16.6007 16.0078C16.2469 17.8493 15.6572 19.5003 12.3734 19.5003Z" fill="black"/>
</svg>
