<svg width="19" height="14" viewBox="0 0 19 14" fill="none" xmlns="http://www.w3.org/2000/svg">
<path d="M12.6667 5.42857H18.0952V5.20765L15.5306 2.71429H12.6667V5.42857ZM12.6667 6.33333V9.49978C13.0793 8.95051 13.7363 8.59524 14.4762 8.59524C15.4037 8.59524 16.2008 9.15352 16.5499 9.95238H18.0952V6.33333H12.6667ZM11.7619 9.95238V1.80952V0.904762H0.904762V9.95238H1.54535C1.89439 9.15352 2.69152 8.59524 3.61905 8.59524C4.54657 8.59524 5.3437 9.15352 5.69274 9.95238H11.7619ZM12.6667 1.80952H15.898L19 4.8254V9.95238C19 10.4521 18.5949 10.8571 18.0952 10.8571H16.7381C16.7381 12.1064 15.7254 13.119 14.4762 13.119C13.227 13.119 12.2143 12.1064 12.2143 10.8571H5.88095C5.88095 12.1064 4.86826 13.119 3.61905 13.119C2.36983 13.119 1.35714 12.1064 1.35714 10.8571H0.904762C0.405076 10.8571 0 10.4521 0 9.95238V0.904762C0 0.405076 0.405076 0 0.904762 0H11.7619C12.2616 0 12.6667 0.405076 12.6667 0.904762V1.80952ZM3.61905 12.2143C4.36858 12.2143 4.97619 11.6067 4.97619 10.8571C4.97619 10.1076 4.36858 9.5 3.61905 9.5C2.86952 9.5 2.2619 10.1076 2.2619 10.8571C2.2619 11.6067 2.86952 12.2143 3.61905 12.2143ZM14.4762 12.2143C15.2257 12.2143 15.8333 11.6067 15.8333 10.8571C15.8333 10.1076 15.2257 9.5 14.4762 9.5C13.7267 9.5 13.119 10.1076 13.119 10.8571C13.119 11.6067 13.7267 12.2143 14.4762 12.2143Z" fill="#8B8B8B"/>
</svg>
