<svg width="21" height="18" viewBox="0 0 21 18" fill="none" xmlns="http://www.w3.org/2000/svg">
<path d="M10.0259 18C9.73676 18 9.45697 17.9627 9.22381 17.8788C5.66112 16.657 0 12.3202 0 5.91299C0 2.64875 2.63937 5.11754e-05 5.88496 5.11754e-05C7.46112 5.11754e-05 8.93469 0.615593 10.0259 1.71611C10.5676 1.16945 11.2128 0.736165 11.9237 0.441531C12.6347 0.146896 13.3972 -0.00318287 14.1668 5.11754e-05C17.4124 5.11754e-05 20.0518 2.65808 20.0518 5.91299C20.0518 12.3296 14.3906 16.657 10.8279 17.8788C10.5948 17.9627 10.315 18 10.0259 18ZM5.88496 1.39901C3.41346 1.39901 1.39896 3.42284 1.39896 5.91299C1.39896 12.2829 7.5264 15.8269 9.6808 16.5637C9.84868 16.6197 10.2124 16.6197 10.3803 16.5637C12.5254 15.8269 18.6621 12.2922 18.6621 5.91299C18.6621 3.42284 16.6476 1.39901 14.1761 1.39901C12.7585 1.39901 11.4435 2.06118 10.5948 3.20833C10.3336 3.56274 9.73676 3.56274 9.47562 3.20833C9.06119 2.64602 8.52017 2.18921 7.89636 1.87487C7.27255 1.56054 6.58349 1.39752 5.88496 1.39901Z" fill="#B10744"/>
</svg>
