<svg width="20" height="17" viewBox="0 0 20 17" fill="none" xmlns="http://www.w3.org/2000/svg">
<path d="M10 0.750183V6.89598L10.0005 7.40098L17.442 7.39998L15.7196 5.67625C15.4534 5.40994 15.4292 4.99327 15.6471 4.69969L15.7198 4.61559C15.9861 4.34937 16.4027 4.32523 16.6963 4.54314L16.7804 4.61577L19.777 7.61338C20.043 7.87948 20.0674 8.29568 19.85 8.58928L19.7775 8.67338L16.7809 11.6768C16.4884 11.9701 16.0135 11.9706 15.7203 11.6781C15.4537 11.4121 15.429 10.9955 15.6465 10.7016L15.7191 10.6174L17.432 8.89998L10.0005 8.90098L10 15.646C10 16.1124 9.5788 16.4657 9.1196 16.3846L0.61955 14.8833C0.26121 14.82 0 14.5086 0 14.1447V2.14601C0 1.7787 0.26601 1.46544 0.62847 1.40592L9.1285 0.0100925C9.5851 -0.0648875 10 0.287453 10 0.750183ZM6.50215 7.89598C5.94868 7.89598 5.5 8.34468 5.5 8.89818C5.5 9.45168 5.94868 9.90028 6.50215 9.90028C7.05562 9.90028 7.5043 9.45168 7.5043 8.89818C7.5043 8.34468 7.05562 7.89598 6.50215 7.89598ZM11 14.8973L11.7652 14.8975L11.867 14.8906C12.2335 14.8408 12.5158 14.5264 12.5152 14.1462L12.508 9.89598H11V14.8973ZM11.002 6.39601L11 5.12135V1.396L11.7453 1.39601C12.1245 1.39601 12.4381 1.67753 12.4883 2.04312L12.4953 2.14477L12.502 6.39601H11.002Z" fill="#B10744"/>
</svg>
