<svg width="20" height="20" viewBox="0 0 20 20" fill="none" xmlns="http://www.w3.org/2000/svg">
<path d="M9.63701 11.2092C9.51608 11.2092 9.39515 11.1813 9.28352 11.1162L1.06957 6.36267C0.990162 6.31625 0.920679 6.25464 0.865083 6.18137C0.809488 6.10809 0.76887 6.02459 0.745547 5.93561C0.722224 5.84664 0.716654 5.75395 0.729155 5.66282C0.741656 5.5717 0.771982 5.48393 0.818403 5.40453C0.864824 5.32512 0.926429 5.25564 0.999703 5.20004C1.07298 5.14445 1.15648 5.10383 1.24546 5.08051C1.33443 5.05719 1.42712 5.05162 1.51824 5.06412C1.60937 5.07662 1.69714 5.10694 1.77654 5.15336L9.63701 9.7022L17.451 5.18127C17.6117 5.08927 17.8022 5.06404 17.9814 5.11101C18.1605 5.15798 18.3141 5.2734 18.4091 5.43243C18.6044 5.76732 18.4835 6.19522 18.1579 6.39057L9.9998 11.1162C9.88701 11.173 9.76324 11.2047 9.63701 11.2092Z" fill="black"/>
<path d="M9.63713 19.6372C9.25573 19.6372 8.93945 19.321 8.93945 18.9396V10.5024C8.93945 10.121 9.25573 9.80469 9.63713 9.80469C10.0185 9.80469 10.3348 10.121 10.3348 10.5024V18.9396C10.3348 19.321 10.0185 19.6372 9.63713 19.6372Z" fill="black"/>
<path d="M9.63721 20C8.8186 20 8.0093 19.8233 7.36744 19.4698L2.4 16.707C1.05116 15.9628 0 14.1674 0 12.6233V7.36744C0 5.82326 1.05116 4.03721 2.4 3.28372L7.36744 0.530233C8.64186 -0.176744 10.6326 -0.176744 11.907 0.530233L16.8744 3.29302C18.2233 4.03721 19.2744 5.83256 19.2744 7.37674V12.6326C19.2744 14.1767 18.2233 15.9628 16.8744 16.7163L11.907 19.4698C11.2651 19.8233 10.4558 20 9.63721 20ZM9.63721 1.39535C9.05116 1.39535 8.47442 1.51628 8.04651 1.74884L3.07907 4.51163C2.18605 5.00465 1.39535 6.34419 1.39535 7.36744V12.6233C1.39535 13.6465 2.18605 14.986 3.07907 15.4884L8.04651 18.2512C8.89302 18.7256 10.3814 18.7256 11.2279 18.2512L16.1953 15.4884C17.0884 14.986 17.8791 13.6558 17.8791 12.6233V7.36744C17.8791 6.34419 17.0884 5.00465 16.1953 4.50233L11.2279 1.73953C10.8 1.51628 10.2233 1.39535 9.63721 1.39535Z" fill="black"/>
</svg>
