<svg width="13" height="14" viewBox="0 0 13 14" fill="none" xmlns="http://www.w3.org/2000/svg">
<path d="M6.26561 1.81478C9.14925 1.81478 11.4869 4.15245 11.4869 7.03611C11.4869 9.91976 9.14925 12.2575 6.26561 12.2575C3.38194 12.2575 1.04427 9.91976 1.04427 7.03611C1.04427 6.77407 1.06357 6.51663 1.10082 6.26496C1.14762 5.94882 0.916234 5.64376 0.596681 5.64376C0.338503 5.64376 0.112085 5.82212 0.0728969 6.07734C0.0248954 6.38992 0 6.71009 0 7.03611C0 10.4965 2.80521 13.3017 6.26561 13.3017C9.72603 13.3017 12.5312 10.4965 12.5312 7.03611C12.5312 3.57572 9.72603 0.770508 6.26561 0.770508C4.66087 0.770508 3.19704 1.37379 2.08854 2.36593V1.64073C2.08854 1.35237 1.85477 1.1186 1.5664 1.1186C1.27804 1.1186 1.04427 1.35237 1.04427 1.64073V3.72927C1.04427 4.01763 1.27804 4.2514 1.5664 4.2514H3.65494C3.9433 4.2514 4.17707 4.01763 4.17707 3.72927C4.17707 3.4409 3.9433 3.20713 3.65494 3.20713H2.71574C3.64733 2.34306 4.89476 1.81478 6.26561 1.81478Z" fill="#2A60CA"/>
</svg>
