<svg width="18" height="20" viewBox="0 0 18 20" fill="none" xmlns="http://www.w3.org/2000/svg">
<path d="M8.68837 10.6977C5.73954 10.6977 3.33953 8.29768 3.33953 5.34884C3.33953 2.4 5.73954 0 8.68837 0C11.6372 0 14.0372 2.4 14.0372 5.34884C14.0372 8.29768 11.6372 10.6977 8.68837 10.6977ZM8.68837 1.39535C7.6406 1.39781 6.63644 1.81512 5.89555 2.55601C5.15466 3.2969 4.73734 4.30106 4.73488 5.34884C4.73734 6.39661 5.15466 7.40077 5.89555 8.14166C6.63644 8.88255 7.6406 9.29987 8.68837 9.30233C9.73615 9.29987 10.7403 8.88255 11.4812 8.14166C12.2221 7.40077 12.6394 6.39661 12.6419 5.34884C12.6394 4.30106 12.2221 3.2969 11.4812 2.55601C10.7403 1.81512 9.73615 1.39781 8.68837 1.39535ZM16.6791 20C16.2977 20 15.9814 19.6837 15.9814 19.3023C15.9814 16.093 12.707 13.4884 8.68837 13.4884C4.66977 13.4884 1.39535 16.093 1.39535 19.3023C1.39535 19.6837 1.07907 20 0.697674 20C0.316279 20 0 19.6837 0 19.3023C0 15.3302 3.89767 12.093 8.68837 12.093C13.4791 12.093 17.3767 15.3302 17.3767 19.3023C17.3767 19.6837 17.0605 20 16.6791 20Z" fill="black"/>
</svg>
