<svg width="16" height="19" viewBox="0 0 16 19" fill="none" xmlns="http://www.w3.org/2000/svg">
<path d="M4.74893 2.14004C4.74893 1.61548 4.32369 1.19025 3.79914 1.19025C3.2746 1.19025 2.84936 1.61548 2.84936 2.14004V8.54932C2.84936 8.81165 2.63674 9.02421 2.37446 9.02421C2.11219 9.02421 1.89957 8.81165 1.89957 8.54932V3.79914C1.89957 3.2746 1.47433 2.84936 0.949786 2.84936C0.425238 2.84936 0 3.2746 0 3.79914V12.1162C0 14.1862 1.10975 16.3992 1.81793 17.6145C2.34613 18.5208 3.31864 19 4.30877 19H6.36793C7.53731 19 8.60629 18.3392 9.12915 17.2931L9.25576 17.0397C9.65533 16.2403 10.1536 15.4941 10.7389 14.8187L12.8398 12.3947L14.9216 10.7754C15.095 10.6406 15.1966 10.433 15.1966 10.2132C15.1966 9.7527 14.9505 9.41077 14.6347 9.20676C14.3534 9.02506 14.0173 8.94737 13.721 8.91223C13.1167 8.84043 12.3818 8.91375 11.7366 9.03903C11.2489 9.13372 10.8113 9.31826 10.4476 9.51819V2.14004C10.4476 1.61548 10.0224 1.19025 9.49786 1.19025C8.97329 1.19025 8.54807 1.61548 8.54807 2.14004V8.07623C8.54807 8.33846 8.33541 8.55112 8.07318 8.55112C7.81094 8.55112 7.59829 8.33846 7.59829 8.07623V0.949786C7.59829 0.425238 7.17307 0 6.6485 0C6.12393 0 5.69871 0.425238 5.69871 0.949786V8.07623C5.69871 8.33846 5.48606 8.55112 5.22382 8.55112C4.96159 8.55112 4.74893 8.33846 4.74893 8.07623V2.14004Z" fill="#505050"/>
</svg>
