<svg width="11" height="11" viewBox="0 0 11 11" fill="none" xmlns="http://www.w3.org/2000/svg">
<path d="M5.50002 0.000976562C8.53759 0.000976562 11 2.46341 11 5.50099C11 8.53856 8.53759 11.001 5.50002 11.001C2.46244 11.001 0 8.53856 0 5.50099C0 2.46341 2.46244 0.000976562 5.50002 0.000976562ZM5.49793 4.53808C5.21587 4.5383 4.98359 4.75074 4.95203 5.02427L4.94834 5.08839L4.95032 8.1138L4.95406 8.17792C4.98601 8.4514 5.21862 8.66355 5.50062 8.66333C5.78262 8.66317 6.0149 8.45074 6.04652 8.17721L6.05015 8.11309L6.04817 5.08767L6.04443 5.02355C6.01248 4.75008 5.77992 4.53792 5.49793 4.53808ZM5.50024 2.47616C5.12013 2.47616 4.81202 2.78429 4.81202 3.1644C4.81202 3.5445 5.12013 3.85263 5.50024 3.85263C5.88034 3.85263 6.18851 3.5445 6.18851 3.1644C6.18851 2.78429 5.88034 2.47616 5.50024 2.47616Z" fill="#CECECE"/>
</svg>
