<svg width="20" height="21" viewBox="0 0 20 21" fill="none" xmlns="http://www.w3.org/2000/svg">
<rect y="0.00390625" width="20" height="20" rx="9.6" fill="#505050"/>
<path d="M9.80164 6.10051L14.9331 5.13769C15.3092 5.06713 15.6692 5.27547 15.776 5.61087L15.7961 5.69045L16.7028 10.523C16.7743 10.9043 16.5039 11.275 16.0989 11.351C15.7228 11.4216 15.3628 11.2132 15.256 10.8778L15.236 10.7982L14.6414 7.63231L10.238 13.6707C10.0204 13.969 9.60833 14.0662 9.28117 13.91L9.20132 13.8656L7.2205 12.5992L4.02739 16.9788C3.79162 17.3022 3.32727 17.3894 2.99022 17.1736C2.67912 16.9744 2.58524 16.5866 2.75808 16.2738L2.80687 16.1973L6.4266 11.2326C6.64411 10.9342 7.05625 10.8369 7.38346 10.9932L7.46333 11.0376L9.44418 12.304L13.4204 6.85086L10.0607 7.48124C9.68461 7.5518 9.32459 7.34346 9.21786 7.00806L9.19776 6.92848C9.13133 6.57444 9.35975 6.22951 9.71699 6.1212L9.80164 6.10051Z" fill="white"/>
</svg>
