<svg width="21" height="21" viewBox="0 0 21 21" fill="none" xmlns="http://www.w3.org/2000/svg">
<path d="M0.5 10.1C0.5 4.79807 4.79807 0.5 10.1 0.5H10.9C16.2019 0.5 20.5 4.79807 20.5 10.1V10.9C20.5 16.2019 16.2019 20.5 10.9 20.5H10.1C4.79807 20.5 0.5 16.2019 0.5 10.9V10.1Z" fill="#B10744"/>
<path d="M9.95018 6.11854L15.1683 5.13947C15.5507 5.06772 15.9187 5.28989 16.0298 5.64424L16.0508 5.72828L17.0079 10.8294C17.0834 11.2319 16.8107 11.6208 16.3989 11.6981C16.0163 11.7699 15.6484 11.5477 15.5373 11.1933L15.5163 11.1093L14.8887 7.76741L10.4476 14.1025C10.2281 14.4155 9.80923 14.5152 9.47503 14.3482L9.39341 14.3008L7.36767 12.9518L4.14719 17.5466C3.9094 17.8859 3.43721 17.9746 3.09252 17.7447C2.77436 17.5325 2.67606 17.123 2.84984 16.7944L2.89899 16.7141L6.54974 11.5054C6.76912 11.1924 7.18807 11.0927 7.52232 11.2597L7.60396 11.3071L9.62974 12.6562L13.6401 6.93499L10.2236 7.57601C9.8412 7.64776 9.47318 7.42559 9.36214 7.07124L9.34112 6.9872C9.271 6.61348 9.50116 6.25144 9.86414 6.13976L9.95018 6.11854Z" fill="white"/>
</svg>
