<svg width="19" height="18" viewBox="0 0 19 18" fill="none" xmlns="http://www.w3.org/2000/svg">
<path d="M7.58497 0C5.19122 0 3.2507 1.94052 3.2507 4.33427C3.2507 6.72802 5.19122 8.66854 7.58497 8.66854C9.97868 8.66854 11.9192 6.72802 11.9192 4.33427C11.9192 1.94052 9.97868 0 7.58497 0ZM2.17659 9.7521C0.978624 9.7521 0 10.7131 0 11.9192C0 13.7518 0.902406 15.1334 2.31341 16.0331C3.70252 16.9188 5.57524 17.3371 7.58497 17.3371C8.03015 17.3371 8.46862 17.3166 8.89663 17.275C8.076 16.2538 7.58497 14.9566 7.58497 13.5446C7.58497 12.1039 8.09622 10.7825 8.94723 9.7521H2.17659ZM9.35671 12.916C10.5355 12.6149 11.2355 11.4025 10.9069 10.231L10.7376 9.62771C11.0129 9.41609 11.3114 9.23481 11.6282 9.08864L11.9938 9.47655C12.8486 10.3836 14.2906 10.3844 15.1464 9.47818L15.4983 9.10565C15.8209 9.25789 16.1241 9.44676 16.4028 9.66704L16.2661 10.1246C15.9093 11.3188 16.6309 12.5672 17.8439 12.854L18.222 12.9434C18.2454 13.1404 18.2575 13.341 18.2575 13.5445C18.2575 13.7135 18.2491 13.8805 18.233 14.0451L17.7339 14.1725C16.5551 14.4737 15.8551 15.6862 16.1837 16.8576L16.3529 17.4608C16.0775 17.6724 15.7792 17.8538 15.4623 18L15.0968 17.6121C14.242 16.705 12.8 16.7043 11.9442 17.6105L11.592 17.9833C11.2693 17.8311 10.9662 17.6423 10.6875 17.4221L10.8245 16.964C11.1813 15.7698 10.4597 14.5213 9.24673 14.2346L8.86791 14.145C8.84462 13.9482 8.83259 13.7478 8.83259 13.5445C8.83259 13.3753 8.84083 13.2083 8.85708 13.0437L9.35671 12.916ZM14.6286 13.5445C14.6286 12.946 14.1435 12.4609 13.545 12.4609C12.9466 12.4609 12.4615 12.946 12.4615 13.5445C12.4615 14.1428 12.9466 14.628 13.545 14.628C14.1435 14.628 14.6286 14.1428 14.6286 13.5445Z" fill="#B10744"/>
</svg>
