<svg width="22" height="21" viewBox="0 0 22 21" fill="none" xmlns="http://www.w3.org/2000/svg">
<path d="M11.4089 0.274725C10.5053 -0.091575 9.4947 -0.091575 8.5911 0.274725L1.09252 3.31469C0.43211 3.58242 0 4.22388 0 4.93648V14.5892C0 15.3018 0.43211 15.9432 1.09252 16.211L8.5911 19.2509C8.7315 19.3079 8.8746 19.356 9.0194 19.3952C9.0298 19.3207 9.0444 19.2456 9.0632 19.1702L9.5209 17.3395C9.6829 16.6915 10.018 16.0997 10.4903 15.6275L10.7503 15.3674V8.52732L18.5 5.53511V8.76972C19.0085 8.73641 19.5233 8.82092 20 9.02302V4.93648C20 4.22388 19.5679 3.58242 18.9075 3.31469L11.4089 0.274725ZM9.1547 1.66483C9.6968 1.44506 10.3032 1.44506 10.8453 1.66483L17.4376 4.33738L14.7684 5.36799L7.24097 2.44065L9.1547 1.66483ZM5.21472 3.2621L12.6917 6.16982L10.0013 7.20862L2.58967 4.32631L5.21472 3.2621ZM1.5 5.51198L9.2503 8.52602V17.8971C9.2183 17.8858 9.1863 17.8737 9.1547 17.8608L1.65607 14.8209C1.56173 14.7826 1.5 14.691 1.5 14.5892V5.51198ZM17.0999 10.4321L11.1974 16.3346C10.8533 16.6787 10.6092 17.1099 10.4911 17.582L10.0334 19.4127C9.8344 20.2089 10.5556 20.93 11.3517 20.731L13.1824 20.2733C13.6545 20.1553 14.0857 19.9111 14.4299 19.567L20.3323 13.6646C21.2249 12.772 21.2249 11.3248 20.3323 10.4321C19.4397 9.53951 17.9925 9.53951 17.0999 10.4321Z" fill="#B10744"/>
</svg>
