<svg width="168" height="34" viewBox="0 0 168 34" fill="none" xmlns="http://www.w3.org/2000/svg">
<path d="M23.1667 24.3804C22.3282 24.3804 21.6222 23.6964 21.6222 22.836V17.8717L16.9889 13.15L12.3555 17.8717V22.836C12.3555 23.6744 11.6715 24.3804 10.8111 24.3804C9.97264 24.3804 9.2666 23.6964 9.2666 22.836V17.4745C9.2666 16.9229 9.48724 16.4155 9.86232 16.0183L15.5327 10.2377C15.9298 9.84051 16.4593 9.61987 16.9889 9.61987C17.5404 9.61987 18.0479 9.84051 18.4451 10.2377L24.1154 16.0183C24.4905 16.4155 24.7111 16.9229 24.7111 17.4745V22.836C24.7111 23.6744 24.0271 24.3804 23.1667 24.3804Z" fill="#B10744"/>
<path d="M25.9468 34H8.05321C3.61843 34 0 30.3816 0 25.9468V8.05321C0 3.61843 3.61843 0 8.05321 0H25.9689C30.4036 0 34.0221 3.61843 34.0221 8.05321V25.9689C34 30.3816 30.3816 34 25.9468 34ZM8.05321 3.06684C5.31733 3.06684 3.0889 5.29526 3.0889 8.03115V25.9468C3.0889 28.6827 5.31733 30.9111 8.05321 30.9111H25.9689C28.7047 30.9111 30.9332 28.6827 30.9332 25.9468V8.05321C30.9332 5.31733 28.7047 3.0889 25.9689 3.0889H8.05321V3.06684Z" fill="#B10744"/>
<path d="M52.621 23.4463L51.915 21.615H46.002L45.2959 23.4904C45.0312 24.2185 44.7885 24.7039 44.5899 24.9686C44.3913 25.2334 44.0824 25.3437 43.6412 25.3437C43.2661 25.3437 42.9351 25.2113 42.6483 24.9466C42.3615 24.6818 42.2291 24.3729 42.2291 24.0199C42.2291 23.8213 42.2512 23.6228 42.3173 23.4021C42.3835 23.1815 42.4939 22.8947 42.6483 22.5196L46.377 13.0543C46.4874 12.7895 46.6197 12.4586 46.7521 12.0835C46.9066 11.7084 47.061 11.3775 47.2375 11.1348C47.414 10.8921 47.6347 10.6714 47.8994 10.517C48.1642 10.3625 48.5172 10.2743 48.9144 10.2743C49.3336 10.2743 49.6645 10.3625 49.9514 10.517C50.2161 10.6714 50.4588 10.87 50.6133 11.1127C50.7898 11.3554 50.9222 11.6202 51.0325 11.907C51.1428 12.1938 51.2972 12.5689 51.4737 13.0322L55.2687 22.4313C55.5776 23.1374 55.7099 23.6669 55.7099 23.9978C55.7099 24.3288 55.5776 24.6377 55.2907 24.9245C55.0039 25.2113 54.673 25.3437 54.2758 25.3437C54.0552 25.3437 53.8345 25.2996 53.6801 25.2113C53.5036 25.1231 53.3712 25.0128 53.2609 24.8804C53.1506 24.748 53.0182 24.5274 52.9079 24.2185C52.8196 23.9317 52.7093 23.6669 52.621 23.4463ZM46.7742 19.4086H51.1207L48.9144 13.4073L46.7742 19.4086Z" fill="#B10744"/>
<path d="M61.8877 18.6143H60.8507V23.2918C60.8507 23.9096 60.7183 24.3509 60.4535 24.6598C60.1888 24.9466 59.8358 25.101 59.3945 25.101C58.9312 25.101 58.5561 24.9466 58.2913 24.6377C58.0265 24.3288 57.8942 23.8875 57.8942 23.2918V12.0835C57.8942 11.4437 58.0265 10.9803 58.3134 10.6935C58.6002 10.4067 59.0635 10.2743 59.7034 10.2743H64.4912C65.1531 10.2743 65.7267 10.2964 66.1901 10.3625C66.6534 10.4287 67.0726 10.5391 67.4698 10.7156C67.9331 10.9141 68.3303 11.1789 68.6833 11.5319C69.0363 11.8849 69.301 12.3041 69.4776 12.7675C69.6541 13.2308 69.7423 13.7383 69.7423 14.2678C69.7423 15.3489 69.4334 16.2315 68.8156 16.8713C68.1979 17.5112 67.2712 17.9745 66.0356 18.2613C66.5652 18.5481 67.0506 18.9453 67.536 19.4969C68.0214 20.0485 68.4406 20.6221 68.8156 21.2399C69.1907 21.8577 69.4776 22.4093 69.6982 22.8947C69.8968 23.3801 70.0071 23.7331 70.0071 23.9096C70.0071 24.1082 69.9409 24.2847 69.8306 24.4832C69.6982 24.6818 69.5437 24.8142 69.3231 24.9245C69.1025 25.0348 68.8598 25.079 68.595 25.079C68.2641 25.079 67.9772 24.9907 67.7566 24.8363C67.536 24.6818 67.3374 24.4832 67.1829 24.2405C67.0285 23.9978 66.8079 23.6448 66.521 23.1815L65.3296 21.2178C64.9104 20.4897 64.5353 19.9381 64.1823 19.5631C63.8513 19.188 63.4983 18.9232 63.1674 18.7908C62.8585 18.6805 62.4172 18.6143 61.8877 18.6143ZM63.5866 12.5027H60.8728V16.4962H63.5204C64.2264 16.4962 64.8221 16.43 65.3075 16.3197C65.7929 16.1873 66.168 15.9888 66.4107 15.7019C66.6755 15.4151 66.7858 14.9959 66.7858 14.4884C66.7858 14.0913 66.6755 13.7383 66.4769 13.4294C66.2783 13.1205 65.9915 12.8999 65.6164 12.7454C65.2855 12.5689 64.6015 12.5027 63.5866 12.5027Z" fill="#B10744"/>
<path d="M84.7016 20.5118C84.7016 20.9751 84.5912 21.4826 84.3485 22.0121C84.1279 22.5417 83.7528 23.0712 83.2674 23.6007C82.782 24.1302 82.1422 24.5494 81.392 24.8583C80.6198 25.1893 79.7373 25.3437 78.7223 25.3437C77.9501 25.3437 77.2661 25.2775 76.6263 25.1231C75.9864 24.9686 75.4348 24.748 74.9053 24.4391C74.3979 24.1302 73.9125 23.7331 73.4933 23.2256C73.1182 22.7623 72.7872 22.2548 72.5004 21.6812C72.2356 21.1075 72.015 20.5118 71.8826 19.872C71.7502 19.2321 71.684 18.5481 71.684 17.82C71.684 16.6507 71.8605 15.5916 72.1915 14.6649C72.5225 13.7383 73.0299 12.944 73.6477 12.2821C74.2875 11.6202 75.0377 11.1127 75.8761 10.7818C76.7366 10.4287 77.6412 10.2743 78.612 10.2743C79.7814 10.2743 80.8404 10.517 81.7671 10.9803C82.6938 11.4437 83.3998 12.0394 83.8852 12.7234C84.3706 13.4073 84.6133 14.0692 84.6133 14.687C84.6133 15.018 84.503 15.3269 84.2603 15.5916C84.0176 15.8564 83.7308 15.9888 83.3998 15.9888C83.0247 15.9888 82.7379 15.9005 82.5614 15.724C82.4069 15.5475 82.1863 15.2386 81.9657 14.7973C81.5906 14.0692 81.1273 13.5397 80.5977 13.1867C80.0682 12.8337 79.4284 12.6572 78.6782 12.6572C77.4647 12.6572 76.4939 13.1205 75.7879 14.0472C75.0598 14.9738 74.7067 16.2756 74.7067 17.9745C74.7067 19.0997 74.8612 20.0485 75.1921 20.7986C75.501 21.5488 75.9644 22.1004 76.538 22.4755C77.1117 22.8505 77.7957 23.0271 78.5899 23.0271C79.4284 23.0271 80.1565 22.8064 80.7301 22.3872C81.3258 21.968 81.7671 21.3502 82.0539 20.5339C82.1863 20.1588 82.3408 19.8278 82.5173 19.5851C82.6938 19.3424 83.0027 19.2321 83.3998 19.2321C83.7528 19.2321 84.0617 19.3645 84.3044 19.6072C84.5912 19.8499 84.7016 20.1588 84.7016 20.5118Z" fill="#B10744"/>
<path d="M90.2394 12.0614V22.652H96.2186C96.704 22.652 97.057 22.7623 97.3218 23.005C97.5865 23.2477 97.6969 23.5345 97.6969 23.8875C97.6969 24.2405 97.5645 24.5274 97.3218 24.748C97.0791 24.9686 96.704 25.079 96.2186 25.079H89.0921C88.4522 25.079 87.9889 24.9466 87.7021 24.6598C87.4152 24.3729 87.2828 23.9096 87.2828 23.2698V12.0614C87.2828 11.4657 87.4152 11.0245 87.68 10.7156C87.9447 10.4067 88.2978 10.2743 88.739 10.2743C89.1803 10.2743 89.5333 10.4287 89.8202 10.7156C90.107 11.0245 90.2394 11.4657 90.2394 12.0614Z" fill="#B10744"/>
<path d="M99.7708 23.5345V12.0614C99.7708 11.4657 99.9032 11.0245 100.168 10.7156C100.433 10.4067 100.786 10.2743 101.227 10.2743C101.668 10.2743 102.021 10.4287 102.308 10.7156C102.573 11.0024 102.727 11.4657 102.727 12.0614V23.5345C102.727 24.1302 102.595 24.5936 102.308 24.8804C102.043 25.1893 101.668 25.3217 101.227 25.3217C100.808 25.3217 100.455 25.1672 100.19 24.8804C99.9032 24.5936 99.7708 24.1302 99.7708 23.5345Z" fill="#B10744"/>
<path d="M114.708 12.5689H108.905V16.2977H113.759C114.2 16.2977 114.553 16.408 114.774 16.6065C114.995 16.8051 115.105 17.0699 115.105 17.4229C115.105 17.7539 114.995 18.0186 114.774 18.2172C114.553 18.4158 114.223 18.5261 113.781 18.5261H108.927V23.3139C108.927 23.9317 108.795 24.3729 108.508 24.6598C108.243 24.9466 107.89 25.101 107.449 25.101C107.008 25.101 106.655 24.9466 106.39 24.6598C106.125 24.3509 105.971 23.9096 105.971 23.3139V12.0835C105.971 11.6643 106.037 11.3113 106.169 11.0465C106.302 10.7818 106.5 10.5832 106.765 10.4508C107.03 10.3184 107.383 10.2743 107.802 10.2743H114.752C115.215 10.2743 115.568 10.3846 115.811 10.5832C116.032 10.7818 116.164 11.0686 116.164 11.3995C116.164 11.7526 116.054 12.0173 115.811 12.238C115.546 12.4586 115.193 12.5689 114.708 12.5689Z" fill="#B10744"/>
<path d="M136.479 22.9268V24H131.208V22.9268H136.479ZM131.475 14.0469V24H130.155V14.0469H131.475ZM135.781 18.3262V19.3994H131.208V18.3262H135.781ZM136.41 14.0469V15.127H131.208V14.0469H136.41ZM144.121 20.835H145.434C145.365 21.4639 145.185 22.0267 144.894 22.5234C144.602 23.0202 144.189 23.4144 143.656 23.7061C143.123 23.9932 142.458 24.1367 141.66 24.1367C141.077 24.1367 140.546 24.0273 140.067 23.8086C139.593 23.5898 139.186 23.2799 138.844 22.8789C138.502 22.4733 138.238 21.988 138.051 21.4229C137.868 20.8532 137.777 20.2197 137.777 19.5225V18.5312C137.777 17.834 137.868 17.2028 138.051 16.6377C138.238 16.068 138.504 15.5804 138.851 15.1748C139.201 14.7692 139.623 14.457 140.115 14.2383C140.607 14.0195 141.161 13.9102 141.776 13.9102C142.528 13.9102 143.164 14.0514 143.684 14.334C144.203 14.6165 144.606 15.0085 144.894 15.5098C145.185 16.0065 145.365 16.583 145.434 17.2393H144.121C144.057 16.7744 143.939 16.3757 143.766 16.043C143.592 15.7057 143.346 15.446 143.027 15.2637C142.708 15.0814 142.291 14.9902 141.776 14.9902C141.334 14.9902 140.945 15.0745 140.607 15.2432C140.275 15.4118 139.994 15.651 139.767 15.9609C139.543 16.2708 139.375 16.6423 139.261 17.0752C139.147 17.5081 139.09 17.9889 139.09 18.5176V19.5225C139.09 20.0101 139.14 20.4681 139.24 20.8965C139.345 21.3249 139.502 21.7008 139.712 22.0244C139.922 22.348 140.188 22.6032 140.512 22.79C140.835 22.9723 141.218 23.0635 141.66 23.0635C142.221 23.0635 142.667 22.9746 143 22.7969C143.333 22.6191 143.583 22.3639 143.752 22.0312C143.925 21.6986 144.048 21.2998 144.121 20.835ZM154.895 18.709V19.3379C154.895 20.0853 154.801 20.7552 154.614 21.3477C154.427 21.9401 154.159 22.4437 153.808 22.8584C153.457 23.2731 153.035 23.5898 152.543 23.8086C152.055 24.0273 151.508 24.1367 150.902 24.1367C150.314 24.1367 149.774 24.0273 149.282 23.8086C148.795 23.5898 148.371 23.2731 148.011 22.8584C147.655 22.4437 147.38 21.9401 147.184 21.3477C146.988 20.7552 146.89 20.0853 146.89 19.3379V18.709C146.89 17.9616 146.985 17.2939 147.177 16.7061C147.373 16.1136 147.648 15.61 148.004 15.1953C148.359 14.776 148.781 14.457 149.269 14.2383C149.761 14.0195 150.301 13.9102 150.889 13.9102C151.495 13.9102 152.042 14.0195 152.529 14.2383C153.021 14.457 153.443 14.776 153.794 15.1953C154.149 15.61 154.421 16.1136 154.607 16.7061C154.799 17.2939 154.895 17.9616 154.895 18.709ZM153.589 19.3379V18.6953C153.589 18.1029 153.527 17.5788 153.404 17.123C153.286 16.6673 153.11 16.2845 152.878 15.9746C152.646 15.6647 152.361 15.43 152.023 15.2705C151.691 15.111 151.312 15.0312 150.889 15.0312C150.479 15.0312 150.107 15.111 149.774 15.2705C149.446 15.43 149.164 15.6647 148.927 15.9746C148.694 16.2845 148.514 16.6673 148.387 17.123C148.259 17.5788 148.195 18.1029 148.195 18.6953V19.3379C148.195 19.9349 148.259 20.4635 148.387 20.9238C148.514 21.3796 148.697 21.7646 148.934 22.0791C149.175 22.389 149.46 22.6237 149.788 22.7832C150.121 22.9427 150.492 23.0225 150.902 23.0225C151.331 23.0225 151.711 22.9427 152.044 22.7832C152.377 22.6237 152.657 22.389 152.885 22.0791C153.117 21.7646 153.293 21.3796 153.411 20.9238C153.53 20.4635 153.589 19.9349 153.589 19.3379ZM157.287 14.0469H158.565L161.826 22.1611L165.08 14.0469H166.365L162.318 24H161.32L157.287 14.0469ZM156.87 14.0469H157.998L158.183 20.1172V24H156.87V14.0469ZM165.647 14.0469H166.775V24H165.463V20.1172L165.647 14.0469Z" fill="#B10744"/>
</svg>
