<svg width="639" height="630" viewBox="0 0 639 630" fill="none" xmlns="http://www.w3.org/2000/svg">
<path d="M570 327.4H70V327.7H570V327.4Z" fill="#EBEBEB"/>
<path d="M155.6 343.5H122.5V343.8H155.6V343.5Z" fill="#EBEBEB"/>
<path d="M249.8 346.2H205.3V346.5H249.8V346.2Z" fill="#EBEBEB"/>
<path d="M227 334.2H156.6V334.5H227V334.2Z" fill="#EBEBEB"/>
<path d="M519.9 335.9H507.2V336.2H519.9V335.9Z" fill="#EBEBEB"/>
<path d="M498.3 335.9H461.5V336.2H498.3V335.9Z" fill="#EBEBEB"/>
<path d="M378.3 340.1H347.2V340.4H378.3V340.1Z" fill="#EBEBEB"/>
<path d="M307 282.8H113.9C110.8 282.8 108.2 280.2 108.2 277.1V5.7C108.2 2.6 110.8 0 113.9 0H307C310.1 0 312.7 2.6 312.7 5.7V277.1C312.7 280.2 310.2 282.8 307 282.8ZM113.9 0.200001C110.9 0.200001 108.4 2.6 108.4 5.7V277.1C108.4 280.1 110.8 282.6 113.9 282.6H307C310 282.6 312.5 280.2 312.5 277.1V5.7C312.5 2.7 310.1 0.200001 307 0.200001H113.9Z" fill="#EBEBEB"/>
<path d="M523.3 282.8H330.2C327.1 282.8 324.5 280.2 324.5 277.1V5.7C324.5 2.6 327.1 0 330.2 0H523.3C526.4 0 529 2.6 529 5.7V277.1C529 280.2 526.5 282.8 523.3 282.8ZM330.2 0.200001C327.2 0.200001 324.7 2.6 324.7 5.7V277.1C324.7 280.1 327.1 282.6 330.2 282.6H523.3C526.3 282.6 528.8 280.2 528.8 277.1V5.7C528.8 2.7 526.4 0.200001 523.3 0.200001H330.2Z" fill="#EBEBEB"/>
<path d="M387.592 228.027L387.592 13.7274L124.192 13.7274L124.192 228.027L387.592 228.027Z" fill="#EBEBEB"/>
<path d="M389.108 228.012L389.108 13.7123H387.508L387.508 228.012H389.108Z" fill="#E0E0E0"/>
<path d="M137.065 215.02L374.565 215.02V26.7198L137.065 26.7198L137.065 215.02Z" fill="#F5F5F5"/>
<path d="M245.3 215H277.1L224 26.7H192.1L245.3 215Z" fill="white"/>
<path d="M219.7 215H238.1L185 26.7H166.6L219.7 215Z" fill="white"/>
<path d="M321.9 215H329.5L276.4 26.7H268.7L321.9 215Z" fill="white"/>
<path d="M495.9 319.2H217.9C213.9 319.2 210.7 315.9 210.8 311.8L217.4 113C217.5 109 221 105.6 225 105.6H503C507 105.6 510.2 108.9 510.1 113L503.5 311.8C503.4 315.9 499.9 319.2 495.9 319.2Z" fill="#E0E0E0"/>
<g opacity="0.6">
<path d="M493.6 319.2H215.6C211.6 319.2 208.4 315.9 208.5 311.8L215 113C215.1 109 218.6 105.6 222.6 105.6H500.6C504.6 105.6 507.8 108.9 507.7 113L501.1 311.8C501.1 315.9 497.7 319.2 493.6 319.2Z" fill="#FAFAFA"/>
</g>
<path d="M490 318.8H154.2C150.7 318.8 147.7 320.8 146.3 323.8C145.5 325.5 146.7 327.4 148.6 327.4H495.6C497.5 327.4 498.7 325.5 497.9 323.8C496.6 320.9 493.5 318.8 490 318.8Z" fill="#E0E0E0"/>
<path opacity="0.6" d="M154.2 318.8H422.2C425.7 318.8 428.7 320.8 430.1 323.8C430.9 325.5 429.7 327.4 427.8 327.4H148.6C146.7 327.4 145.5 325.5 146.3 323.8C147.7 320.9 150.7 318.8 154.2 318.8Z" fill="#FAFAFA"/>
<path opacity="0.3" d="M314.4 324.3H244.7C243 324.3 241.6 325.7 241.6 327.4H317.6C317.5 325.7 316.1 324.3 314.4 324.3Z" fill="#E0E0E0"/>
<path opacity="0.9" d="M215.1 304.6L221.2 120.2C221.3 118.6 222.6 117.3 224.2 117.3H498.4C500 117.3 501.2 118.6 501.2 120.2L495 304.6C494.9 306.2 493.6 307.5 492 307.5H217.9C216.3 307.5 215.1 306.2 215.1 304.6Z" fill="white"/>
<path d="M222.4 296.8L228 127.9C228.1 126 229.7 124.4 231.6 124.4H490.3C492.3 124.4 494 126.1 493.9 128.1L488.3 297C488.2 298.9 486.6 300.5 484.7 300.5H226C223.9 300.5 222.3 298.8 222.4 296.8Z" fill="#F0F0F0"/>
<path d="M433.4 307.5H478.9L426.5 117.4H381.1L433.4 307.5Z" fill="white"/>
<path d="M404.5 307.5H420.8L368.5 117.4H352.1L404.5 307.5Z" fill="white"/>
<path d="M311.4 307.5H327.8L275.4 117.4H259L311.4 307.5Z" fill="white"/>
<path opacity="0.4" d="M363.6 226.2C363.6 227.4 362.6 228.4 361.4 228.4C360.2 228.4 359.3 227.4 359.3 226.2C359.3 225 360.3 224 361.5 224C362.7 224 363.7 225 363.6 226.2Z" fill="white"/>
<path d="M320 372.5C427.088 372.5 513.9 367.441 513.9 361.2C513.9 354.959 427.088 349.9 320 349.9C212.912 349.9 126.1 354.959 126.1 361.2C126.1 367.441 212.912 372.5 320 372.5Z" fill="#F5F5F5"/>
<path opacity="0.5" d="M228 232.8C184.2 189 184.2 118.1 228 74.3002C271.8 30.5002 342.7 30.5002 386.5 74.3002C430.3 118.1 430.3 189 386.5 232.8C342.7 276.5 271.8 276.5 228 232.8Z" fill="white"/>
<path d="M332.8 96.2002C335.8 92.3002 339 88.1002 344.5 82.7002C347.4 79.9002 356.4 73.9002 359.8 72.7002C362.4 71.8002 367.4 85.5002 367.4 94.0002C367.4 102 364.5 125.7 364.5 125.7L332.8 96.2002Z" fill="#D94D7F"/>
<path opacity="0.2" d="M339.2 104.4C344.9 103.6 353.1 92.8002 358.5 87.3002C363.9 81.8002 364.5 90.3002 363.6 101.2C363.1 106.6 361.9 112.9 360.2 115.9C359.6 116.9 358.1 116.9 357.4 116C353.6 111.4 346.4 106.3 339.2 104.4Z" fill="white"/>
<path d="M371.5 251C369.4 252.4 367.2 253.7 365 255C343.4 267.4 318.6 272.2 294.5 269.6C273 267.3 252.1 259 234.4 244.8C239.4 236.3 243.3 229.5 245 225.6C252 209.5 255.7 207.3 256.1 193.3C256.6 179.3 250 163.2 248.3 148.9C259.7 143.5 358.1 176.1 358.1 176.1C348.6 195.6 364.4 210.7 368.1 219.6C372.7 230.1 372.7 240.6 371.5 251Z" fill="#D94D7F"/>
<path d="M376.2 148.6C378.3 149.7 379.6 152.4 379.6 152.4C379.6 152.4 379.4 142.4 374 134.5C368.4 126.4 364.2 123.8 359.2 114.1C354 104.1 342.2 92.0002 326 90.8002C309.8 89.5002 271.1 87.4002 257.1 112.2C253 119.5 250.5 126.4 249.2 132.9C244.1 141.2 240.2 156.6 240.4 161.1C242.9 158 246.6 155.6 246.6 155.6C246.6 155.6 244.4 169.4 245 176.7C248.3 172.7 252 170.4 254.5 169.1C261.2 181 285.3 198.3 319.2 194.5C346.8 191.4 359.2 187.2 364.9 178.1C366.8 175.1 368.8 171.3 370.5 167.4C371.5 168.3 373.6 170.6 375.3 175C376.8 167.7 374.9 160.2 374.9 160.2C374.9 160.2 377.6 162.9 379 164.5C379.2 158 378.7 154 376.2 148.6Z" fill="#D94D7F"/>
<path opacity="0.3" d="M297.7 122.7C301.4 117.9 308.8 114.2 315.3 120.3C317.4 122.3 313.9 138.5 297.7 122.7Z" fill="black"/>
<path opacity="0.3" d="M359.4 121C356.3 116.7 350.7 113.7 345.5 119.1C343.1 121.7 349.7 135.8 359.4 121Z" fill="black"/>
<path d="M344.1 131.3C334.9 130.9 329.9 131.1 330.7 136.2C331.4 140.4 340.9 145.2 344.2 143.4C349.2 140.6 351.9 131.6 344.1 131.3Z" fill="white"/>
<path opacity="0.1" d="M340.6 142.4C331.5 139.8 313.7 137.2 308.2 147.1C304.1 154.5 306.2 162 312.5 167.5C319.2 173.3 329.8 179 340.4 179.9C355.1 181.2 361.3 175.8 365.1 169.9C370.9 161.1 373.6 146.5 362.3 142.3C355.9 139.9 346.9 141.1 340.6 142.4Z" fill="white"/>
<path opacity="0.1" d="M365 254.9C343.4 267.3 318.6 272.1 294.5 269.5C290.5 257.8 289.7 243.5 293.4 229.3C299.7 205.1 320.4 210.6 331 216.6C338.4 213.2 348.8 209.8 356.3 215.2C364.7 221.4 366.5 238.1 365 254.9Z" fill="white"/>
<path opacity="0.2" d="M331.6 157.9C329.2 157.9 326.4 157.4 323.5 156.4C323.1 156.3 323 155.9 323.1 155.5C323.2 155.1 323.6 154.9 324 155.1C329.6 157 334.1 157 337.5 155.2C341.4 153.1 342.3 149.2 342.3 149.2C342.4 148.9 342.6 148.7 342.9 148.7C343.2 148.7 343.4 148.8 343.6 149C349.4 158.7 355.7 155.5 355.8 155.4C356.1 155.2 356.6 155.4 356.7 155.7C356.9 156 356.7 156.5 356.4 156.6C356.3 156.6 349.4 160.1 343.2 150.8C342.5 152.3 341.1 154.7 338.2 156.3C336.2 157.4 334 157.9 331.6 157.9Z" fill="black"/>
<path d="M281.9 96.5002C275.7 94.3002 270.8 90.0002 263.8 83.2002C258.5 78.1002 254.3 70.8002 249.5 70.4002C245.8 70.1002 242.7 83.2002 244.8 95.8002C246.4 105.6 256.8 129.8 256.8 129.8L281.9 96.5002Z" fill="#D94D7F"/>
<path opacity="0.2" d="M271.2 99.0002C272.6 98.1002 272.6 96.1002 271.1 95.2002C266 92.1002 259.8 85.6002 256.1 81.2002C251.2 75.4002 249.6 85.4002 251.7 96.1002C252.4 99.8002 254.2 103.6 255.9 106.5C257.2 108.8 260.5 109.1 262.1 106.9C264.4 104.1 267.6 101.2 271.2 99.0002Z" fill="white"/>
<path d="M366.5 113.1L281.9 114.9C281.4 114.9 281 114.5 281 114.1C281 113.6 281.4 113.2 281.8 113.2L366.4 111.4C366.9 111.4 367.3 111.8 367.3 112.2C367.3 112.7 367 113.1 366.5 113.1Z" fill="white"/>
<path d="M292.7 133L270.8 133.4L270 113.4L292 112.9L292.7 133Z" fill="white"/>
<path opacity="0.3" d="M283.7 123.2C283.7 124.5 282.7 125.5 281.4 125.5C280.1 125.5 279.1 124.5 279.1 123.2C279.1 121.9 280.1 120.9 281.4 120.9C282.7 120.9 283.7 121.9 283.7 123.2Z" fill="black"/>
<path opacity="0.2" d="M292.7 131.8L321.3 131.2C323.6 131.2 325.4 129.2 325.3 126.9L324.8 113.1L292 113.8L292.7 131.8Z" fill="white"/>
<path d="M250.7 133.8L270.8 133.4L270 113.4L250 113.8C248.3 113.8 246.9 115.3 247 117L247.5 130.9C247.6 132.6 249 133.9 250.7 133.8Z" fill="white"/>
<path opacity="0.3" d="M250.7 133.8L270.8 133.4L270 113.4L250 113.8C248.3 113.8 246.9 115.3 247 117L247.5 130.9C247.6 132.6 249 133.9 250.7 133.8Z" fill="#D94D7F"/>
<path d="M469.7 295.6C469.2 293.4 468.3 291.6 467.1 290.1C464.5 287.3 461.8 284.7 459 282.1C456.3 279.5 453.5 276.9 450.7 274.4C447.9 271.8 445 269.4 442.2 266.9C436.4 262 430.5 257.2 424.4 252.6C421.6 250.5 418.8 248.5 415.9 246.5C417.2 242.8 416.5 238.6 413.5 235.6L409.3 231.4C408.5 230.6 407.7 230 406.8 229.6C444.4 180.5 440.8 110 395.8 65.0002C346.9 16.1002 267.6 16.1002 218.7 65.0002C169.8 113.9 169.8 193.2 218.7 242.1C263.6 287 334.2 290.7 383.3 253.1C383.8 254 384.4 254.8 385.1 255.6L389.3 259.8C392.2 262.7 396.5 263.5 400.2 262.2C402.2 265.1 404.2 267.9 406.3 270.7C410.9 276.8 415.7 282.8 420.6 288.5C423.1 291.4 425.6 294.2 428.1 297C430.6 299.8 433.2 302.6 435.8 305.3C438.4 308 441 310.8 443.8 313.4C445.3 314.6 447.1 315.5 449.3 316C451.5 316.4 454.1 316.5 457.6 315.7C463.2 314.3 467.8 310 469.3 304C470.2 300.4 470.1 297.8 469.7 295.6ZM224.7 236C179.1 190.4 179.1 116.5 224.7 71.0002C270.3 25.4002 344.2 25.4002 389.8 71.0002C435.4 116.6 435.4 190.5 389.8 236C344.2 281.6 270.3 281.6 224.7 236Z" fill="#D94D7F"/>
<path opacity="0.2" d="M469.7 295.6C469.2 293.4 468.3 291.6 467.1 290.1C464.5 287.3 461.8 284.7 459 282.1C456.3 279.5 453.5 276.9 450.7 274.4C447.9 271.8 445 269.4 442.2 266.9C436.4 262 430.5 257.2 424.4 252.6C421.6 250.5 418.8 248.5 415.9 246.5C417.2 242.8 416.5 238.6 413.5 235.6L409.3 231.4C408.5 230.6 407.7 230 406.8 229.6C444.4 180.5 440.8 110 395.8 65.0002C346.9 16.1002 267.6 16.1002 218.7 65.0002C169.8 113.9 169.8 193.2 218.7 242.1C263.6 287 334.2 290.7 383.3 253.1C383.8 254 384.4 254.8 385.1 255.6L389.3 259.8C392.2 262.7 396.5 263.5 400.2 262.2C402.2 265.1 404.2 267.9 406.3 270.7C410.9 276.8 415.7 282.8 420.6 288.5C423.1 291.4 425.6 294.2 428.1 297C430.6 299.8 433.2 302.6 435.8 305.3C438.4 308 441 310.8 443.8 313.4C445.3 314.6 447.1 315.5 449.3 316C451.5 316.4 454.1 316.5 457.6 315.7C463.2 314.3 467.8 310 469.3 304C470.2 300.4 470.1 297.8 469.7 295.6ZM224.7 236C179.1 190.4 179.1 116.5 224.7 71.0002C270.3 25.4002 344.2 25.4002 389.8 71.0002C435.4 116.6 435.4 190.5 389.8 236C344.2 281.6 270.3 281.6 224.7 236Z" fill="black"/>
<path opacity="0.3" d="M400.2 262.1L415.8 246.5C415.9 246.5 411.7 258.4 400.2 262.1Z" fill="black"/>
<path d="M424.3 102C422.8 98.6002 421.1 95.2002 419.4 92.0002L420.3 91.5002C422.1 94.8002 423.8 98.2002 425.3 101.6L424.3 102ZM415 84.6002C410 76.8002 404.2 69.6002 397.7 63.0002L398.5 62.2002C405.1 68.8002 411 76.1002 416 83.9002L415 84.6002Z" fill="#D94D7F"/>
<path opacity="0.2" d="M424.3 102C422.8 98.6002 421.1 95.2002 419.4 92.0002L420.3 91.5002C422.1 94.8002 423.8 98.2002 425.3 101.6L424.3 102ZM415 84.6002C410 76.8002 404.2 69.6002 397.7 63.0002L398.5 62.2002C405.1 68.8002 411 76.1002 416 83.9002L415 84.6002Z" fill="black"/>
<path d="M26.87 495.675H33.7938V522.623C33.7938 525.688 33.1292 528.255 31.7998 530.322C30.4704 532.39 28.661 533.951 26.3715 535.003C24.1004 536.037 21.5617 536.554 18.7552 536.554C15.8564 536.554 13.2715 536.037 11.0005 535.003C8.72948 533.951 6.9385 532.39 5.62759 530.322C4.33513 528.255 3.68891 525.688 3.68891 522.623V495.675H10.6128V522.623C10.6128 524.562 10.9451 526.159 11.6098 527.414C12.2745 528.651 13.2161 529.565 14.4347 530.156C15.6533 530.747 17.0935 531.043 18.7552 531.043C20.417 531.043 21.8479 530.747 23.048 530.156C24.2666 529.565 25.2083 528.651 25.873 527.414C26.5376 526.159 26.87 524.562 26.87 522.623V495.675ZM47.3923 511.794V547.521H40.7177V506.034H46.8661L47.3923 511.794ZM66.9176 520.74V521.321C66.9176 523.5 66.6591 525.522 66.1421 527.387C65.6436 529.233 64.8958 530.849 63.8988 532.233C62.9202 533.6 61.7109 534.661 60.2707 535.418C58.8305 536.175 57.1688 536.554 55.2855 536.554C53.4207 536.554 51.7867 536.212 50.3834 535.529C48.9986 534.828 47.8262 533.84 46.8661 532.566C45.906 531.292 45.1305 529.796 44.5397 528.079C43.9673 526.344 43.5611 524.442 43.3211 522.374V520.131C43.5611 517.933 43.9673 515.939 44.5397 514.148C45.1305 512.357 45.906 510.816 46.8661 509.523C47.8262 508.231 48.9986 507.234 50.3834 506.532C51.7682 505.83 53.3838 505.48 55.2301 505.48C57.1134 505.48 58.7844 505.849 60.243 506.587C61.7016 507.308 62.9295 508.341 63.9265 509.689C64.9235 511.019 65.6713 512.625 66.1698 514.508C66.6683 516.373 66.9176 518.45 66.9176 520.74ZM60.243 521.321V520.74C60.243 519.355 60.1137 518.072 59.8553 516.89C59.5968 515.69 59.1906 514.638 58.6367 513.733C58.0827 512.828 57.3719 512.127 56.5041 511.628C55.6548 511.111 54.6301 510.853 53.4299 510.853C52.2482 510.853 51.2327 511.056 50.3834 511.462C49.5341 511.85 48.8232 512.394 48.2509 513.096C47.6785 513.797 47.2354 514.619 46.9215 515.561C46.6076 516.484 46.386 517.49 46.2568 518.58V523.952C46.4784 525.282 46.8569 526.5 47.3923 527.608C47.9278 528.716 48.6848 529.602 49.6633 530.267C50.6604 530.913 51.9344 531.236 53.4853 531.236C54.6854 531.236 55.7102 530.978 56.5595 530.461C57.4088 529.944 58.1012 529.233 58.6367 528.328C59.1906 527.405 59.5968 526.344 59.8553 525.143C60.1137 523.943 60.243 522.669 60.243 521.321ZM89.4063 527.885C89.4063 527.221 89.2401 526.62 88.9078 526.085C88.5754 525.531 87.9384 525.033 86.9968 524.589C86.0736 524.146 84.7073 523.74 82.8979 523.371C81.31 523.02 79.8514 522.605 78.522 522.125C77.2111 521.626 76.0848 521.026 75.1431 520.324C74.2015 519.623 73.4722 518.792 72.9552 517.832C72.4382 516.872 72.1797 515.764 72.1797 514.508C72.1797 513.29 72.4475 512.136 72.9829 511.046C73.5183 509.957 74.2846 508.997 75.2816 508.166C76.2787 507.335 77.488 506.68 78.9097 506.2C80.3499 505.72 81.9562 505.48 83.7287 505.48C86.2398 505.48 88.3908 505.904 90.1818 506.754C91.9912 507.584 93.376 508.72 94.3361 510.16C95.2962 511.582 95.7762 513.188 95.7762 514.979H89.1016C89.1016 514.185 88.8985 513.447 88.4923 512.764C88.1046 512.062 87.5138 511.499 86.7198 511.074C85.9259 510.631 84.9289 510.409 83.7287 510.409C82.584 510.409 81.6331 510.594 80.8761 510.963C80.1376 511.314 79.5836 511.776 79.2144 512.348C78.8636 512.92 78.6882 513.548 78.6882 514.231C78.6882 514.73 78.7805 515.182 78.9651 515.588C79.1682 515.976 79.5006 516.336 79.9621 516.669C80.4237 516.982 81.0515 517.278 81.8454 517.555C82.6578 517.832 83.6733 518.1 84.8919 518.358C87.1814 518.838 89.1478 519.457 90.7911 520.214C92.4528 520.952 93.7268 521.912 94.613 523.094C95.4993 524.257 95.9424 525.734 95.9424 527.525C95.9424 528.855 95.6562 530.073 95.0839 531.181C94.5299 532.27 93.7176 533.221 92.6467 534.034C91.5758 534.828 90.2925 535.446 88.797 535.889C87.3199 536.332 85.6582 536.554 83.8118 536.554C81.0977 536.554 78.7989 536.074 76.9156 535.114C75.0324 534.135 73.6014 532.889 72.6229 531.375C71.6627 529.842 71.1827 528.255 71.1827 526.611H77.6357C77.7096 527.848 78.0512 528.836 78.6605 529.575C79.2882 530.295 80.0637 530.821 80.9869 531.153C81.9285 531.467 82.8979 531.624 83.8949 531.624C85.095 531.624 86.1013 531.467 86.9137 531.153C87.7261 530.821 88.3446 530.378 88.7693 529.824C89.194 529.252 89.4063 528.605 89.4063 527.885ZM109.485 495.675L108.821 524.119H103.116L102.423 495.675H109.485ZM102.229 532.843C102.229 531.827 102.562 530.978 103.226 530.295C103.909 529.593 104.851 529.242 106.051 529.242C107.233 529.242 108.165 529.593 108.848 530.295C109.532 530.978 109.873 531.827 109.873 532.843C109.873 533.821 109.532 534.661 108.848 535.363C108.165 536.046 107.233 536.388 106.051 536.388C104.851 536.388 103.909 536.046 103.226 535.363C102.562 534.661 102.229 533.821 102.229 532.843ZM117.074 532.677C117.074 531.643 117.425 530.775 118.126 530.073C118.828 529.353 119.779 528.993 120.979 528.993C122.198 528.993 123.149 529.353 123.832 530.073C124.533 530.775 124.884 531.643 124.884 532.677C124.884 533.711 124.533 534.578 123.832 535.28C123.149 535.982 122.198 536.332 120.979 536.332C119.779 536.332 118.828 535.982 118.126 535.28C117.425 534.578 117.074 533.711 117.074 532.677ZM132.86 532.677C132.86 531.643 133.211 530.775 133.913 530.073C134.614 529.353 135.565 528.993 136.765 528.993C137.984 528.993 138.935 529.353 139.618 530.073C140.32 530.775 140.671 531.643 140.671 532.677C140.671 533.711 140.32 534.578 139.618 535.28C138.935 535.982 137.984 536.332 136.765 536.332C135.565 536.332 134.614 535.982 133.913 535.28C133.211 534.578 132.86 533.711 132.86 532.677ZM148.647 532.677C148.647 531.643 148.998 530.775 149.699 530.073C150.401 529.353 151.352 528.993 152.552 528.993C153.77 528.993 154.721 529.353 155.405 530.073C156.106 530.775 156.457 531.643 156.457 532.677C156.457 533.711 156.106 534.578 155.405 535.28C154.721 535.982 153.77 536.332 152.552 536.332C151.352 536.332 150.401 535.982 149.699 535.28C148.998 534.578 148.647 533.711 148.647 532.677ZM184.9 512.431V536H178.226V506.034H184.512L184.9 512.431ZM183.709 519.909L181.549 519.881C181.567 517.758 181.863 515.81 182.435 514.038C183.026 512.265 183.839 510.742 184.872 509.468C185.925 508.194 187.18 507.215 188.639 506.532C190.098 505.83 191.722 505.48 193.513 505.48C194.954 505.48 196.255 505.683 197.419 506.089C198.6 506.477 199.606 507.114 200.437 508C201.287 508.886 201.933 510.04 202.376 511.462C202.819 512.865 203.041 514.591 203.041 516.641V536H196.338V516.613C196.338 515.173 196.126 514.038 195.701 513.207C195.295 512.357 194.695 511.757 193.901 511.406C193.126 511.037 192.156 510.853 190.993 510.853C189.848 510.853 188.824 511.093 187.919 511.573C187.014 512.053 186.248 512.708 185.62 513.539C185.011 514.37 184.54 515.33 184.208 516.419C183.875 517.509 183.709 518.672 183.709 519.909ZM208.58 521.349V520.712C208.58 518.552 208.894 516.549 209.521 514.702C210.149 512.837 211.054 511.222 212.236 509.856C213.436 508.471 214.894 507.4 216.611 506.643C218.347 505.867 220.304 505.48 222.483 505.48C224.68 505.48 226.637 505.867 228.354 506.643C230.09 507.4 231.558 508.471 232.758 509.856C233.958 511.222 234.872 512.837 235.5 514.702C236.128 516.549 236.441 518.552 236.441 520.712V521.349C236.441 523.509 236.128 525.513 235.5 527.359C234.872 529.205 233.958 530.821 232.758 532.206C231.558 533.572 230.099 534.643 228.382 535.418C226.665 536.175 224.717 536.554 222.538 536.554C220.341 536.554 218.375 536.175 216.639 535.418C214.922 534.643 213.463 533.572 212.263 532.206C211.063 530.821 210.149 529.205 209.521 527.359C208.894 525.513 208.58 523.509 208.58 521.349ZM215.254 520.712V521.349C215.254 522.697 215.393 523.971 215.67 525.171C215.947 526.371 216.381 527.424 216.971 528.328C217.562 529.233 218.319 529.944 219.243 530.461C220.166 530.978 221.264 531.236 222.538 531.236C223.775 531.236 224.846 530.978 225.751 530.461C226.674 529.944 227.431 529.233 228.022 528.328C228.613 527.424 229.047 526.371 229.324 525.171C229.619 523.971 229.767 522.697 229.767 521.349V520.712C229.767 519.383 229.619 518.127 229.324 516.946C229.047 515.745 228.604 514.684 227.994 513.761C227.403 512.837 226.646 512.117 225.723 511.6C224.819 511.065 223.738 510.797 222.483 510.797C221.227 510.797 220.138 511.065 219.215 511.6C218.31 512.117 217.562 512.837 216.971 513.761C216.381 514.684 215.947 515.745 215.67 516.946C215.393 518.127 215.254 519.383 215.254 520.712ZM262.863 511.794V547.521H256.188V506.034H262.337L262.863 511.794ZM282.388 520.74V521.321C282.388 523.5 282.13 525.522 281.613 527.387C281.114 529.233 280.366 530.849 279.369 532.233C278.391 533.6 277.181 534.661 275.741 535.418C274.301 536.175 272.639 536.554 270.756 536.554C268.891 536.554 267.257 536.212 265.854 535.529C264.469 534.828 263.297 533.84 262.337 532.566C261.377 531.292 260.601 529.796 260.01 528.079C259.438 526.344 259.032 524.442 258.792 522.374V520.131C259.032 517.933 259.438 515.939 260.01 514.148C260.601 512.357 261.377 510.816 262.337 509.523C263.297 508.231 264.469 507.234 265.854 506.532C267.239 505.83 268.854 505.48 270.701 505.48C272.584 505.48 274.255 505.849 275.714 506.587C277.172 507.308 278.4 508.341 279.397 509.689C280.394 511.019 281.142 512.625 281.64 514.508C282.139 516.373 282.388 518.45 282.388 520.74ZM275.714 521.321V520.74C275.714 519.355 275.584 518.072 275.326 516.89C275.067 515.69 274.661 514.638 274.107 513.733C273.553 512.828 272.842 512.127 271.975 511.628C271.125 511.111 270.101 510.853 268.9 510.853C267.719 510.853 266.703 511.056 265.854 511.462C265.005 511.85 264.294 512.394 263.721 513.096C263.149 513.797 262.706 514.619 262.392 515.561C262.078 516.484 261.857 517.49 261.727 518.58V523.952C261.949 525.282 262.327 526.5 262.863 527.608C263.398 528.716 264.155 529.602 265.134 530.267C266.131 530.913 267.405 531.236 268.956 531.236C270.156 531.236 271.181 530.978 272.03 530.461C272.879 529.944 273.572 529.233 274.107 528.328C274.661 527.405 275.067 526.344 275.326 525.143C275.584 523.943 275.714 522.669 275.714 521.321ZM294.768 511.739V536H288.093V506.034H294.463L294.768 511.739ZM303.935 505.84L303.88 512.043C303.474 511.97 303.03 511.914 302.55 511.877C302.089 511.84 301.627 511.822 301.166 511.822C300.021 511.822 299.015 511.988 298.147 512.32C297.279 512.634 296.55 513.096 295.959 513.705C295.387 514.296 294.943 515.016 294.629 515.865C294.316 516.715 294.131 517.666 294.076 518.718L292.552 518.829C292.552 516.946 292.737 515.201 293.106 513.594C293.476 511.988 294.029 510.576 294.768 509.357C295.525 508.138 296.467 507.188 297.593 506.504C298.738 505.821 300.058 505.48 301.553 505.48C301.96 505.48 302.393 505.517 302.855 505.59C303.335 505.664 303.695 505.747 303.935 505.84ZM306.123 521.349V520.712C306.123 518.552 306.437 516.549 307.065 514.702C307.693 512.837 308.597 511.222 309.779 509.856C310.979 508.471 312.438 507.4 314.155 506.643C315.89 505.867 317.848 505.48 320.026 505.48C322.223 505.48 324.181 505.867 325.898 506.643C327.633 507.4 329.101 508.471 330.301 509.856C331.501 511.222 332.415 512.837 333.043 514.702C333.671 516.549 333.985 518.552 333.985 520.712V521.349C333.985 523.509 333.671 525.513 333.043 527.359C332.415 529.205 331.501 530.821 330.301 532.206C329.101 533.572 327.642 534.643 325.925 535.418C324.208 536.175 322.26 536.554 320.082 536.554C317.884 536.554 315.918 536.175 314.182 535.418C312.465 534.643 311.007 533.572 309.807 532.206C308.606 530.821 307.693 529.205 307.065 527.359C306.437 525.513 306.123 523.509 306.123 521.349ZM312.798 520.712V521.349C312.798 522.697 312.936 523.971 313.213 525.171C313.49 526.371 313.924 527.424 314.515 528.328C315.106 529.233 315.863 529.944 316.786 530.461C317.709 530.978 318.808 531.236 320.082 531.236C321.319 531.236 322.39 530.978 323.294 530.461C324.217 529.944 324.974 529.233 325.565 528.328C326.156 527.424 326.59 526.371 326.867 525.171C327.162 523.971 327.31 522.697 327.31 521.349V520.712C327.31 519.383 327.162 518.127 326.867 516.946C326.59 515.745 326.147 514.684 325.538 513.761C324.947 512.837 324.19 512.117 323.267 511.6C322.362 511.065 321.282 510.797 320.026 510.797C318.771 510.797 317.681 511.065 316.758 511.6C315.853 512.117 315.106 512.837 314.515 513.761C313.924 514.684 313.49 515.745 313.213 516.946C312.936 518.127 312.798 519.383 312.798 520.712ZM357.858 529.796V493.46H364.56V536H358.495L357.858 529.796ZM338.361 521.349V520.768C338.361 518.496 338.628 516.429 339.164 514.564C339.699 512.68 340.475 511.065 341.49 509.717C342.506 508.351 343.743 507.308 345.201 506.587C346.66 505.849 348.303 505.48 350.131 505.48C351.941 505.48 353.528 505.83 354.895 506.532C356.261 507.234 357.424 508.24 358.384 509.551C359.345 510.843 360.111 512.394 360.683 514.204C361.255 515.995 361.662 517.989 361.902 520.186V522.041C361.662 524.183 361.255 526.14 360.683 527.913C360.111 529.685 359.345 531.218 358.384 532.51C357.424 533.803 356.252 534.8 354.867 535.501C353.501 536.203 351.904 536.554 350.076 536.554C348.266 536.554 346.632 536.175 345.174 535.418C343.734 534.661 342.506 533.6 341.49 532.233C340.475 530.867 339.699 529.261 339.164 527.414C338.628 525.55 338.361 523.528 338.361 521.349ZM345.035 520.768V521.349C345.035 522.715 345.155 523.989 345.395 525.171C345.654 526.353 346.051 527.396 346.586 528.301C347.122 529.187 347.814 529.889 348.663 530.406C349.531 530.904 350.565 531.153 351.765 531.153C353.279 531.153 354.525 530.821 355.504 530.156C356.483 529.492 357.249 528.596 357.803 527.47C358.375 526.325 358.763 525.051 358.966 523.648V518.635C358.855 517.546 358.624 516.53 358.274 515.588C357.941 514.647 357.489 513.825 356.917 513.124C356.344 512.403 355.633 511.85 354.784 511.462C353.953 511.056 352.965 510.853 351.821 510.853C350.602 510.853 349.568 511.111 348.719 511.628C347.869 512.145 347.168 512.856 346.614 513.761C346.078 514.665 345.681 515.718 345.423 516.918C345.164 518.118 345.035 519.401 345.035 520.768ZM389.569 528.938V506.034H396.272V536H389.957L389.569 528.938ZM390.511 522.706L392.754 522.651C392.754 524.663 392.533 526.519 392.09 528.218C391.647 529.898 390.963 531.366 390.04 532.621C389.117 533.858 387.935 534.828 386.495 535.529C385.055 536.212 383.329 536.554 381.316 536.554C379.858 536.554 378.519 536.342 377.3 535.917C376.082 535.492 375.029 534.837 374.143 533.951C373.275 533.064 372.601 531.91 372.121 530.489C371.641 529.067 371.401 527.368 371.401 525.393V506.034H378.076V525.448C378.076 526.537 378.205 527.451 378.464 528.19C378.722 528.91 379.073 529.492 379.516 529.935C379.959 530.378 380.476 530.692 381.067 530.876C381.658 531.061 382.286 531.153 382.95 531.153C384.852 531.153 386.348 530.784 387.437 530.045C388.545 529.288 389.329 528.273 389.791 526.999C390.271 525.725 390.511 524.294 390.511 522.706ZM415.354 531.236C416.443 531.236 417.422 531.024 418.29 530.599C419.176 530.156 419.887 529.547 420.422 528.771C420.976 527.996 421.281 527.101 421.336 526.085H427.623C427.586 528.024 427.014 529.787 425.906 531.375C424.798 532.963 423.33 534.227 421.502 535.169C419.674 536.092 417.653 536.554 415.437 536.554C413.148 536.554 411.153 536.166 409.455 535.391C407.756 534.597 406.344 533.507 405.217 532.123C404.091 530.738 403.242 529.141 402.669 527.331C402.116 525.522 401.839 523.583 401.839 521.515V520.546C401.839 518.478 402.116 516.539 402.669 514.73C403.242 512.902 404.091 511.296 405.217 509.911C406.344 508.526 407.756 507.446 409.455 506.671C411.153 505.877 413.138 505.48 415.409 505.48C417.81 505.48 419.914 505.96 421.724 506.92C423.533 507.861 424.955 509.182 425.989 510.88C427.041 512.56 427.586 514.518 427.623 516.752H421.336C421.281 515.644 421.004 514.647 420.505 513.761C420.025 512.856 419.342 512.136 418.456 511.6C417.588 511.065 416.545 510.797 415.326 510.797C413.978 510.797 412.861 511.074 411.975 511.628C411.089 512.163 410.396 512.902 409.898 513.844C409.399 514.767 409.039 515.81 408.818 516.973C408.615 518.118 408.513 519.309 408.513 520.546V521.515C408.513 522.752 408.615 523.952 408.818 525.116C409.021 526.279 409.372 527.322 409.87 528.245C410.387 529.15 411.089 529.879 411.975 530.433C412.861 530.969 413.988 531.236 415.354 531.236ZM446.484 506.034V510.908H429.589V506.034H446.484ZM434.464 498.694H441.138V527.719C441.138 528.642 441.268 529.353 441.526 529.852C441.803 530.332 442.182 530.655 442.662 530.821C443.142 530.987 443.705 531.07 444.351 531.07C444.813 531.07 445.256 531.043 445.68 530.987C446.105 530.932 446.447 530.876 446.705 530.821L446.733 535.917C446.179 536.083 445.533 536.231 444.794 536.36C444.074 536.489 443.243 536.554 442.302 536.554C440.769 536.554 439.412 536.286 438.23 535.751C437.049 535.197 436.126 534.301 435.461 533.064C434.796 531.827 434.464 530.184 434.464 528.134V498.694ZM468.446 527.885C468.446 527.221 468.28 526.62 467.948 526.085C467.615 525.531 466.978 525.033 466.037 524.589C465.113 524.146 463.747 523.74 461.938 523.371C460.35 523.02 458.891 522.605 457.562 522.125C456.251 521.626 455.125 521.026 454.183 520.324C453.241 519.623 452.512 518.792 451.995 517.832C451.478 516.872 451.22 515.764 451.22 514.508C451.22 513.29 451.487 512.136 452.023 511.046C452.558 509.957 453.324 508.997 454.321 508.166C455.318 507.335 456.528 506.68 457.95 506.2C459.39 505.72 460.996 505.48 462.769 505.48C465.28 505.48 467.431 505.904 469.222 506.754C471.031 507.584 472.416 508.72 473.376 510.16C474.336 511.582 474.816 513.188 474.816 514.979H468.141C468.141 514.185 467.938 513.447 467.532 512.764C467.144 512.062 466.554 511.499 465.76 511.074C464.966 510.631 463.969 510.409 462.769 510.409C461.624 510.409 460.673 510.594 459.916 510.963C459.177 511.314 458.623 511.776 458.254 512.348C457.903 512.92 457.728 513.548 457.728 514.231C457.728 514.73 457.82 515.182 458.005 515.588C458.208 515.976 458.54 516.336 459.002 516.669C459.464 516.982 460.091 517.278 460.885 517.555C461.698 517.832 462.713 518.1 463.932 518.358C466.221 518.838 468.188 519.457 469.831 520.214C471.493 520.952 472.767 521.912 473.653 523.094C474.539 524.257 474.982 525.734 474.982 527.525C474.982 528.855 474.696 530.073 474.124 531.181C473.57 532.27 472.757 533.221 471.686 534.034C470.616 534.828 469.332 535.446 467.837 535.889C466.36 536.332 464.698 536.554 462.852 536.554C460.137 536.554 457.839 536.074 455.955 535.114C454.072 534.135 452.641 532.889 451.663 531.375C450.703 529.842 450.222 528.255 450.222 526.611H456.676C456.749 527.848 457.091 528.836 457.7 529.575C458.328 530.295 459.103 530.821 460.027 531.153C460.968 531.467 461.938 531.624 462.935 531.624C464.135 531.624 465.141 531.467 465.953 531.153C466.766 530.821 467.384 530.378 467.809 529.824C468.234 529.252 468.446 528.605 468.446 527.885ZM503.979 536H497.305V503.153C497.305 500.919 497.72 499.045 498.551 497.531C499.4 495.999 500.61 494.845 502.179 494.069C503.749 493.275 505.604 492.878 507.746 492.878C508.411 492.878 509.066 492.924 509.712 493.017C510.359 493.091 510.986 493.211 511.596 493.377L511.429 498.528C511.06 498.436 510.654 498.371 510.211 498.334C509.786 498.297 509.325 498.279 508.826 498.279C507.811 498.279 506.934 498.473 506.195 498.86C505.475 499.23 504.921 499.774 504.533 500.494C504.164 501.215 503.979 502.101 503.979 503.153V536ZM510.155 506.034V510.908H492.707V506.034H510.155ZM513.728 521.349V520.712C513.728 518.552 514.042 516.549 514.67 514.702C515.298 512.837 516.202 511.222 517.384 509.856C518.584 508.471 520.043 507.4 521.76 506.643C523.495 505.867 525.453 505.48 527.631 505.48C529.828 505.48 531.786 505.867 533.503 506.643C535.238 507.4 536.706 508.471 537.906 509.856C539.106 511.222 540.02 512.837 540.648 514.702C541.276 516.549 541.59 518.552 541.59 520.712V521.349C541.59 523.509 541.276 525.513 540.648 527.359C540.02 529.205 539.106 530.821 537.906 532.206C536.706 533.572 535.248 534.643 533.53 535.418C531.813 536.175 529.865 536.554 527.687 536.554C525.489 536.554 523.523 536.175 521.788 535.418C520.07 534.643 518.612 533.572 517.412 532.206C516.212 530.821 515.298 529.205 514.67 527.359C514.042 525.513 513.728 523.509 513.728 521.349ZM520.403 520.712V521.349C520.403 522.697 520.541 523.971 520.818 525.171C521.095 526.371 521.529 527.424 522.12 528.328C522.711 529.233 523.468 529.944 524.391 530.461C525.314 530.978 526.413 531.236 527.687 531.236C528.924 531.236 529.995 530.978 530.899 530.461C531.822 529.944 532.58 529.233 533.17 528.328C533.761 527.424 534.195 526.371 534.472 525.171C534.767 523.971 534.915 522.697 534.915 521.349V520.712C534.915 519.383 534.767 518.127 534.472 516.946C534.195 515.745 533.752 514.684 533.143 513.761C532.552 512.837 531.795 512.117 530.872 511.6C529.967 511.065 528.887 510.797 527.631 510.797C526.376 510.797 525.286 511.065 524.363 511.6C523.458 512.117 522.711 512.837 522.12 513.761C521.529 514.684 521.095 515.745 520.818 516.946C520.541 518.127 520.403 519.383 520.403 520.712ZM565.214 528.938V506.034H571.916V536H565.602L565.214 528.938ZM566.156 522.706L568.399 522.651C568.399 524.663 568.177 526.519 567.734 528.218C567.291 529.898 566.608 531.366 565.685 532.621C564.762 533.858 563.58 534.828 562.14 535.529C560.7 536.212 558.973 536.554 556.961 536.554C555.502 536.554 554.163 536.342 552.945 535.917C551.726 535.492 550.674 534.837 549.788 533.951C548.92 533.064 548.246 531.91 547.766 530.489C547.286 529.067 547.046 527.368 547.046 525.393V506.034H553.72V525.448C553.72 526.537 553.85 527.451 554.108 528.19C554.367 528.91 554.717 529.492 555.161 529.935C555.604 530.378 556.121 530.692 556.711 530.876C557.302 531.061 557.93 531.153 558.595 531.153C560.497 531.153 561.992 530.784 563.081 530.045C564.189 529.288 564.974 528.273 565.436 526.999C565.916 525.725 566.156 524.294 566.156 522.706ZM585.376 512.431V536H578.702V506.034H584.988L585.376 512.431ZM584.185 519.909L582.025 519.881C582.044 517.758 582.339 515.81 582.911 514.038C583.502 512.265 584.315 510.742 585.349 509.468C586.401 508.194 587.656 507.215 589.115 506.532C590.574 505.83 592.199 505.48 593.989 505.48C595.43 505.48 596.731 505.683 597.895 506.089C599.076 506.477 600.082 507.114 600.913 508C601.763 508.886 602.409 510.04 602.852 511.462C603.295 512.865 603.517 514.591 603.517 516.641V536H596.814V516.613C596.814 515.173 596.602 514.038 596.177 513.207C595.771 512.357 595.171 511.757 594.377 511.406C593.602 511.037 592.632 510.853 591.469 510.853C590.324 510.853 589.3 511.093 588.395 511.573C587.49 512.053 586.724 512.708 586.096 513.539C585.487 514.37 585.016 515.33 584.684 516.419C584.351 517.509 584.185 518.672 584.185 519.909ZM628.609 529.796V493.46H635.311V536H629.246L628.609 529.796ZM609.111 521.349V520.768C609.111 518.496 609.379 516.429 609.914 514.564C610.45 512.68 611.225 511.065 612.241 509.717C613.256 508.351 614.493 507.308 615.952 506.587C617.411 505.849 619.054 505.48 620.882 505.48C622.691 505.48 624.279 505.83 625.645 506.532C627.012 507.234 628.175 508.24 629.135 509.551C630.095 510.843 630.861 512.394 631.434 514.204C632.006 515.995 632.412 517.989 632.652 520.186V522.041C632.412 524.183 632.006 526.14 631.434 527.913C630.861 529.685 630.095 531.218 629.135 532.51C628.175 533.803 627.003 534.8 625.618 535.501C624.251 536.203 622.654 536.554 620.826 536.554C619.017 536.554 617.383 536.175 615.924 535.418C614.484 534.661 613.256 533.6 612.241 532.233C611.225 530.867 610.45 529.261 609.914 527.414C609.379 525.55 609.111 523.528 609.111 521.349ZM615.786 520.768V521.349C615.786 522.715 615.906 523.989 616.146 525.171C616.404 526.353 616.801 527.396 617.337 528.301C617.872 529.187 618.565 529.889 619.414 530.406C620.282 530.904 621.316 531.153 622.516 531.153C624.03 531.153 625.276 530.821 626.255 530.156C627.233 529.492 628 528.596 628.553 527.47C629.126 526.325 629.514 525.051 629.717 523.648V518.635C629.606 517.546 629.375 516.53 629.024 515.588C628.692 514.647 628.24 513.825 627.667 513.124C627.095 512.403 626.384 511.85 625.535 511.462C624.704 511.056 623.716 510.853 622.571 510.853C621.353 510.853 620.319 511.111 619.469 511.628C618.62 512.145 617.918 512.856 617.365 513.761C616.829 514.665 616.432 515.718 616.174 516.918C615.915 518.118 615.786 519.401 615.786 520.768Z" fill="black"/>
<path d="M118.731 603.529H108.872V599.55H118.731C120.64 599.55 122.186 599.246 123.369 598.638C124.551 598.03 125.413 597.185 125.954 596.103C126.511 595.022 126.79 593.789 126.79 592.403C126.79 591.136 126.511 589.945 125.954 588.83C125.413 587.715 124.551 586.819 123.369 586.144C122.186 585.451 120.64 585.104 118.731 585.104H110.013V618H105.122V581.1H118.731C121.519 581.1 123.876 581.582 125.802 582.545C127.728 583.508 129.189 584.843 130.186 586.549C131.183 588.239 131.681 590.173 131.681 592.353C131.681 594.718 131.183 596.737 130.186 598.41C129.189 600.082 127.728 601.358 125.802 602.237C123.876 603.098 121.519 603.529 118.731 603.529ZM142.25 579.073V618H137.536V579.073H142.25ZM161.156 618.507C159.246 618.507 157.515 618.186 155.96 617.544C154.423 616.885 153.096 615.964 151.981 614.781C150.883 613.599 150.038 612.196 149.447 610.574C148.856 608.952 148.56 607.178 148.56 605.252V604.188C148.56 601.958 148.889 599.973 149.548 598.232C150.207 596.475 151.103 594.988 152.235 593.772C153.367 592.555 154.651 591.635 156.087 591.009C157.523 590.384 159.01 590.072 160.547 590.072C162.507 590.072 164.197 590.41 165.616 591.085C167.052 591.761 168.226 592.707 169.139 593.924C170.051 595.124 170.727 596.543 171.166 598.182C171.605 599.804 171.825 601.578 171.825 603.504V605.607H151.348V601.78H167.137V601.426C167.069 600.209 166.816 599.026 166.376 597.877C165.954 596.729 165.278 595.782 164.349 595.039C163.42 594.296 162.152 593.924 160.547 593.924C159.483 593.924 158.503 594.152 157.607 594.608C156.712 595.047 155.943 595.706 155.301 596.585C154.659 597.464 154.161 598.536 153.806 599.804C153.451 601.071 153.274 602.532 153.274 604.188V605.252C153.274 606.553 153.451 607.778 153.806 608.927C154.178 610.059 154.71 611.056 155.403 611.918C156.112 612.779 156.965 613.455 157.962 613.945C158.976 614.435 160.125 614.68 161.409 614.68C163.065 614.68 164.467 614.342 165.616 613.666C166.765 612.99 167.77 612.087 168.632 610.955L171.47 613.21C170.879 614.106 170.127 614.959 169.215 615.77C168.302 616.581 167.179 617.24 165.844 617.747C164.526 618.253 162.963 618.507 161.156 618.507ZM193.468 613.312V599.195C193.468 598.114 193.249 597.176 192.809 596.382C192.387 595.571 191.745 594.946 190.883 594.507C190.021 594.068 188.957 593.848 187.69 593.848C186.507 593.848 185.468 594.051 184.573 594.456C183.694 594.862 183.001 595.394 182.495 596.053C182.005 596.712 181.76 597.421 181.76 598.182H177.071C177.071 597.202 177.325 596.23 177.831 595.267C178.338 594.304 179.065 593.434 180.011 592.657C180.974 591.863 182.123 591.238 183.458 590.781C184.809 590.308 186.313 590.072 187.969 590.072C189.962 590.072 191.719 590.41 193.24 591.085C194.778 591.761 195.977 592.783 196.839 594.152C197.717 595.504 198.157 597.202 198.157 599.246V612.019C198.157 612.931 198.233 613.903 198.385 614.933C198.554 615.964 198.799 616.851 199.12 617.595V618H194.228C193.992 617.459 193.806 616.741 193.671 615.846C193.536 614.933 193.468 614.089 193.468 613.312ZM194.279 601.375L194.33 604.669H189.591C188.256 604.669 187.065 604.779 186.017 604.999C184.97 605.202 184.091 605.514 183.382 605.937C182.672 606.359 182.131 606.891 181.76 607.533C181.388 608.158 181.202 608.893 181.202 609.738C181.202 610.6 181.396 611.385 181.785 612.095C182.174 612.805 182.756 613.371 183.534 613.793C184.328 614.199 185.299 614.401 186.448 614.401C187.884 614.401 189.151 614.097 190.25 613.489C191.348 612.881 192.218 612.137 192.86 611.259C193.519 610.38 193.874 609.527 193.924 608.699L195.926 610.955C195.808 611.664 195.487 612.45 194.963 613.312C194.44 614.173 193.738 615.001 192.86 615.795C191.998 616.572 190.968 617.223 189.768 617.747C188.585 618.253 187.251 618.507 185.764 618.507C183.905 618.507 182.275 618.144 180.873 617.417C179.487 616.691 178.406 615.719 177.629 614.503C176.868 613.269 176.488 611.892 176.488 610.372C176.488 608.902 176.775 607.609 177.35 606.494C177.924 605.362 178.752 604.424 179.834 603.681C180.915 602.921 182.216 602.346 183.736 601.958C185.257 601.569 186.955 601.375 188.83 601.375H194.279ZM221.498 610.726C221.498 610.051 221.346 609.426 221.042 608.851C220.754 608.26 220.155 607.728 219.242 607.254C218.347 606.765 216.995 606.342 215.187 605.987C213.667 605.666 212.29 605.286 211.056 604.847C209.84 604.408 208.801 603.875 207.939 603.25C207.094 602.625 206.444 601.89 205.988 601.045C205.532 600.201 205.303 599.212 205.303 598.08C205.303 596.999 205.54 595.977 206.013 595.014C206.503 594.051 207.187 593.197 208.066 592.454C208.961 591.711 210.034 591.128 211.284 590.705C212.535 590.283 213.929 590.072 215.466 590.072C217.662 590.072 219.538 590.46 221.092 591.238C222.647 592.015 223.838 593.054 224.666 594.355C225.494 595.639 225.907 597.066 225.907 598.638H221.219C221.219 597.877 220.991 597.143 220.535 596.433C220.095 595.706 219.445 595.107 218.583 594.634C217.739 594.16 216.699 593.924 215.466 593.924C214.165 593.924 213.109 594.127 212.298 594.532C211.504 594.921 210.921 595.419 210.549 596.027C210.195 596.636 210.017 597.278 210.017 597.954C210.017 598.46 210.102 598.917 210.271 599.322C210.457 599.711 210.778 600.074 211.234 600.412C211.69 600.733 212.332 601.037 213.16 601.324C213.988 601.611 215.044 601.899 216.328 602.186C218.575 602.693 220.425 603.301 221.878 604.011C223.331 604.72 224.412 605.59 225.122 606.621C225.831 607.652 226.186 608.902 226.186 610.372C226.186 611.571 225.933 612.669 225.426 613.666C224.936 614.663 224.218 615.525 223.272 616.251C222.343 616.961 221.227 617.518 219.926 617.924C218.642 618.313 217.198 618.507 215.593 618.507C213.177 618.507 211.132 618.076 209.46 617.214C207.787 616.353 206.52 615.238 205.658 613.869C204.797 612.501 204.366 611.056 204.366 609.535H209.08C209.147 610.819 209.519 611.842 210.195 612.602C210.87 613.345 211.698 613.878 212.678 614.199C213.658 614.503 214.63 614.655 215.593 614.655C216.877 614.655 217.95 614.486 218.811 614.148C219.69 613.81 220.357 613.345 220.813 612.754C221.27 612.163 221.498 611.487 221.498 610.726ZM243.724 618.507C241.815 618.507 240.083 618.186 238.528 617.544C236.991 616.885 235.665 615.964 234.55 614.781C233.451 613.599 232.607 612.196 232.015 610.574C231.424 608.952 231.128 607.178 231.128 605.252V604.188C231.128 601.958 231.458 599.973 232.117 598.232C232.775 596.475 233.671 594.988 234.803 593.772C235.935 592.555 237.219 591.635 238.655 591.009C240.091 590.384 241.578 590.072 243.116 590.072C245.075 590.072 246.765 590.41 248.184 591.085C249.62 591.761 250.795 592.707 251.707 593.924C252.619 595.124 253.295 596.543 253.734 598.182C254.174 599.804 254.393 601.578 254.393 603.504V605.607H233.916V601.78H249.705V601.426C249.637 600.209 249.384 599.026 248.944 597.877C248.522 596.729 247.846 595.782 246.917 595.039C245.988 594.296 244.721 593.924 243.116 593.924C242.051 593.924 241.071 594.152 240.176 594.608C239.28 595.047 238.512 595.706 237.869 596.585C237.227 597.464 236.729 598.536 236.374 599.804C236.019 601.071 235.842 602.532 235.842 604.188V605.252C235.842 606.553 236.019 607.778 236.374 608.927C236.746 610.059 237.278 611.056 237.971 611.918C238.68 612.779 239.534 613.455 240.531 613.945C241.544 614.435 242.693 614.68 243.977 614.68C245.633 614.68 247.035 614.342 248.184 613.666C249.333 612.99 250.338 612.087 251.2 610.955L254.038 613.21C253.447 614.106 252.695 614.959 251.783 615.77C250.871 616.581 249.747 617.24 248.412 617.747C247.094 618.253 245.532 618.507 243.724 618.507ZM284.222 590.579V594.177H269.396V590.579H284.222ZM274.414 583.913H279.103V611.208C279.103 612.137 279.247 612.838 279.534 613.312C279.821 613.785 280.193 614.097 280.649 614.249C281.105 614.401 281.595 614.477 282.119 614.477C282.507 614.477 282.913 614.444 283.335 614.376C283.775 614.291 284.104 614.224 284.324 614.173L284.349 618C283.977 618.118 283.487 618.228 282.879 618.329C282.288 618.448 281.57 618.507 280.725 618.507C279.576 618.507 278.52 618.279 277.557 617.823C276.594 617.366 275.825 616.606 275.251 615.542C274.693 614.46 274.414 613.007 274.414 611.183V583.913ZM294.41 594.887V618H289.722V590.579H294.283L294.41 594.887ZM302.976 590.427L302.951 594.786C302.562 594.701 302.191 594.65 301.836 594.634C301.498 594.6 301.109 594.583 300.67 594.583C299.589 594.583 298.634 594.752 297.806 595.09C296.978 595.428 296.277 595.901 295.703 596.509C295.128 597.117 294.672 597.844 294.334 598.688C294.013 599.516 293.802 600.429 293.701 601.426L292.383 602.186C292.383 600.53 292.543 598.976 292.864 597.523C293.202 596.07 293.717 594.786 294.41 593.671C295.103 592.539 295.981 591.66 297.046 591.035C298.127 590.393 299.411 590.072 300.898 590.072C301.236 590.072 301.625 590.114 302.064 590.198C302.503 590.266 302.807 590.342 302.976 590.427ZM315.47 615.162L323.099 590.579H328.117L317.118 622.232C316.864 622.908 316.526 623.635 316.104 624.412C315.699 625.206 315.175 625.958 314.533 626.667C313.891 627.377 313.114 627.951 312.201 628.391C311.306 628.847 310.233 629.075 308.983 629.075C308.611 629.075 308.138 629.024 307.563 628.923C306.989 628.822 306.583 628.737 306.347 628.669L306.322 624.868C306.457 624.885 306.668 624.902 306.955 624.919C307.259 624.952 307.47 624.969 307.589 624.969C308.653 624.969 309.557 624.826 310.3 624.539C311.044 624.268 311.669 623.804 312.176 623.145C312.7 622.503 313.147 621.616 313.519 620.484L315.47 615.162ZM309.87 590.579L316.991 611.867L318.207 616.809L314.837 618.532L304.75 590.579H309.87ZM361.392 613.312V599.195C361.392 598.114 361.173 597.176 360.733 596.382C360.311 595.571 359.669 594.946 358.807 594.507C357.946 594.068 356.881 593.848 355.614 593.848C354.431 593.848 353.392 594.051 352.497 594.456C351.618 594.862 350.926 595.394 350.419 596.053C349.929 596.712 349.684 597.421 349.684 598.182H344.995C344.995 597.202 345.249 596.23 345.756 595.267C346.262 594.304 346.989 593.434 347.935 592.657C348.898 591.863 350.047 591.238 351.382 590.781C352.733 590.308 354.237 590.072 355.893 590.072C357.887 590.072 359.644 590.41 361.164 591.085C362.702 591.761 363.901 592.783 364.763 594.152C365.642 595.504 366.081 597.202 366.081 599.246V612.019C366.081 612.931 366.157 613.903 366.309 614.933C366.478 615.964 366.723 616.851 367.044 617.595V618H362.153C361.916 617.459 361.73 616.741 361.595 615.846C361.46 614.933 361.392 614.089 361.392 613.312ZM362.203 601.375L362.254 604.669H357.515C356.18 604.669 354.989 604.779 353.941 604.999C352.894 605.202 352.015 605.514 351.306 605.937C350.596 606.359 350.055 606.891 349.684 607.533C349.312 608.158 349.126 608.893 349.126 609.738C349.126 610.6 349.321 611.385 349.709 612.095C350.098 612.805 350.681 613.371 351.458 613.793C352.252 614.199 353.223 614.401 354.372 614.401C355.808 614.401 357.076 614.097 358.174 613.489C359.272 612.881 360.142 612.137 360.784 611.259C361.443 610.38 361.798 609.527 361.849 608.699L363.851 610.955C363.732 611.664 363.411 612.45 362.888 613.312C362.364 614.173 361.663 615.001 360.784 615.795C359.922 616.572 358.892 617.223 357.692 617.747C356.51 618.253 355.175 618.507 353.688 618.507C351.829 618.507 350.199 618.144 348.797 617.417C347.411 616.691 346.33 615.719 345.553 614.503C344.793 613.269 344.412 611.892 344.412 610.372C344.412 608.902 344.7 607.609 345.274 606.494C345.848 605.362 346.676 604.424 347.758 603.681C348.839 602.921 350.14 602.346 351.661 601.958C353.181 601.569 354.879 601.375 356.755 601.375H362.203ZM402.296 610.726C402.296 610.051 402.144 609.426 401.84 608.851C401.553 608.26 400.953 607.728 400.041 607.254C399.145 606.765 397.794 606.342 395.986 605.987C394.465 605.666 393.088 605.286 391.855 604.847C390.638 604.408 389.599 603.875 388.738 603.25C387.893 602.625 387.242 601.89 386.786 601.045C386.33 600.201 386.102 599.212 386.102 598.08C386.102 596.999 386.339 595.977 386.812 595.014C387.302 594.051 387.986 593.197 388.864 592.454C389.76 591.711 390.833 591.128 392.083 590.705C393.333 590.283 394.727 590.072 396.265 590.072C398.461 590.072 400.336 590.46 401.891 591.238C403.445 592.015 404.636 593.054 405.464 594.355C406.292 595.639 406.706 597.066 406.706 598.638H402.018C402.018 597.877 401.789 597.143 401.333 596.433C400.894 595.706 400.244 595.107 399.382 594.634C398.537 594.16 397.498 593.924 396.265 593.924C394.964 593.924 393.908 594.127 393.097 594.532C392.303 594.921 391.72 595.419 391.348 596.027C390.993 596.636 390.816 597.278 390.816 597.954C390.816 598.46 390.9 598.917 391.069 599.322C391.255 599.711 391.576 600.074 392.032 600.412C392.488 600.733 393.131 601.037 393.958 601.324C394.786 601.611 395.842 601.899 397.126 602.186C399.373 602.693 401.223 603.301 402.676 604.011C404.129 604.72 405.211 605.59 405.92 606.621C406.63 607.652 406.985 608.902 406.985 610.372C406.985 611.571 406.731 612.669 406.225 613.666C405.735 614.663 405.016 615.525 404.07 616.251C403.141 616.961 402.026 617.518 400.725 617.924C399.441 618.313 397.996 618.507 396.391 618.507C393.975 618.507 391.931 618.076 390.258 617.214C388.586 616.353 387.318 615.238 386.457 613.869C385.595 612.501 385.164 611.056 385.164 609.535H389.878C389.946 610.819 390.317 611.842 390.993 612.602C391.669 613.345 392.497 613.878 393.477 614.199C394.457 614.503 395.428 614.655 396.391 614.655C397.675 614.655 398.748 614.486 399.61 614.148C400.488 613.81 401.156 613.345 401.612 612.754C402.068 612.163 402.296 611.487 402.296 610.726ZM424.522 618.507C422.613 618.507 420.881 618.186 419.327 617.544C417.789 616.885 416.463 615.964 415.348 614.781C414.25 613.599 413.405 612.196 412.814 610.574C412.222 608.952 411.927 607.178 411.927 605.252V604.188C411.927 601.958 412.256 599.973 412.915 598.232C413.574 596.475 414.47 594.988 415.602 593.772C416.734 592.555 418.018 591.635 419.454 591.009C420.89 590.384 422.377 590.072 423.914 590.072C425.874 590.072 427.564 590.41 428.983 591.085C430.419 591.761 431.593 592.707 432.505 593.924C433.418 595.124 434.094 596.543 434.533 598.182C434.972 599.804 435.192 601.578 435.192 603.504V605.607H414.714V601.78H430.503V601.426C430.436 600.209 430.182 599.026 429.743 597.877C429.321 596.729 428.645 595.782 427.716 595.039C426.786 594.296 425.519 593.924 423.914 593.924C422.85 593.924 421.87 594.152 420.974 594.608C420.079 595.047 419.31 595.706 418.668 596.585C418.026 597.464 417.528 598.536 417.173 599.804C416.818 601.071 416.641 602.532 416.641 604.188V605.252C416.641 606.553 416.818 607.778 417.173 608.927C417.544 610.059 418.077 611.056 418.769 611.918C419.479 612.779 420.332 613.455 421.329 613.945C422.343 614.435 423.492 614.68 424.776 614.68C426.432 614.68 427.834 614.342 428.983 613.666C430.132 612.99 431.137 612.087 431.999 610.955L434.837 613.21C434.246 614.106 433.494 614.959 432.581 615.77C431.669 616.581 430.546 617.24 429.211 617.747C427.893 618.253 426.33 618.507 424.522 618.507ZM456.835 613.312V599.195C456.835 598.114 456.615 597.176 456.176 596.382C455.754 595.571 455.112 594.946 454.25 594.507C453.388 594.068 452.324 593.848 451.057 593.848C449.874 593.848 448.835 594.051 447.939 594.456C447.061 594.862 446.368 595.394 445.861 596.053C445.371 596.712 445.126 597.421 445.126 598.182H440.438C440.438 597.202 440.691 596.23 441.198 595.267C441.705 594.304 442.432 593.434 443.378 592.657C444.341 591.863 445.49 591.238 446.824 590.781C448.176 590.308 449.68 590.072 451.335 590.072C453.329 590.072 455.086 590.41 456.607 591.085C458.144 591.761 459.344 592.783 460.206 594.152C461.084 595.504 461.523 597.202 461.523 599.246V612.019C461.523 612.931 461.599 613.903 461.752 614.933C461.92 615.964 462.165 616.851 462.486 617.595V618H457.595C457.359 617.459 457.173 616.741 457.038 615.846C456.903 614.933 456.835 614.089 456.835 613.312ZM457.646 601.375L457.697 604.669H452.957C451.623 604.669 450.432 604.779 449.384 604.999C448.337 605.202 447.458 605.514 446.748 605.937C446.039 606.359 445.498 606.891 445.126 607.533C444.755 608.158 444.569 608.893 444.569 609.738C444.569 610.6 444.763 611.385 445.152 612.095C445.54 612.805 446.123 613.371 446.9 613.793C447.694 614.199 448.666 614.401 449.815 614.401C451.251 614.401 452.518 614.097 453.616 613.489C454.715 612.881 455.585 612.137 456.227 611.259C456.886 610.38 457.24 609.527 457.291 608.699L459.293 610.955C459.175 611.664 458.854 612.45 458.33 613.312C457.806 614.173 457.105 615.001 456.227 615.795C455.365 616.572 454.334 617.223 453.135 617.747C451.952 618.253 450.617 618.507 449.131 618.507C447.272 618.507 445.642 618.144 444.239 617.417C442.854 616.691 441.773 615.719 440.995 614.503C440.235 613.269 439.855 611.892 439.855 610.372C439.855 608.902 440.142 607.609 440.717 606.494C441.291 605.362 442.119 604.424 443.2 603.681C444.282 602.921 445.583 602.346 447.103 601.958C448.624 601.569 450.322 601.375 452.197 601.375H457.646ZM473.587 594.887V618H468.898V590.579H473.46L473.587 594.887ZM482.153 590.427L482.127 594.786C481.739 594.701 481.367 594.65 481.012 594.634C480.674 594.6 480.286 594.583 479.847 594.583C478.765 594.583 477.811 594.752 476.983 595.09C476.155 595.428 475.454 595.901 474.879 596.509C474.305 597.117 473.849 597.844 473.511 598.688C473.19 599.516 472.979 600.429 472.877 601.426L471.559 602.186C471.559 600.53 471.72 598.976 472.041 597.523C472.379 596.07 472.894 594.786 473.587 593.671C474.28 592.539 475.158 591.66 476.223 591.035C477.304 590.393 478.588 590.072 480.075 590.072C480.413 590.072 480.801 590.114 481.24 590.198C481.68 590.266 481.984 590.342 482.153 590.427ZM496.953 614.655C498.068 614.655 499.099 614.427 500.045 613.97C500.991 613.514 501.768 612.889 502.377 612.095C502.985 611.284 503.331 610.363 503.416 609.333H507.876C507.792 610.955 507.243 612.467 506.229 613.869C505.232 615.254 503.923 616.378 502.301 617.24C500.679 618.084 498.896 618.507 496.953 618.507C494.892 618.507 493.093 618.144 491.555 617.417C490.035 616.691 488.767 615.694 487.754 614.427C486.757 613.159 486.005 611.706 485.498 610.068C485.008 608.412 484.763 606.663 484.763 604.822V603.757C484.763 601.916 485.008 600.175 485.498 598.536C486.005 596.881 486.757 595.419 487.754 594.152C488.767 592.885 490.035 591.888 491.555 591.162C493.093 590.435 494.892 590.072 496.953 590.072C499.099 590.072 500.974 590.511 502.579 591.39C504.185 592.251 505.443 593.434 506.356 594.938C507.285 596.424 507.792 598.114 507.876 600.006H503.416C503.331 598.874 503.01 597.852 502.453 596.94C501.912 596.027 501.169 595.301 500.223 594.76C499.293 594.203 498.204 593.924 496.953 593.924C495.517 593.924 494.309 594.211 493.329 594.786C492.366 595.343 491.597 596.103 491.023 597.066C490.465 598.013 490.06 599.069 489.806 600.234C489.57 601.383 489.452 602.558 489.452 603.757V604.822C489.452 606.021 489.57 607.204 489.806 608.37C490.043 609.535 490.44 610.591 490.998 611.537C491.572 612.484 492.341 613.244 493.304 613.818C494.284 614.376 495.5 614.655 496.953 614.655ZM517.836 579.073V618H513.148V579.073H517.836ZM516.721 603.25L514.77 603.174C514.786 601.299 515.065 599.567 515.606 597.979C516.147 596.374 516.907 594.98 517.887 593.797C518.867 592.615 520.032 591.702 521.384 591.06C522.753 590.401 524.265 590.072 525.921 590.072C527.272 590.072 528.489 590.258 529.57 590.629C530.651 590.984 531.572 591.559 532.332 592.353C533.11 593.147 533.701 594.177 534.106 595.445C534.512 596.695 534.715 598.224 534.715 600.032V618H530.001V599.981C530.001 598.545 529.79 597.396 529.367 596.534C528.945 595.656 528.328 595.022 527.517 594.634C526.706 594.228 525.709 594.025 524.527 594.025C523.361 594.025 522.296 594.27 521.333 594.76C520.387 595.25 519.568 595.926 518.875 596.788C518.199 597.649 517.667 598.638 517.279 599.753C516.907 600.851 516.721 602.017 516.721 603.25Z" fill="#A3A3A3"/>
</svg>
