<svg width="26" height="26" viewBox="0 0 26 26" fill="none" xmlns="http://www.w3.org/2000/svg">
<path d="M13 26C5.8203 26 0 20.1797 0 13C0 5.8203 5.8203 0 13 0C20.1797 0 26 5.8203 26 13C26 20.1797 20.1797 26 13 26Z" fill="url(#paint0_linear_500_734)"/>
<path d="M13.0002 25.319C6.19645 25.319 0.680969 19.8036 0.680969 12.9999C0.680969 6.19615 6.19645 0.680664 13.0002 0.680664C19.8038 0.680664 25.3193 6.19615 25.3193 12.9999C25.3193 19.8036 19.8038 25.319 13.0002 25.319Z" fill="url(#paint1_linear_500_734)"/>
<path d="M15.0422 23.7373C20.0638 22.785 23.8884 18.382 23.9284 13.0823C23.9729 7.05731 19.1071 2.11807 13.0821 2.07357C10.163 2.05132 7.41087 3.16821 5.3306 5.21733C3.25033 7.26645 2.09339 10.0008 2.07114 12.9199C2.04889 15.8389 3.16578 18.5911 5.2149 20.6714C7.26402 22.7516 9.99841 23.9086 12.9175 23.9286C13.6428 23.9331 14.3547 23.8685 15.0422 23.7373ZM11.0419 2.80555C11.7049 2.67874 12.3857 2.61867 13.0754 2.62312C15.8476 2.64314 18.4441 3.74223 20.3908 5.71793C22.3354 7.69363 23.3967 10.3056 23.3744 13.0778C23.3544 15.8501 22.2553 18.4465 20.2796 20.3933C18.3039 22.3378 15.6919 23.3991 12.9197 23.3768C10.1475 23.3568 7.55103 22.2577 5.60426 20.282C3.65971 18.3085 2.59844 15.6943 2.62069 12.9221C2.64071 10.1499 3.73981 7.55346 5.7155 5.60668C7.1995 4.14716 9.04393 3.18601 11.0419 2.80555Z" fill="url(#paint2_linear_500_734)"/>
<g opacity="0.4" filter="url(#filter0_d_500_734)">
<path d="M17.6585 18.5712C17.0245 18.5712 16.4906 18.0537 16.4906 17.4026V13.6464L12.9869 10.0739L9.48325 13.6464V17.4026C9.48325 18.037 8.96604 18.5712 8.31536 18.5712C7.68136 18.5712 7.14746 18.0537 7.14746 17.4026V13.3459C7.14746 12.9286 7.3143 12.5446 7.59793 12.2441L11.8858 7.87027C12.1861 7.56977 12.5865 7.40283 12.9869 7.40283C13.404 7.40283 13.7878 7.56977 14.0881 7.87027L18.3759 12.2441C18.6596 12.5446 18.8264 12.9286 18.8264 13.3459V17.4026C18.8264 18.037 18.3092 18.5712 17.6585 18.5712Z" fill="#734908"/>
</g>
<path d="M13 26C5.8203 26 0 20.1797 0 13C0 5.8203 5.8203 0 13 0C20.1797 0 26 5.8203 26 13C26 20.1797 20.1797 26 13 26Z" fill="url(#paint3_linear_500_734)"/>
<path d="M13.0002 25.319C6.19645 25.319 0.680969 19.8036 0.680969 12.9999C0.680969 6.19615 6.19645 0.680664 13.0002 0.680664C19.8038 0.680664 25.3193 6.19615 25.3193 12.9999C25.3193 19.8036 19.8038 25.319 13.0002 25.319Z" fill="url(#paint4_linear_500_734)"/>
<path d="M15.0422 23.7373C20.0638 22.785 23.8884 18.382 23.9284 13.0823C23.9729 7.05731 19.1071 2.11807 13.0821 2.07357C10.163 2.05132 7.41087 3.16821 5.3306 5.21733C3.25033 7.26645 2.09339 10.0008 2.07114 12.9199C2.04889 15.8389 3.16578 18.5911 5.2149 20.6714C7.26402 22.7516 9.99841 23.9086 12.9175 23.9286C13.6428 23.9331 14.3547 23.8685 15.0422 23.7373ZM11.0419 2.80555C11.7049 2.67874 12.3857 2.61867 13.0754 2.62312C15.8476 2.64314 18.4441 3.74223 20.3908 5.71793C22.3354 7.69363 23.3967 10.3056 23.3744 13.0778C23.3544 15.8501 22.2553 18.4465 20.2796 20.3933C18.3039 22.3378 15.6919 23.3991 12.9197 23.3768C10.1475 23.3568 7.55103 22.2577 5.60426 20.282C3.65971 18.3085 2.59844 15.6943 2.62069 12.9221C2.64071 10.1499 3.73981 7.55346 5.7155 5.60668C7.1995 4.14716 9.04393 3.18601 11.0419 2.80555Z" fill="url(#paint5_linear_500_734)"/>
<g opacity="0.4" filter="url(#filter1_d_500_734)">
<path d="M8.34149 18.5712C8.97549 18.5712 9.50939 18.0537 9.50939 17.4026V13.6464L13.0131 10.0739L16.5168 13.6464V17.4026C16.5168 18.037 17.034 18.5712 17.6846 18.5712C18.3186 18.5712 18.8525 18.0537 18.8525 17.4026V13.3459C18.8525 12.9286 18.6857 12.5446 18.4021 12.2441L14.1142 7.87027C13.8139 7.56977 13.4135 7.40283 13.0131 7.40283C12.596 7.40283 12.2122 7.56977 11.9119 7.87027L7.62407 12.2441C7.34044 12.5446 7.1736 12.9286 7.1736 13.3459V17.4026C7.1736 18.037 7.69081 18.5712 8.34149 18.5712Z" fill="#734908"/>
</g>
<defs>
<filter id="filter0_d_500_734" x="7.14746" y="7.40283" width="11.8514" height="11.3411" filterUnits="userSpaceOnUse" color-interpolation-filters="sRGB">
<feFlood flood-opacity="0" result="BackgroundImageFix"/>
<feColorMatrix in="SourceAlpha" type="matrix" values="0 0 0 0 0 0 0 0 0 0 0 0 0 0 0 0 0 0 127 0" result="hardAlpha"/>
<feOffset dx="0.172688" dy="0.172688"/>
<feComposite in2="hardAlpha" operator="out"/>
<feColorMatrix type="matrix" values="0 0 0 0 0.992157 0 0 0 0 0.952941 0 0 0 0 0.454902 0 0 0 1 0"/>
<feBlend mode="normal" in2="BackgroundImageFix" result="effect1_dropShadow_500_734"/>
<feBlend mode="normal" in="SourceGraphic" in2="effect1_dropShadow_500_734" result="shape"/>
</filter>
<filter id="filter1_d_500_734" x="7.17383" y="7.40283" width="11.8514" height="11.3411" filterUnits="userSpaceOnUse" color-interpolation-filters="sRGB">
<feFlood flood-opacity="0" result="BackgroundImageFix"/>
<feColorMatrix in="SourceAlpha" type="matrix" values="0 0 0 0 0 0 0 0 0 0 0 0 0 0 0 0 0 0 127 0" result="hardAlpha"/>
<feOffset dx="0.172688" dy="0.172688"/>
<feComposite in2="hardAlpha" operator="out"/>
<feColorMatrix type="matrix" values="0 0 0 0 0.992157 0 0 0 0 0.952941 0 0 0 0 0.454902 0 0 0 1 0"/>
<feBlend mode="normal" in2="BackgroundImageFix" result="effect1_dropShadow_500_734"/>
<feBlend mode="normal" in="SourceGraphic" in2="effect1_dropShadow_500_734" result="shape"/>
</filter>
<linearGradient id="paint0_linear_500_734" x1="29.5678" y1="1.73938" x2="-9.51269" y2="28.3011" gradientUnits="userSpaceOnUse">
<stop stop-color="#FFE26F"/>
<stop offset="0.2034" stop-color="#EFA722"/>
<stop offset="0.2058" stop-color="#EEA622"/>
<stop offset="0.2654" stop-color="#D5921E"/>
<stop offset="0.3276" stop-color="#C4831B"/>
<stop offset="0.3944" stop-color="#B97B1A"/>
<stop offset="0.473" stop-color="#B67819"/>
<stop offset="0.5189" stop-color="#BF7F1A"/>
<stop offset="0.5923" stop-color="#D6921E"/>
<stop offset="0.6544" stop-color="#EFA722"/>
<stop offset="0.6783" stop-color="#F1B430"/>
<stop offset="0.7573" stop-color="#F9DD5B"/>
<stop offset="0.819" stop-color="#FDF676"/>
<stop offset="0.8554" stop-color="#FFFF80"/>
<stop offset="0.881" stop-color="#FEFA7B"/>
<stop offset="0.9124" stop-color="#FCEB6C"/>
<stop offset="0.9468" stop-color="#F9D254"/>
<stop offset="0.9831" stop-color="#F4B033"/>
<stop offset="1" stop-color="#F19D21"/>
</linearGradient>
<linearGradient id="paint1_linear_500_734" x1="5.99273" y1="5.99248" x2="24.2503" y2="24.2501" gradientUnits="userSpaceOnUse">
<stop stop-color="#FFE26F"/>
<stop offset="0.2034" stop-color="#EFA722"/>
<stop offset="0.2058" stop-color="#EEA622"/>
<stop offset="0.2654" stop-color="#D5921E"/>
<stop offset="0.3276" stop-color="#C4831B"/>
<stop offset="0.3944" stop-color="#B97B1A"/>
<stop offset="0.473" stop-color="#B67819"/>
<stop offset="0.5189" stop-color="#BF7F1A"/>
<stop offset="0.5923" stop-color="#D6921E"/>
<stop offset="0.6544" stop-color="#EFA722"/>
<stop offset="0.6783" stop-color="#F1B430"/>
<stop offset="0.7573" stop-color="#F9DD5B"/>
<stop offset="0.819" stop-color="#FDF676"/>
<stop offset="0.8554" stop-color="#FFFF80"/>
<stop offset="0.881" stop-color="#FEFA7B"/>
<stop offset="0.9124" stop-color="#FCEB6C"/>
<stop offset="0.9468" stop-color="#F9D254"/>
<stop offset="0.9831" stop-color="#F4B033"/>
<stop offset="1" stop-color="#F19D21"/>
</linearGradient>
<linearGradient id="paint2_linear_500_734" x1="23.7373" y1="10.9607" x2="2.25968" y2="15.0376" gradientUnits="userSpaceOnUse">
<stop stop-color="#F6CE69"/>
<stop offset="0.2034" stop-color="#D99A26"/>
<stop offset="0.2532" stop-color="#C68B23"/>
<stop offset="0.3191" stop-color="#B57C20"/>
<stop offset="0.3898" stop-color="#AA741F"/>
<stop offset="0.473" stop-color="#A7711E"/>
<stop offset="0.5235" stop-color="#B0781F"/>
<stop offset="0.6042" stop-color="#C78B23"/>
<stop offset="0.6544" stop-color="#D99A26"/>
<stop offset="0.6768" stop-color="#DEA732"/>
<stop offset="0.7565" stop-color="#F0D258"/>
<stop offset="0.8187" stop-color="#FBED6F"/>
<stop offset="0.8554" stop-color="#FFF778"/>
<stop offset="0.8804" stop-color="#FDF274"/>
<stop offset="0.9111" stop-color="#F8E368"/>
<stop offset="0.9447" stop-color="#EFCA53"/>
<stop offset="0.9801" stop-color="#E3A837"/>
<stop offset="1" stop-color="#DB9125"/>
</linearGradient>
<linearGradient id="paint3_linear_500_734" x1="29.5678" y1="1.73938" x2="-9.51269" y2="28.3011" gradientUnits="userSpaceOnUse">
<stop stop-color="#FFE26F"/>
<stop offset="0.2034" stop-color="#EFA722"/>
<stop offset="0.2058" stop-color="#EEA622"/>
<stop offset="0.2654" stop-color="#D5921E"/>
<stop offset="0.3276" stop-color="#C4831B"/>
<stop offset="0.3944" stop-color="#B97B1A"/>
<stop offset="0.473" stop-color="#B67819"/>
<stop offset="0.5189" stop-color="#BF7F1A"/>
<stop offset="0.5923" stop-color="#D6921E"/>
<stop offset="0.6544" stop-color="#EFA722"/>
<stop offset="0.6783" stop-color="#F1B430"/>
<stop offset="0.7573" stop-color="#F9DD5B"/>
<stop offset="0.819" stop-color="#FDF676"/>
<stop offset="0.8554" stop-color="#FFFF80"/>
<stop offset="0.881" stop-color="#FEFA7B"/>
<stop offset="0.9124" stop-color="#FCEB6C"/>
<stop offset="0.9468" stop-color="#F9D254"/>
<stop offset="0.9831" stop-color="#F4B033"/>
<stop offset="1" stop-color="#F19D21"/>
</linearGradient>
<linearGradient id="paint4_linear_500_734" x1="5.99273" y1="5.99248" x2="24.2503" y2="24.2501" gradientUnits="userSpaceOnUse">
<stop stop-color="#FFE26F"/>
<stop offset="0.2034" stop-color="#EFA722"/>
<stop offset="0.2058" stop-color="#EEA622"/>
<stop offset="0.2654" stop-color="#D5921E"/>
<stop offset="0.3276" stop-color="#C4831B"/>
<stop offset="0.3944" stop-color="#B97B1A"/>
<stop offset="0.473" stop-color="#B67819"/>
<stop offset="0.5189" stop-color="#BF7F1A"/>
<stop offset="0.5923" stop-color="#D6921E"/>
<stop offset="0.6544" stop-color="#EFA722"/>
<stop offset="0.6783" stop-color="#F1B430"/>
<stop offset="0.7573" stop-color="#F9DD5B"/>
<stop offset="0.819" stop-color="#FDF676"/>
<stop offset="0.8554" stop-color="#FFFF80"/>
<stop offset="0.881" stop-color="#FEFA7B"/>
<stop offset="0.9124" stop-color="#FCEB6C"/>
<stop offset="0.9468" stop-color="#F9D254"/>
<stop offset="0.9831" stop-color="#F4B033"/>
<stop offset="1" stop-color="#F19D21"/>
</linearGradient>
<linearGradient id="paint5_linear_500_734" x1="23.7373" y1="10.9607" x2="2.25968" y2="15.0376" gradientUnits="userSpaceOnUse">
<stop stop-color="#F6CE69"/>
<stop offset="0.2034" stop-color="#D99A26"/>
<stop offset="0.2532" stop-color="#C68B23"/>
<stop offset="0.3191" stop-color="#B57C20"/>
<stop offset="0.3898" stop-color="#AA741F"/>
<stop offset="0.473" stop-color="#A7711E"/>
<stop offset="0.5235" stop-color="#B0781F"/>
<stop offset="0.6042" stop-color="#C78B23"/>
<stop offset="0.6544" stop-color="#D99A26"/>
<stop offset="0.6768" stop-color="#DEA732"/>
<stop offset="0.7565" stop-color="#F0D258"/>
<stop offset="0.8187" stop-color="#FBED6F"/>
<stop offset="0.8554" stop-color="#FFF778"/>
<stop offset="0.8804" stop-color="#FDF274"/>
<stop offset="0.9111" stop-color="#F8E368"/>
<stop offset="0.9447" stop-color="#EFCA53"/>
<stop offset="0.9801" stop-color="#E3A837"/>
<stop offset="1" stop-color="#DB9125"/>
</linearGradient>
</defs>
</svg>
