<svg width="206" height="81" viewBox="0 0 206 81" fill="none" xmlns="http://www.w3.org/2000/svg">
<path d="M1 21.5C8.33333 23.8333 22.6 23.5 21 3.5" stroke="url(#paint0_linear_1_42)" stroke-width="0.3"/>
<path d="M129.5 75.902C157.195 85.6115 211.074 84.2245 205.031 1" stroke="url(#paint1_linear_1_42)" stroke-width="0.3"/>
<path d="M7.11914 24.0905C15.4221 26.7751 31.575 26.3915 29.7635 3.38086" stroke="url(#paint2_linear_1_42)" stroke-width="0.3"/>
<path d="M13.2383 26.6812C22.5108 29.717 40.5501 29.2833 38.527 3.26196" stroke="url(#paint3_linear_1_42)" stroke-width="0.3"/>
<path d="M19.3574 29.2717C29.5995 32.6588 49.5251 32.1749 47.2905 3.14282" stroke="url(#paint4_linear_1_42)" stroke-width="0.3"/>
<path d="M25.4766 31.8624C36.6883 35.6007 58.5001 35.0667 56.054 3.02393" stroke="url(#paint5_linear_1_42)" stroke-width="0.3"/>
<path d="M31.5957 34.4529C43.777 38.5425 67.4752 37.9582 64.8174 2.90479" stroke="url(#paint6_linear_1_42)" stroke-width="0.3"/>
<path d="M37.7139 37.0434C50.8648 41.4842 76.4492 40.8498 73.58 2.78564" stroke="url(#paint7_linear_1_42)" stroke-width="0.3"/>
<path d="M43.833 39.6341C57.9535 44.4262 85.4243 43.7416 82.3434 2.66675" stroke="url(#paint8_linear_1_42)" stroke-width="0.3"/>
<path d="M49.9521 42.2246C65.0422 47.3679 94.3993 46.6331 91.1069 2.54761" stroke="url(#paint9_linear_1_42)" stroke-width="0.3"/>
<path d="M56.0713 44.815C72.131 50.3096 103.374 49.5247 99.8704 2.42847" stroke="url(#paint10_linear_1_42)" stroke-width="0.3"/>
<path d="M62.1904 47.4058C79.2197 53.2516 112.349 52.4165 108.634 2.30957" stroke="url(#paint11_linear_1_42)" stroke-width="0.3"/>
<path d="M68.3096 49.9963C86.3084 56.1933 121.324 55.308 117.397 2.19043" stroke="url(#paint12_linear_1_42)" stroke-width="0.3"/>
<path d="M74.4287 52.587C93.3972 59.1353 130.299 58.1998 126.161 2.07153" stroke="url(#paint13_linear_1_42)" stroke-width="0.3"/>
<path d="M80.5479 55.1775C100.486 62.077 139.275 61.0914 134.924 1.95239" stroke="url(#paint14_linear_1_42)" stroke-width="0.3"/>
<path d="M86.667 57.7679C107.575 65.0187 148.25 63.9829 143.688 1.83325" stroke="url(#paint15_linear_1_42)" stroke-width="0.3"/>
<path d="M92.7861 60.3587C114.663 67.9607 157.225 66.8747 152.451 1.71436" stroke="url(#paint16_linear_1_42)" stroke-width="0.3"/>
<path d="M98.9043 62.9491C121.751 70.9024 166.199 69.7662 161.214 1.59521" stroke="url(#paint17_linear_1_42)" stroke-width="0.3"/>
<path d="M105.023 65.5396C128.84 73.8442 175.174 72.6578 169.977 1.47607" stroke="url(#paint18_linear_1_42)" stroke-width="0.3"/>
<path d="M111.143 68.1303C135.929 76.7861 184.149 75.5496 178.741 1.35718" stroke="url(#paint19_linear_1_42)" stroke-width="0.3"/>
<path d="M117.262 70.7208C143.017 79.7279 193.124 78.4411 187.504 1.23804" stroke="url(#paint20_linear_1_42)" stroke-width="0.3"/>
<path d="M123.381 73.3115C150.106 82.6698 202.099 81.3329 196.268 1.11914" stroke="url(#paint21_linear_1_42)" stroke-width="0.3"/>
<defs>
<linearGradient id="paint0_linear_1_42" x1="11.0621" y1="3.5" x2="11.0621" y2="22.4848" gradientUnits="userSpaceOnUse">
<stop stop-color="#F8DF88"/>
<stop offset="1" stop-color="#4F4F4F"/>
</linearGradient>
<linearGradient id="paint1_linear_1_42" x1="167.5" y1="1" x2="167.5" y2="80" gradientUnits="userSpaceOnUse">
<stop stop-color="#F8DF88"/>
<stop offset="1" stop-color="#4F4F4F"/>
</linearGradient>
<linearGradient id="paint2_linear_1_42" x1="18.5116" y1="3.38086" x2="18.5116" y2="25.2235" gradientUnits="userSpaceOnUse">
<stop stop-color="#F8DF88"/>
<stop offset="1" stop-color="#4F4F4F"/>
</linearGradient>
<linearGradient id="paint3_linear_1_42" x1="25.9611" y1="3.26196" x2="25.9611" y2="27.9625" gradientUnits="userSpaceOnUse">
<stop stop-color="#F8DF88"/>
<stop offset="1" stop-color="#4F4F4F"/>
</linearGradient>
<linearGradient id="paint4_linear_1_42" x1="33.4106" y1="3.14282" x2="33.4106" y2="30.7012" gradientUnits="userSpaceOnUse">
<stop stop-color="#F8DF88"/>
<stop offset="1" stop-color="#4F4F4F"/>
</linearGradient>
<linearGradient id="paint5_linear_1_42" x1="40.8601" y1="3.02393" x2="40.8601" y2="33.4402" gradientUnits="userSpaceOnUse">
<stop stop-color="#F8DF88"/>
<stop offset="1" stop-color="#4F4F4F"/>
</linearGradient>
<linearGradient id="paint6_linear_1_42" x1="48.3096" y1="2.90479" x2="48.3096" y2="36.1789" gradientUnits="userSpaceOnUse">
<stop stop-color="#F8DF88"/>
<stop offset="1" stop-color="#4F4F4F"/>
</linearGradient>
<linearGradient id="paint7_linear_1_42" x1="55.7582" y1="2.78564" x2="55.7582" y2="38.9176" gradientUnits="userSpaceOnUse">
<stop stop-color="#F8DF88"/>
<stop offset="1" stop-color="#4F4F4F"/>
</linearGradient>
<linearGradient id="paint8_linear_1_42" x1="63.2077" y1="2.66675" x2="63.2077" y2="41.6566" gradientUnits="userSpaceOnUse">
<stop stop-color="#F8DF88"/>
<stop offset="1" stop-color="#4F4F4F"/>
</linearGradient>
<linearGradient id="paint9_linear_1_42" x1="70.6572" y1="2.54761" x2="70.6572" y2="44.3953" gradientUnits="userSpaceOnUse">
<stop stop-color="#F8DF88"/>
<stop offset="1" stop-color="#4F4F4F"/>
</linearGradient>
<linearGradient id="paint10_linear_1_42" x1="78.1067" y1="2.42847" x2="78.1067" y2="47.1341" gradientUnits="userSpaceOnUse">
<stop stop-color="#F8DF88"/>
<stop offset="1" stop-color="#4F4F4F"/>
</linearGradient>
<linearGradient id="paint11_linear_1_42" x1="85.5563" y1="2.30957" x2="85.5563" y2="49.873" gradientUnits="userSpaceOnUse">
<stop stop-color="#F8DF88"/>
<stop offset="1" stop-color="#4F4F4F"/>
</linearGradient>
<linearGradient id="paint12_linear_1_42" x1="93.0058" y1="2.19043" x2="93.0058" y2="52.6118" gradientUnits="userSpaceOnUse">
<stop stop-color="#F8DF88"/>
<stop offset="1" stop-color="#4F4F4F"/>
</linearGradient>
<linearGradient id="paint13_linear_1_42" x1="100.455" y1="2.07153" x2="100.455" y2="55.3507" gradientUnits="userSpaceOnUse">
<stop stop-color="#F8DF88"/>
<stop offset="1" stop-color="#4F4F4F"/>
</linearGradient>
<linearGradient id="paint14_linear_1_42" x1="107.905" y1="1.95239" x2="107.905" y2="58.0895" gradientUnits="userSpaceOnUse">
<stop stop-color="#F8DF88"/>
<stop offset="1" stop-color="#4F4F4F"/>
</linearGradient>
<linearGradient id="paint15_linear_1_42" x1="115.354" y1="1.83325" x2="115.354" y2="60.8282" gradientUnits="userSpaceOnUse">
<stop stop-color="#F8DF88"/>
<stop offset="1" stop-color="#4F4F4F"/>
</linearGradient>
<linearGradient id="paint16_linear_1_42" x1="122.804" y1="1.71436" x2="122.804" y2="63.5672" gradientUnits="userSpaceOnUse">
<stop stop-color="#F8DF88"/>
<stop offset="1" stop-color="#4F4F4F"/>
</linearGradient>
<linearGradient id="paint17_linear_1_42" x1="130.252" y1="1.59521" x2="130.252" y2="66.3059" gradientUnits="userSpaceOnUse">
<stop stop-color="#F8DF88"/>
<stop offset="1" stop-color="#4F4F4F"/>
</linearGradient>
<linearGradient id="paint18_linear_1_42" x1="137.702" y1="1.47607" x2="137.702" y2="69.0446" gradientUnits="userSpaceOnUse">
<stop stop-color="#F8DF88"/>
<stop offset="1" stop-color="#4F4F4F"/>
</linearGradient>
<linearGradient id="paint19_linear_1_42" x1="145.151" y1="1.35718" x2="145.151" y2="71.7836" gradientUnits="userSpaceOnUse">
<stop stop-color="#F8DF88"/>
<stop offset="1" stop-color="#4F4F4F"/>
</linearGradient>
<linearGradient id="paint20_linear_1_42" x1="152.601" y1="1.23804" x2="152.601" y2="74.5223" gradientUnits="userSpaceOnUse">
<stop stop-color="#F8DF88"/>
<stop offset="1" stop-color="#4F4F4F"/>
</linearGradient>
<linearGradient id="paint21_linear_1_42" x1="160.05" y1="1.11914" x2="160.05" y2="77.2613" gradientUnits="userSpaceOnUse">
<stop stop-color="#F8DF88"/>
<stop offset="1" stop-color="#4F4F4F"/>
</linearGradient>
</defs>
</svg>
